%TF.GenerationSoftware,KiCad,Pcbnew,9.0.6*%
%TF.CreationDate,2026-04-12T06:48:52-04:00*%
%TF.ProjectId,iMX6_BareBones,694d5836-5f42-4617-9265-426f6e65732e,1*%
%TF.SameCoordinates,Original*%
%TF.FileFunction,Profile,NP*%
%FSLAX46Y46*%
G04 Gerber Fmt 4.6, Leading zero omitted, Abs format (unit mm)*
G04 Created by KiCad (PCBNEW 9.0.6) date 2026-04-12 06:48:52*
%MOMM*%
%LPD*%
G01*
G04 APERTURE LIST*
%ADD10C,0.100000*%
%ADD11C,0.150000*%
%ADD12C,0.300000*%
%ADD13C,0.400000*%
%TA.AperFunction,Profile*%
%ADD14C,0.050000*%
%TD*%
G04 APERTURE END LIST*
D10*
D11*
X177002200Y-166007200D02*
X285002200Y-166007200D01*
X285002200Y-198007200D01*
X177002200Y-198007200D01*
X177002200Y-166007200D01*
D10*
D11*
X10000000Y-10000000D02*
X287002200Y-10000000D01*
X287002200Y-200007200D01*
X10000000Y-200007200D01*
X10000000Y-10000000D01*
D10*
D11*
X12000000Y-12000000D02*
X285002200Y-12000000D01*
X285002200Y-198007200D01*
X12000000Y-198007200D01*
X12000000Y-12000000D01*
D10*
D11*
X60000000Y-12000000D02*
X60000000Y-10000000D01*
D10*
D11*
X110000000Y-12000000D02*
X110000000Y-10000000D01*
D10*
D11*
X160000000Y-12000000D02*
X160000000Y-10000000D01*
D10*
D11*
X210000000Y-12000000D02*
X210000000Y-10000000D01*
D10*
D11*
X260000000Y-12000000D02*
X260000000Y-10000000D01*
D10*
D11*
X36089160Y-11593604D02*
X35346303Y-11593604D01*
X35717731Y-11593604D02*
X35717731Y-10293604D01*
X35717731Y-10293604D02*
X35593922Y-10479319D01*
X35593922Y-10479319D02*
X35470112Y-10603128D01*
X35470112Y-10603128D02*
X35346303Y-10665033D01*
D10*
D11*
X85346303Y-10417414D02*
X85408207Y-10355509D01*
X85408207Y-10355509D02*
X85532017Y-10293604D01*
X85532017Y-10293604D02*
X85841541Y-10293604D01*
X85841541Y-10293604D02*
X85965350Y-10355509D01*
X85965350Y-10355509D02*
X86027255Y-10417414D01*
X86027255Y-10417414D02*
X86089160Y-10541223D01*
X86089160Y-10541223D02*
X86089160Y-10665033D01*
X86089160Y-10665033D02*
X86027255Y-10850747D01*
X86027255Y-10850747D02*
X85284398Y-11593604D01*
X85284398Y-11593604D02*
X86089160Y-11593604D01*
D10*
D11*
X135284398Y-10293604D02*
X136089160Y-10293604D01*
X136089160Y-10293604D02*
X135655826Y-10788842D01*
X135655826Y-10788842D02*
X135841541Y-10788842D01*
X135841541Y-10788842D02*
X135965350Y-10850747D01*
X135965350Y-10850747D02*
X136027255Y-10912652D01*
X136027255Y-10912652D02*
X136089160Y-11036461D01*
X136089160Y-11036461D02*
X136089160Y-11345985D01*
X136089160Y-11345985D02*
X136027255Y-11469795D01*
X136027255Y-11469795D02*
X135965350Y-11531700D01*
X135965350Y-11531700D02*
X135841541Y-11593604D01*
X135841541Y-11593604D02*
X135470112Y-11593604D01*
X135470112Y-11593604D02*
X135346303Y-11531700D01*
X135346303Y-11531700D02*
X135284398Y-11469795D01*
D10*
D11*
X185965350Y-10726938D02*
X185965350Y-11593604D01*
X185655826Y-10231700D02*
X185346303Y-11160271D01*
X185346303Y-11160271D02*
X186151064Y-11160271D01*
D10*
D11*
X236027255Y-10293604D02*
X235408207Y-10293604D01*
X235408207Y-10293604D02*
X235346303Y-10912652D01*
X235346303Y-10912652D02*
X235408207Y-10850747D01*
X235408207Y-10850747D02*
X235532017Y-10788842D01*
X235532017Y-10788842D02*
X235841541Y-10788842D01*
X235841541Y-10788842D02*
X235965350Y-10850747D01*
X235965350Y-10850747D02*
X236027255Y-10912652D01*
X236027255Y-10912652D02*
X236089160Y-11036461D01*
X236089160Y-11036461D02*
X236089160Y-11345985D01*
X236089160Y-11345985D02*
X236027255Y-11469795D01*
X236027255Y-11469795D02*
X235965350Y-11531700D01*
X235965350Y-11531700D02*
X235841541Y-11593604D01*
X235841541Y-11593604D02*
X235532017Y-11593604D01*
X235532017Y-11593604D02*
X235408207Y-11531700D01*
X235408207Y-11531700D02*
X235346303Y-11469795D01*
D10*
D11*
X285965350Y-10293604D02*
X285717731Y-10293604D01*
X285717731Y-10293604D02*
X285593922Y-10355509D01*
X285593922Y-10355509D02*
X285532017Y-10417414D01*
X285532017Y-10417414D02*
X285408207Y-10603128D01*
X285408207Y-10603128D02*
X285346303Y-10850747D01*
X285346303Y-10850747D02*
X285346303Y-11345985D01*
X285346303Y-11345985D02*
X285408207Y-11469795D01*
X285408207Y-11469795D02*
X285470112Y-11531700D01*
X285470112Y-11531700D02*
X285593922Y-11593604D01*
X285593922Y-11593604D02*
X285841541Y-11593604D01*
X285841541Y-11593604D02*
X285965350Y-11531700D01*
X285965350Y-11531700D02*
X286027255Y-11469795D01*
X286027255Y-11469795D02*
X286089160Y-11345985D01*
X286089160Y-11345985D02*
X286089160Y-11036461D01*
X286089160Y-11036461D02*
X286027255Y-10912652D01*
X286027255Y-10912652D02*
X285965350Y-10850747D01*
X285965350Y-10850747D02*
X285841541Y-10788842D01*
X285841541Y-10788842D02*
X285593922Y-10788842D01*
X285593922Y-10788842D02*
X285470112Y-10850747D01*
X285470112Y-10850747D02*
X285408207Y-10912652D01*
X285408207Y-10912652D02*
X285346303Y-11036461D01*
D10*
D11*
X60000000Y-198007200D02*
X60000000Y-200007200D01*
D10*
D11*
X110000000Y-198007200D02*
X110000000Y-200007200D01*
D10*
D11*
X160000000Y-198007200D02*
X160000000Y-200007200D01*
D10*
D11*
X210000000Y-198007200D02*
X210000000Y-200007200D01*
D10*
D11*
X260000000Y-198007200D02*
X260000000Y-200007200D01*
D10*
D11*
X36089160Y-199600804D02*
X35346303Y-199600804D01*
X35717731Y-199600804D02*
X35717731Y-198300804D01*
X35717731Y-198300804D02*
X35593922Y-198486519D01*
X35593922Y-198486519D02*
X35470112Y-198610328D01*
X35470112Y-198610328D02*
X35346303Y-198672233D01*
D10*
D11*
X85346303Y-198424614D02*
X85408207Y-198362709D01*
X85408207Y-198362709D02*
X85532017Y-198300804D01*
X85532017Y-198300804D02*
X85841541Y-198300804D01*
X85841541Y-198300804D02*
X85965350Y-198362709D01*
X85965350Y-198362709D02*
X86027255Y-198424614D01*
X86027255Y-198424614D02*
X86089160Y-198548423D01*
X86089160Y-198548423D02*
X86089160Y-198672233D01*
X86089160Y-198672233D02*
X86027255Y-198857947D01*
X86027255Y-198857947D02*
X85284398Y-199600804D01*
X85284398Y-199600804D02*
X86089160Y-199600804D01*
D10*
D11*
X135284398Y-198300804D02*
X136089160Y-198300804D01*
X136089160Y-198300804D02*
X135655826Y-198796042D01*
X135655826Y-198796042D02*
X135841541Y-198796042D01*
X135841541Y-198796042D02*
X135965350Y-198857947D01*
X135965350Y-198857947D02*
X136027255Y-198919852D01*
X136027255Y-198919852D02*
X136089160Y-199043661D01*
X136089160Y-199043661D02*
X136089160Y-199353185D01*
X136089160Y-199353185D02*
X136027255Y-199476995D01*
X136027255Y-199476995D02*
X135965350Y-199538900D01*
X135965350Y-199538900D02*
X135841541Y-199600804D01*
X135841541Y-199600804D02*
X135470112Y-199600804D01*
X135470112Y-199600804D02*
X135346303Y-199538900D01*
X135346303Y-199538900D02*
X135284398Y-199476995D01*
D10*
D11*
X185965350Y-198734138D02*
X185965350Y-199600804D01*
X185655826Y-198238900D02*
X185346303Y-199167471D01*
X185346303Y-199167471D02*
X186151064Y-199167471D01*
D10*
D11*
X236027255Y-198300804D02*
X235408207Y-198300804D01*
X235408207Y-198300804D02*
X235346303Y-198919852D01*
X235346303Y-198919852D02*
X235408207Y-198857947D01*
X235408207Y-198857947D02*
X235532017Y-198796042D01*
X235532017Y-198796042D02*
X235841541Y-198796042D01*
X235841541Y-198796042D02*
X235965350Y-198857947D01*
X235965350Y-198857947D02*
X236027255Y-198919852D01*
X236027255Y-198919852D02*
X236089160Y-199043661D01*
X236089160Y-199043661D02*
X236089160Y-199353185D01*
X236089160Y-199353185D02*
X236027255Y-199476995D01*
X236027255Y-199476995D02*
X235965350Y-199538900D01*
X235965350Y-199538900D02*
X235841541Y-199600804D01*
X235841541Y-199600804D02*
X235532017Y-199600804D01*
X235532017Y-199600804D02*
X235408207Y-199538900D01*
X235408207Y-199538900D02*
X235346303Y-199476995D01*
D10*
D11*
X285965350Y-198300804D02*
X285717731Y-198300804D01*
X285717731Y-198300804D02*
X285593922Y-198362709D01*
X285593922Y-198362709D02*
X285532017Y-198424614D01*
X285532017Y-198424614D02*
X285408207Y-198610328D01*
X285408207Y-198610328D02*
X285346303Y-198857947D01*
X285346303Y-198857947D02*
X285346303Y-199353185D01*
X285346303Y-199353185D02*
X285408207Y-199476995D01*
X285408207Y-199476995D02*
X285470112Y-199538900D01*
X285470112Y-199538900D02*
X285593922Y-199600804D01*
X285593922Y-199600804D02*
X285841541Y-199600804D01*
X285841541Y-199600804D02*
X285965350Y-199538900D01*
X285965350Y-199538900D02*
X286027255Y-199476995D01*
X286027255Y-199476995D02*
X286089160Y-199353185D01*
X286089160Y-199353185D02*
X286089160Y-199043661D01*
X286089160Y-199043661D02*
X286027255Y-198919852D01*
X286027255Y-198919852D02*
X285965350Y-198857947D01*
X285965350Y-198857947D02*
X285841541Y-198796042D01*
X285841541Y-198796042D02*
X285593922Y-198796042D01*
X285593922Y-198796042D02*
X285470112Y-198857947D01*
X285470112Y-198857947D02*
X285408207Y-198919852D01*
X285408207Y-198919852D02*
X285346303Y-199043661D01*
D10*
D11*
X10000000Y-60000000D02*
X12000000Y-60000000D01*
D10*
D11*
X10000000Y-110000000D02*
X12000000Y-110000000D01*
D10*
D11*
X10000000Y-160000000D02*
X12000000Y-160000000D01*
D10*
D11*
X10690476Y-35222176D02*
X11309523Y-35222176D01*
X10566666Y-35593604D02*
X10999999Y-34293604D01*
X10999999Y-34293604D02*
X11433333Y-35593604D01*
D10*
D11*
X11092857Y-84912652D02*
X11278571Y-84974557D01*
X11278571Y-84974557D02*
X11340476Y-85036461D01*
X11340476Y-85036461D02*
X11402380Y-85160271D01*
X11402380Y-85160271D02*
X11402380Y-85345985D01*
X11402380Y-85345985D02*
X11340476Y-85469795D01*
X11340476Y-85469795D02*
X11278571Y-85531700D01*
X11278571Y-85531700D02*
X11154761Y-85593604D01*
X11154761Y-85593604D02*
X10659523Y-85593604D01*
X10659523Y-85593604D02*
X10659523Y-84293604D01*
X10659523Y-84293604D02*
X11092857Y-84293604D01*
X11092857Y-84293604D02*
X11216666Y-84355509D01*
X11216666Y-84355509D02*
X11278571Y-84417414D01*
X11278571Y-84417414D02*
X11340476Y-84541223D01*
X11340476Y-84541223D02*
X11340476Y-84665033D01*
X11340476Y-84665033D02*
X11278571Y-84788842D01*
X11278571Y-84788842D02*
X11216666Y-84850747D01*
X11216666Y-84850747D02*
X11092857Y-84912652D01*
X11092857Y-84912652D02*
X10659523Y-84912652D01*
D10*
D11*
X11402380Y-135469795D02*
X11340476Y-135531700D01*
X11340476Y-135531700D02*
X11154761Y-135593604D01*
X11154761Y-135593604D02*
X11030952Y-135593604D01*
X11030952Y-135593604D02*
X10845238Y-135531700D01*
X10845238Y-135531700D02*
X10721428Y-135407890D01*
X10721428Y-135407890D02*
X10659523Y-135284080D01*
X10659523Y-135284080D02*
X10597619Y-135036461D01*
X10597619Y-135036461D02*
X10597619Y-134850747D01*
X10597619Y-134850747D02*
X10659523Y-134603128D01*
X10659523Y-134603128D02*
X10721428Y-134479319D01*
X10721428Y-134479319D02*
X10845238Y-134355509D01*
X10845238Y-134355509D02*
X11030952Y-134293604D01*
X11030952Y-134293604D02*
X11154761Y-134293604D01*
X11154761Y-134293604D02*
X11340476Y-134355509D01*
X11340476Y-134355509D02*
X11402380Y-134417414D01*
D10*
D11*
X10659523Y-185593604D02*
X10659523Y-184293604D01*
X10659523Y-184293604D02*
X10969047Y-184293604D01*
X10969047Y-184293604D02*
X11154761Y-184355509D01*
X11154761Y-184355509D02*
X11278571Y-184479319D01*
X11278571Y-184479319D02*
X11340476Y-184603128D01*
X11340476Y-184603128D02*
X11402380Y-184850747D01*
X11402380Y-184850747D02*
X11402380Y-185036461D01*
X11402380Y-185036461D02*
X11340476Y-185284080D01*
X11340476Y-185284080D02*
X11278571Y-185407890D01*
X11278571Y-185407890D02*
X11154761Y-185531700D01*
X11154761Y-185531700D02*
X10969047Y-185593604D01*
X10969047Y-185593604D02*
X10659523Y-185593604D01*
D10*
D11*
X287002200Y-60000000D02*
X285002200Y-60000000D01*
D10*
D11*
X287002200Y-110000000D02*
X285002200Y-110000000D01*
D10*
D11*
X287002200Y-160000000D02*
X285002200Y-160000000D01*
D10*
D11*
X285692676Y-35222176D02*
X286311723Y-35222176D01*
X285568866Y-35593604D02*
X286002199Y-34293604D01*
X286002199Y-34293604D02*
X286435533Y-35593604D01*
D10*
D11*
X286095057Y-84912652D02*
X286280771Y-84974557D01*
X286280771Y-84974557D02*
X286342676Y-85036461D01*
X286342676Y-85036461D02*
X286404580Y-85160271D01*
X286404580Y-85160271D02*
X286404580Y-85345985D01*
X286404580Y-85345985D02*
X286342676Y-85469795D01*
X286342676Y-85469795D02*
X286280771Y-85531700D01*
X286280771Y-85531700D02*
X286156961Y-85593604D01*
X286156961Y-85593604D02*
X285661723Y-85593604D01*
X285661723Y-85593604D02*
X285661723Y-84293604D01*
X285661723Y-84293604D02*
X286095057Y-84293604D01*
X286095057Y-84293604D02*
X286218866Y-84355509D01*
X286218866Y-84355509D02*
X286280771Y-84417414D01*
X286280771Y-84417414D02*
X286342676Y-84541223D01*
X286342676Y-84541223D02*
X286342676Y-84665033D01*
X286342676Y-84665033D02*
X286280771Y-84788842D01*
X286280771Y-84788842D02*
X286218866Y-84850747D01*
X286218866Y-84850747D02*
X286095057Y-84912652D01*
X286095057Y-84912652D02*
X285661723Y-84912652D01*
D10*
D11*
X286404580Y-135469795D02*
X286342676Y-135531700D01*
X286342676Y-135531700D02*
X286156961Y-135593604D01*
X286156961Y-135593604D02*
X286033152Y-135593604D01*
X286033152Y-135593604D02*
X285847438Y-135531700D01*
X285847438Y-135531700D02*
X285723628Y-135407890D01*
X285723628Y-135407890D02*
X285661723Y-135284080D01*
X285661723Y-135284080D02*
X285599819Y-135036461D01*
X285599819Y-135036461D02*
X285599819Y-134850747D01*
X285599819Y-134850747D02*
X285661723Y-134603128D01*
X285661723Y-134603128D02*
X285723628Y-134479319D01*
X285723628Y-134479319D02*
X285847438Y-134355509D01*
X285847438Y-134355509D02*
X286033152Y-134293604D01*
X286033152Y-134293604D02*
X286156961Y-134293604D01*
X286156961Y-134293604D02*
X286342676Y-134355509D01*
X286342676Y-134355509D02*
X286404580Y-134417414D01*
D10*
D11*
X285661723Y-185593604D02*
X285661723Y-184293604D01*
X285661723Y-184293604D02*
X285971247Y-184293604D01*
X285971247Y-184293604D02*
X286156961Y-184355509D01*
X286156961Y-184355509D02*
X286280771Y-184479319D01*
X286280771Y-184479319D02*
X286342676Y-184603128D01*
X286342676Y-184603128D02*
X286404580Y-184850747D01*
X286404580Y-184850747D02*
X286404580Y-185036461D01*
X286404580Y-185036461D02*
X286342676Y-185284080D01*
X286342676Y-185284080D02*
X286280771Y-185407890D01*
X286280771Y-185407890D02*
X286156961Y-185531700D01*
X286156961Y-185531700D02*
X285971247Y-185593604D01*
X285971247Y-185593604D02*
X285661723Y-185593604D01*
D10*
D11*
X200458026Y-193793328D02*
X200458026Y-192293328D01*
X200458026Y-192293328D02*
X200815169Y-192293328D01*
X200815169Y-192293328D02*
X201029455Y-192364757D01*
X201029455Y-192364757D02*
X201172312Y-192507614D01*
X201172312Y-192507614D02*
X201243741Y-192650471D01*
X201243741Y-192650471D02*
X201315169Y-192936185D01*
X201315169Y-192936185D02*
X201315169Y-193150471D01*
X201315169Y-193150471D02*
X201243741Y-193436185D01*
X201243741Y-193436185D02*
X201172312Y-193579042D01*
X201172312Y-193579042D02*
X201029455Y-193721900D01*
X201029455Y-193721900D02*
X200815169Y-193793328D01*
X200815169Y-193793328D02*
X200458026Y-193793328D01*
X202600884Y-193793328D02*
X202600884Y-193007614D01*
X202600884Y-193007614D02*
X202529455Y-192864757D01*
X202529455Y-192864757D02*
X202386598Y-192793328D01*
X202386598Y-192793328D02*
X202100884Y-192793328D01*
X202100884Y-192793328D02*
X201958026Y-192864757D01*
X202600884Y-193721900D02*
X202458026Y-193793328D01*
X202458026Y-193793328D02*
X202100884Y-193793328D01*
X202100884Y-193793328D02*
X201958026Y-193721900D01*
X201958026Y-193721900D02*
X201886598Y-193579042D01*
X201886598Y-193579042D02*
X201886598Y-193436185D01*
X201886598Y-193436185D02*
X201958026Y-193293328D01*
X201958026Y-193293328D02*
X202100884Y-193221900D01*
X202100884Y-193221900D02*
X202458026Y-193221900D01*
X202458026Y-193221900D02*
X202600884Y-193150471D01*
X203100884Y-192793328D02*
X203672312Y-192793328D01*
X203315169Y-192293328D02*
X203315169Y-193579042D01*
X203315169Y-193579042D02*
X203386598Y-193721900D01*
X203386598Y-193721900D02*
X203529455Y-193793328D01*
X203529455Y-193793328D02*
X203672312Y-193793328D01*
X204743741Y-193721900D02*
X204600884Y-193793328D01*
X204600884Y-193793328D02*
X204315170Y-193793328D01*
X204315170Y-193793328D02*
X204172312Y-193721900D01*
X204172312Y-193721900D02*
X204100884Y-193579042D01*
X204100884Y-193579042D02*
X204100884Y-193007614D01*
X204100884Y-193007614D02*
X204172312Y-192864757D01*
X204172312Y-192864757D02*
X204315170Y-192793328D01*
X204315170Y-192793328D02*
X204600884Y-192793328D01*
X204600884Y-192793328D02*
X204743741Y-192864757D01*
X204743741Y-192864757D02*
X204815170Y-193007614D01*
X204815170Y-193007614D02*
X204815170Y-193150471D01*
X204815170Y-193150471D02*
X204100884Y-193293328D01*
X205458026Y-193650471D02*
X205529455Y-193721900D01*
X205529455Y-193721900D02*
X205458026Y-193793328D01*
X205458026Y-193793328D02*
X205386598Y-193721900D01*
X205386598Y-193721900D02*
X205458026Y-193650471D01*
X205458026Y-193650471D02*
X205458026Y-193793328D01*
X205458026Y-192864757D02*
X205529455Y-192936185D01*
X205529455Y-192936185D02*
X205458026Y-193007614D01*
X205458026Y-193007614D02*
X205386598Y-192936185D01*
X205386598Y-192936185D02*
X205458026Y-192864757D01*
X205458026Y-192864757D02*
X205458026Y-193007614D01*
X207243741Y-192436185D02*
X207315169Y-192364757D01*
X207315169Y-192364757D02*
X207458027Y-192293328D01*
X207458027Y-192293328D02*
X207815169Y-192293328D01*
X207815169Y-192293328D02*
X207958027Y-192364757D01*
X207958027Y-192364757D02*
X208029455Y-192436185D01*
X208029455Y-192436185D02*
X208100884Y-192579042D01*
X208100884Y-192579042D02*
X208100884Y-192721900D01*
X208100884Y-192721900D02*
X208029455Y-192936185D01*
X208029455Y-192936185D02*
X207172312Y-193793328D01*
X207172312Y-193793328D02*
X208100884Y-193793328D01*
X209029455Y-192293328D02*
X209172312Y-192293328D01*
X209172312Y-192293328D02*
X209315169Y-192364757D01*
X209315169Y-192364757D02*
X209386598Y-192436185D01*
X209386598Y-192436185D02*
X209458026Y-192579042D01*
X209458026Y-192579042D02*
X209529455Y-192864757D01*
X209529455Y-192864757D02*
X209529455Y-193221900D01*
X209529455Y-193221900D02*
X209458026Y-193507614D01*
X209458026Y-193507614D02*
X209386598Y-193650471D01*
X209386598Y-193650471D02*
X209315169Y-193721900D01*
X209315169Y-193721900D02*
X209172312Y-193793328D01*
X209172312Y-193793328D02*
X209029455Y-193793328D01*
X209029455Y-193793328D02*
X208886598Y-193721900D01*
X208886598Y-193721900D02*
X208815169Y-193650471D01*
X208815169Y-193650471D02*
X208743740Y-193507614D01*
X208743740Y-193507614D02*
X208672312Y-193221900D01*
X208672312Y-193221900D02*
X208672312Y-192864757D01*
X208672312Y-192864757D02*
X208743740Y-192579042D01*
X208743740Y-192579042D02*
X208815169Y-192436185D01*
X208815169Y-192436185D02*
X208886598Y-192364757D01*
X208886598Y-192364757D02*
X209029455Y-192293328D01*
X210100883Y-192436185D02*
X210172311Y-192364757D01*
X210172311Y-192364757D02*
X210315169Y-192293328D01*
X210315169Y-192293328D02*
X210672311Y-192293328D01*
X210672311Y-192293328D02*
X210815169Y-192364757D01*
X210815169Y-192364757D02*
X210886597Y-192436185D01*
X210886597Y-192436185D02*
X210958026Y-192579042D01*
X210958026Y-192579042D02*
X210958026Y-192721900D01*
X210958026Y-192721900D02*
X210886597Y-192936185D01*
X210886597Y-192936185D02*
X210029454Y-193793328D01*
X210029454Y-193793328D02*
X210958026Y-193793328D01*
X212243740Y-192293328D02*
X211958025Y-192293328D01*
X211958025Y-192293328D02*
X211815168Y-192364757D01*
X211815168Y-192364757D02*
X211743740Y-192436185D01*
X211743740Y-192436185D02*
X211600882Y-192650471D01*
X211600882Y-192650471D02*
X211529454Y-192936185D01*
X211529454Y-192936185D02*
X211529454Y-193507614D01*
X211529454Y-193507614D02*
X211600882Y-193650471D01*
X211600882Y-193650471D02*
X211672311Y-193721900D01*
X211672311Y-193721900D02*
X211815168Y-193793328D01*
X211815168Y-193793328D02*
X212100882Y-193793328D01*
X212100882Y-193793328D02*
X212243740Y-193721900D01*
X212243740Y-193721900D02*
X212315168Y-193650471D01*
X212315168Y-193650471D02*
X212386597Y-193507614D01*
X212386597Y-193507614D02*
X212386597Y-193150471D01*
X212386597Y-193150471D02*
X212315168Y-193007614D01*
X212315168Y-193007614D02*
X212243740Y-192936185D01*
X212243740Y-192936185D02*
X212100882Y-192864757D01*
X212100882Y-192864757D02*
X211815168Y-192864757D01*
X211815168Y-192864757D02*
X211672311Y-192936185D01*
X211672311Y-192936185D02*
X211600882Y-193007614D01*
X211600882Y-193007614D02*
X211529454Y-193150471D01*
X213029453Y-193221900D02*
X214172311Y-193221900D01*
X215172311Y-192293328D02*
X215315168Y-192293328D01*
X215315168Y-192293328D02*
X215458025Y-192364757D01*
X215458025Y-192364757D02*
X215529454Y-192436185D01*
X215529454Y-192436185D02*
X215600882Y-192579042D01*
X215600882Y-192579042D02*
X215672311Y-192864757D01*
X215672311Y-192864757D02*
X215672311Y-193221900D01*
X215672311Y-193221900D02*
X215600882Y-193507614D01*
X215600882Y-193507614D02*
X215529454Y-193650471D01*
X215529454Y-193650471D02*
X215458025Y-193721900D01*
X215458025Y-193721900D02*
X215315168Y-193793328D01*
X215315168Y-193793328D02*
X215172311Y-193793328D01*
X215172311Y-193793328D02*
X215029454Y-193721900D01*
X215029454Y-193721900D02*
X214958025Y-193650471D01*
X214958025Y-193650471D02*
X214886596Y-193507614D01*
X214886596Y-193507614D02*
X214815168Y-193221900D01*
X214815168Y-193221900D02*
X214815168Y-192864757D01*
X214815168Y-192864757D02*
X214886596Y-192579042D01*
X214886596Y-192579042D02*
X214958025Y-192436185D01*
X214958025Y-192436185D02*
X215029454Y-192364757D01*
X215029454Y-192364757D02*
X215172311Y-192293328D01*
X216958025Y-192793328D02*
X216958025Y-193793328D01*
X216600882Y-192221900D02*
X216243739Y-193293328D01*
X216243739Y-193293328D02*
X217172310Y-193293328D01*
X217743738Y-193221900D02*
X218886596Y-193221900D01*
X220386596Y-193793328D02*
X219529453Y-193793328D01*
X219958024Y-193793328D02*
X219958024Y-192293328D01*
X219958024Y-192293328D02*
X219815167Y-192507614D01*
X219815167Y-192507614D02*
X219672310Y-192650471D01*
X219672310Y-192650471D02*
X219529453Y-192721900D01*
X220958024Y-192436185D02*
X221029452Y-192364757D01*
X221029452Y-192364757D02*
X221172310Y-192293328D01*
X221172310Y-192293328D02*
X221529452Y-192293328D01*
X221529452Y-192293328D02*
X221672310Y-192364757D01*
X221672310Y-192364757D02*
X221743738Y-192436185D01*
X221743738Y-192436185D02*
X221815167Y-192579042D01*
X221815167Y-192579042D02*
X221815167Y-192721900D01*
X221815167Y-192721900D02*
X221743738Y-192936185D01*
X221743738Y-192936185D02*
X220886595Y-193793328D01*
X220886595Y-193793328D02*
X221815167Y-193793328D01*
D10*
D11*
X177002200Y-194507200D02*
X285002200Y-194507200D01*
D10*
D11*
X178458026Y-196593328D02*
X178458026Y-195093328D01*
X179315169Y-196593328D02*
X178672312Y-195736185D01*
X179315169Y-195093328D02*
X178458026Y-195950471D01*
X179958026Y-196593328D02*
X179958026Y-195593328D01*
X179958026Y-195093328D02*
X179886598Y-195164757D01*
X179886598Y-195164757D02*
X179958026Y-195236185D01*
X179958026Y-195236185D02*
X180029455Y-195164757D01*
X180029455Y-195164757D02*
X179958026Y-195093328D01*
X179958026Y-195093328D02*
X179958026Y-195236185D01*
X181529455Y-196450471D02*
X181458027Y-196521900D01*
X181458027Y-196521900D02*
X181243741Y-196593328D01*
X181243741Y-196593328D02*
X181100884Y-196593328D01*
X181100884Y-196593328D02*
X180886598Y-196521900D01*
X180886598Y-196521900D02*
X180743741Y-196379042D01*
X180743741Y-196379042D02*
X180672312Y-196236185D01*
X180672312Y-196236185D02*
X180600884Y-195950471D01*
X180600884Y-195950471D02*
X180600884Y-195736185D01*
X180600884Y-195736185D02*
X180672312Y-195450471D01*
X180672312Y-195450471D02*
X180743741Y-195307614D01*
X180743741Y-195307614D02*
X180886598Y-195164757D01*
X180886598Y-195164757D02*
X181100884Y-195093328D01*
X181100884Y-195093328D02*
X181243741Y-195093328D01*
X181243741Y-195093328D02*
X181458027Y-195164757D01*
X181458027Y-195164757D02*
X181529455Y-195236185D01*
X182815170Y-196593328D02*
X182815170Y-195807614D01*
X182815170Y-195807614D02*
X182743741Y-195664757D01*
X182743741Y-195664757D02*
X182600884Y-195593328D01*
X182600884Y-195593328D02*
X182315170Y-195593328D01*
X182315170Y-195593328D02*
X182172312Y-195664757D01*
X182815170Y-196521900D02*
X182672312Y-196593328D01*
X182672312Y-196593328D02*
X182315170Y-196593328D01*
X182315170Y-196593328D02*
X182172312Y-196521900D01*
X182172312Y-196521900D02*
X182100884Y-196379042D01*
X182100884Y-196379042D02*
X182100884Y-196236185D01*
X182100884Y-196236185D02*
X182172312Y-196093328D01*
X182172312Y-196093328D02*
X182315170Y-196021900D01*
X182315170Y-196021900D02*
X182672312Y-196021900D01*
X182672312Y-196021900D02*
X182815170Y-195950471D01*
X184172313Y-196593328D02*
X184172313Y-195093328D01*
X184172313Y-196521900D02*
X184029455Y-196593328D01*
X184029455Y-196593328D02*
X183743741Y-196593328D01*
X183743741Y-196593328D02*
X183600884Y-196521900D01*
X183600884Y-196521900D02*
X183529455Y-196450471D01*
X183529455Y-196450471D02*
X183458027Y-196307614D01*
X183458027Y-196307614D02*
X183458027Y-195879042D01*
X183458027Y-195879042D02*
X183529455Y-195736185D01*
X183529455Y-195736185D02*
X183600884Y-195664757D01*
X183600884Y-195664757D02*
X183743741Y-195593328D01*
X183743741Y-195593328D02*
X184029455Y-195593328D01*
X184029455Y-195593328D02*
X184172313Y-195664757D01*
X186029455Y-195807614D02*
X186529455Y-195807614D01*
X186743741Y-196593328D02*
X186029455Y-196593328D01*
X186029455Y-196593328D02*
X186029455Y-195093328D01*
X186029455Y-195093328D02*
X186743741Y-195093328D01*
X187386598Y-196450471D02*
X187458027Y-196521900D01*
X187458027Y-196521900D02*
X187386598Y-196593328D01*
X187386598Y-196593328D02*
X187315170Y-196521900D01*
X187315170Y-196521900D02*
X187386598Y-196450471D01*
X187386598Y-196450471D02*
X187386598Y-196593328D01*
X188100884Y-196593328D02*
X188100884Y-195093328D01*
X188100884Y-195093328D02*
X188458027Y-195093328D01*
X188458027Y-195093328D02*
X188672313Y-195164757D01*
X188672313Y-195164757D02*
X188815170Y-195307614D01*
X188815170Y-195307614D02*
X188886599Y-195450471D01*
X188886599Y-195450471D02*
X188958027Y-195736185D01*
X188958027Y-195736185D02*
X188958027Y-195950471D01*
X188958027Y-195950471D02*
X188886599Y-196236185D01*
X188886599Y-196236185D02*
X188815170Y-196379042D01*
X188815170Y-196379042D02*
X188672313Y-196521900D01*
X188672313Y-196521900D02*
X188458027Y-196593328D01*
X188458027Y-196593328D02*
X188100884Y-196593328D01*
X189600884Y-196450471D02*
X189672313Y-196521900D01*
X189672313Y-196521900D02*
X189600884Y-196593328D01*
X189600884Y-196593328D02*
X189529456Y-196521900D01*
X189529456Y-196521900D02*
X189600884Y-196450471D01*
X189600884Y-196450471D02*
X189600884Y-196593328D01*
X190243742Y-196164757D02*
X190958028Y-196164757D01*
X190100885Y-196593328D02*
X190600885Y-195093328D01*
X190600885Y-195093328D02*
X191100885Y-196593328D01*
X191600884Y-196450471D02*
X191672313Y-196521900D01*
X191672313Y-196521900D02*
X191600884Y-196593328D01*
X191600884Y-196593328D02*
X191529456Y-196521900D01*
X191529456Y-196521900D02*
X191600884Y-196450471D01*
X191600884Y-196450471D02*
X191600884Y-196593328D01*
X193529456Y-196593328D02*
X193815170Y-196593328D01*
X193815170Y-196593328D02*
X193958027Y-196521900D01*
X193958027Y-196521900D02*
X194029456Y-196450471D01*
X194029456Y-196450471D02*
X194172313Y-196236185D01*
X194172313Y-196236185D02*
X194243742Y-195950471D01*
X194243742Y-195950471D02*
X194243742Y-195379042D01*
X194243742Y-195379042D02*
X194172313Y-195236185D01*
X194172313Y-195236185D02*
X194100885Y-195164757D01*
X194100885Y-195164757D02*
X193958027Y-195093328D01*
X193958027Y-195093328D02*
X193672313Y-195093328D01*
X193672313Y-195093328D02*
X193529456Y-195164757D01*
X193529456Y-195164757D02*
X193458027Y-195236185D01*
X193458027Y-195236185D02*
X193386599Y-195379042D01*
X193386599Y-195379042D02*
X193386599Y-195736185D01*
X193386599Y-195736185D02*
X193458027Y-195879042D01*
X193458027Y-195879042D02*
X193529456Y-195950471D01*
X193529456Y-195950471D02*
X193672313Y-196021900D01*
X193672313Y-196021900D02*
X193958027Y-196021900D01*
X193958027Y-196021900D02*
X194100885Y-195950471D01*
X194100885Y-195950471D02*
X194172313Y-195879042D01*
X194172313Y-195879042D02*
X194243742Y-195736185D01*
X194886598Y-196450471D02*
X194958027Y-196521900D01*
X194958027Y-196521900D02*
X194886598Y-196593328D01*
X194886598Y-196593328D02*
X194815170Y-196521900D01*
X194815170Y-196521900D02*
X194886598Y-196450471D01*
X194886598Y-196450471D02*
X194886598Y-196593328D01*
X195886599Y-195093328D02*
X196029456Y-195093328D01*
X196029456Y-195093328D02*
X196172313Y-195164757D01*
X196172313Y-195164757D02*
X196243742Y-195236185D01*
X196243742Y-195236185D02*
X196315170Y-195379042D01*
X196315170Y-195379042D02*
X196386599Y-195664757D01*
X196386599Y-195664757D02*
X196386599Y-196021900D01*
X196386599Y-196021900D02*
X196315170Y-196307614D01*
X196315170Y-196307614D02*
X196243742Y-196450471D01*
X196243742Y-196450471D02*
X196172313Y-196521900D01*
X196172313Y-196521900D02*
X196029456Y-196593328D01*
X196029456Y-196593328D02*
X195886599Y-196593328D01*
X195886599Y-196593328D02*
X195743742Y-196521900D01*
X195743742Y-196521900D02*
X195672313Y-196450471D01*
X195672313Y-196450471D02*
X195600884Y-196307614D01*
X195600884Y-196307614D02*
X195529456Y-196021900D01*
X195529456Y-196021900D02*
X195529456Y-195664757D01*
X195529456Y-195664757D02*
X195600884Y-195379042D01*
X195600884Y-195379042D02*
X195672313Y-195236185D01*
X195672313Y-195236185D02*
X195743742Y-195164757D01*
X195743742Y-195164757D02*
X195886599Y-195093328D01*
X197029455Y-196450471D02*
X197100884Y-196521900D01*
X197100884Y-196521900D02*
X197029455Y-196593328D01*
X197029455Y-196593328D02*
X196958027Y-196521900D01*
X196958027Y-196521900D02*
X197029455Y-196450471D01*
X197029455Y-196450471D02*
X197029455Y-196593328D01*
X198386599Y-195093328D02*
X198100884Y-195093328D01*
X198100884Y-195093328D02*
X197958027Y-195164757D01*
X197958027Y-195164757D02*
X197886599Y-195236185D01*
X197886599Y-195236185D02*
X197743741Y-195450471D01*
X197743741Y-195450471D02*
X197672313Y-195736185D01*
X197672313Y-195736185D02*
X197672313Y-196307614D01*
X197672313Y-196307614D02*
X197743741Y-196450471D01*
X197743741Y-196450471D02*
X197815170Y-196521900D01*
X197815170Y-196521900D02*
X197958027Y-196593328D01*
X197958027Y-196593328D02*
X198243741Y-196593328D01*
X198243741Y-196593328D02*
X198386599Y-196521900D01*
X198386599Y-196521900D02*
X198458027Y-196450471D01*
X198458027Y-196450471D02*
X198529456Y-196307614D01*
X198529456Y-196307614D02*
X198529456Y-195950471D01*
X198529456Y-195950471D02*
X198458027Y-195807614D01*
X198458027Y-195807614D02*
X198386599Y-195736185D01*
X198386599Y-195736185D02*
X198243741Y-195664757D01*
X198243741Y-195664757D02*
X197958027Y-195664757D01*
X197958027Y-195664757D02*
X197815170Y-195736185D01*
X197815170Y-195736185D02*
X197743741Y-195807614D01*
X197743741Y-195807614D02*
X197672313Y-195950471D01*
D10*
D11*
X177002200Y-191507200D02*
X285002200Y-191507200D01*
D10*
D12*
X264413853Y-193785528D02*
X263913853Y-193071242D01*
X263556710Y-193785528D02*
X263556710Y-192285528D01*
X263556710Y-192285528D02*
X264128139Y-192285528D01*
X264128139Y-192285528D02*
X264270996Y-192356957D01*
X264270996Y-192356957D02*
X264342425Y-192428385D01*
X264342425Y-192428385D02*
X264413853Y-192571242D01*
X264413853Y-192571242D02*
X264413853Y-192785528D01*
X264413853Y-192785528D02*
X264342425Y-192928385D01*
X264342425Y-192928385D02*
X264270996Y-192999814D01*
X264270996Y-192999814D02*
X264128139Y-193071242D01*
X264128139Y-193071242D02*
X263556710Y-193071242D01*
X265628139Y-193714100D02*
X265485282Y-193785528D01*
X265485282Y-193785528D02*
X265199568Y-193785528D01*
X265199568Y-193785528D02*
X265056710Y-193714100D01*
X265056710Y-193714100D02*
X264985282Y-193571242D01*
X264985282Y-193571242D02*
X264985282Y-192999814D01*
X264985282Y-192999814D02*
X265056710Y-192856957D01*
X265056710Y-192856957D02*
X265199568Y-192785528D01*
X265199568Y-192785528D02*
X265485282Y-192785528D01*
X265485282Y-192785528D02*
X265628139Y-192856957D01*
X265628139Y-192856957D02*
X265699568Y-192999814D01*
X265699568Y-192999814D02*
X265699568Y-193142671D01*
X265699568Y-193142671D02*
X264985282Y-193285528D01*
X266199567Y-192785528D02*
X266556710Y-193785528D01*
X266556710Y-193785528D02*
X266913853Y-192785528D01*
X267485281Y-193642671D02*
X267556710Y-193714100D01*
X267556710Y-193714100D02*
X267485281Y-193785528D01*
X267485281Y-193785528D02*
X267413853Y-193714100D01*
X267413853Y-193714100D02*
X267485281Y-193642671D01*
X267485281Y-193642671D02*
X267485281Y-193785528D01*
X267485281Y-192856957D02*
X267556710Y-192928385D01*
X267556710Y-192928385D02*
X267485281Y-192999814D01*
X267485281Y-192999814D02*
X267413853Y-192928385D01*
X267413853Y-192928385D02*
X267485281Y-192856957D01*
X267485281Y-192856957D02*
X267485281Y-192999814D01*
X270128139Y-193785528D02*
X269270996Y-193785528D01*
X269699567Y-193785528D02*
X269699567Y-192285528D01*
X269699567Y-192285528D02*
X269556710Y-192499814D01*
X269556710Y-192499814D02*
X269413853Y-192642671D01*
X269413853Y-192642671D02*
X269270996Y-192714100D01*
D10*
D11*
X178386598Y-193721900D02*
X178600884Y-193793328D01*
X178600884Y-193793328D02*
X178958026Y-193793328D01*
X178958026Y-193793328D02*
X179100884Y-193721900D01*
X179100884Y-193721900D02*
X179172312Y-193650471D01*
X179172312Y-193650471D02*
X179243741Y-193507614D01*
X179243741Y-193507614D02*
X179243741Y-193364757D01*
X179243741Y-193364757D02*
X179172312Y-193221900D01*
X179172312Y-193221900D02*
X179100884Y-193150471D01*
X179100884Y-193150471D02*
X178958026Y-193079042D01*
X178958026Y-193079042D02*
X178672312Y-193007614D01*
X178672312Y-193007614D02*
X178529455Y-192936185D01*
X178529455Y-192936185D02*
X178458026Y-192864757D01*
X178458026Y-192864757D02*
X178386598Y-192721900D01*
X178386598Y-192721900D02*
X178386598Y-192579042D01*
X178386598Y-192579042D02*
X178458026Y-192436185D01*
X178458026Y-192436185D02*
X178529455Y-192364757D01*
X178529455Y-192364757D02*
X178672312Y-192293328D01*
X178672312Y-192293328D02*
X179029455Y-192293328D01*
X179029455Y-192293328D02*
X179243741Y-192364757D01*
X179886597Y-193793328D02*
X179886597Y-192793328D01*
X179886597Y-192293328D02*
X179815169Y-192364757D01*
X179815169Y-192364757D02*
X179886597Y-192436185D01*
X179886597Y-192436185D02*
X179958026Y-192364757D01*
X179958026Y-192364757D02*
X179886597Y-192293328D01*
X179886597Y-192293328D02*
X179886597Y-192436185D01*
X180458026Y-192793328D02*
X181243741Y-192793328D01*
X181243741Y-192793328D02*
X180458026Y-193793328D01*
X180458026Y-193793328D02*
X181243741Y-193793328D01*
X182386598Y-193721900D02*
X182243741Y-193793328D01*
X182243741Y-193793328D02*
X181958027Y-193793328D01*
X181958027Y-193793328D02*
X181815169Y-193721900D01*
X181815169Y-193721900D02*
X181743741Y-193579042D01*
X181743741Y-193579042D02*
X181743741Y-193007614D01*
X181743741Y-193007614D02*
X181815169Y-192864757D01*
X181815169Y-192864757D02*
X181958027Y-192793328D01*
X181958027Y-192793328D02*
X182243741Y-192793328D01*
X182243741Y-192793328D02*
X182386598Y-192864757D01*
X182386598Y-192864757D02*
X182458027Y-193007614D01*
X182458027Y-193007614D02*
X182458027Y-193150471D01*
X182458027Y-193150471D02*
X181743741Y-193293328D01*
X183100883Y-193650471D02*
X183172312Y-193721900D01*
X183172312Y-193721900D02*
X183100883Y-193793328D01*
X183100883Y-193793328D02*
X183029455Y-193721900D01*
X183029455Y-193721900D02*
X183100883Y-193650471D01*
X183100883Y-193650471D02*
X183100883Y-193793328D01*
X183100883Y-192864757D02*
X183172312Y-192936185D01*
X183172312Y-192936185D02*
X183100883Y-193007614D01*
X183100883Y-193007614D02*
X183029455Y-192936185D01*
X183029455Y-192936185D02*
X183100883Y-192864757D01*
X183100883Y-192864757D02*
X183100883Y-193007614D01*
X184886598Y-193364757D02*
X185600884Y-193364757D01*
X184743741Y-193793328D02*
X185243741Y-192293328D01*
X185243741Y-192293328D02*
X185743741Y-193793328D01*
X186886598Y-192793328D02*
X186886598Y-193793328D01*
X186529455Y-192221900D02*
X186172312Y-193293328D01*
X186172312Y-193293328D02*
X187100883Y-193293328D01*
D10*
D11*
X263458026Y-196593328D02*
X263458026Y-195093328D01*
X264815170Y-196593328D02*
X264815170Y-195093328D01*
X264815170Y-196521900D02*
X264672312Y-196593328D01*
X264672312Y-196593328D02*
X264386598Y-196593328D01*
X264386598Y-196593328D02*
X264243741Y-196521900D01*
X264243741Y-196521900D02*
X264172312Y-196450471D01*
X264172312Y-196450471D02*
X264100884Y-196307614D01*
X264100884Y-196307614D02*
X264100884Y-195879042D01*
X264100884Y-195879042D02*
X264172312Y-195736185D01*
X264172312Y-195736185D02*
X264243741Y-195664757D01*
X264243741Y-195664757D02*
X264386598Y-195593328D01*
X264386598Y-195593328D02*
X264672312Y-195593328D01*
X264672312Y-195593328D02*
X264815170Y-195664757D01*
X265529455Y-196450471D02*
X265600884Y-196521900D01*
X265600884Y-196521900D02*
X265529455Y-196593328D01*
X265529455Y-196593328D02*
X265458027Y-196521900D01*
X265458027Y-196521900D02*
X265529455Y-196450471D01*
X265529455Y-196450471D02*
X265529455Y-196593328D01*
X265529455Y-195664757D02*
X265600884Y-195736185D01*
X265600884Y-195736185D02*
X265529455Y-195807614D01*
X265529455Y-195807614D02*
X265458027Y-195736185D01*
X265458027Y-195736185D02*
X265529455Y-195664757D01*
X265529455Y-195664757D02*
X265529455Y-195807614D01*
X268172313Y-196593328D02*
X267315170Y-196593328D01*
X267743741Y-196593328D02*
X267743741Y-195093328D01*
X267743741Y-195093328D02*
X267600884Y-195307614D01*
X267600884Y-195307614D02*
X267458027Y-195450471D01*
X267458027Y-195450471D02*
X267315170Y-195521900D01*
X268672312Y-195093328D02*
X269600884Y-195093328D01*
X269600884Y-195093328D02*
X269100884Y-195664757D01*
X269100884Y-195664757D02*
X269315169Y-195664757D01*
X269315169Y-195664757D02*
X269458027Y-195736185D01*
X269458027Y-195736185D02*
X269529455Y-195807614D01*
X269529455Y-195807614D02*
X269600884Y-195950471D01*
X269600884Y-195950471D02*
X269600884Y-196307614D01*
X269600884Y-196307614D02*
X269529455Y-196450471D01*
X269529455Y-196450471D02*
X269458027Y-196521900D01*
X269458027Y-196521900D02*
X269315169Y-196593328D01*
X269315169Y-196593328D02*
X268886598Y-196593328D01*
X268886598Y-196593328D02*
X268743741Y-196521900D01*
X268743741Y-196521900D02*
X268672312Y-196450471D01*
X271315169Y-195021900D02*
X270029455Y-196950471D01*
X272600884Y-196593328D02*
X271743741Y-196593328D01*
X272172312Y-196593328D02*
X272172312Y-195093328D01*
X272172312Y-195093328D02*
X272029455Y-195307614D01*
X272029455Y-195307614D02*
X271886598Y-195450471D01*
X271886598Y-195450471D02*
X271743741Y-195521900D01*
X273886598Y-195593328D02*
X273886598Y-196593328D01*
X273529455Y-195021900D02*
X273172312Y-196093328D01*
X273172312Y-196093328D02*
X274100883Y-196093328D01*
D10*
D11*
X177002200Y-187507200D02*
X285002200Y-187507200D01*
D10*
D13*
X178693928Y-188211638D02*
X179836785Y-188211638D01*
X179015357Y-190211638D02*
X179265357Y-188211638D01*
X180253452Y-190211638D02*
X180420119Y-188878304D01*
X180503452Y-188211638D02*
X180396309Y-188306876D01*
X180396309Y-188306876D02*
X180479643Y-188402114D01*
X180479643Y-188402114D02*
X180586786Y-188306876D01*
X180586786Y-188306876D02*
X180503452Y-188211638D01*
X180503452Y-188211638D02*
X180479643Y-188402114D01*
X181086786Y-188878304D02*
X181848690Y-188878304D01*
X181455833Y-188211638D02*
X181241548Y-189925923D01*
X181241548Y-189925923D02*
X181312976Y-190116400D01*
X181312976Y-190116400D02*
X181491548Y-190211638D01*
X181491548Y-190211638D02*
X181682024Y-190211638D01*
X182634405Y-190211638D02*
X182455833Y-190116400D01*
X182455833Y-190116400D02*
X182384405Y-189925923D01*
X182384405Y-189925923D02*
X182598690Y-188211638D01*
X184170119Y-190116400D02*
X183967738Y-190211638D01*
X183967738Y-190211638D02*
X183586785Y-190211638D01*
X183586785Y-190211638D02*
X183408214Y-190116400D01*
X183408214Y-190116400D02*
X183336785Y-189925923D01*
X183336785Y-189925923D02*
X183432024Y-189164019D01*
X183432024Y-189164019D02*
X183551071Y-188973542D01*
X183551071Y-188973542D02*
X183753452Y-188878304D01*
X183753452Y-188878304D02*
X184134404Y-188878304D01*
X184134404Y-188878304D02*
X184312976Y-188973542D01*
X184312976Y-188973542D02*
X184384404Y-189164019D01*
X184384404Y-189164019D02*
X184360595Y-189354495D01*
X184360595Y-189354495D02*
X183384404Y-189544971D01*
X185134405Y-190021161D02*
X185217738Y-190116400D01*
X185217738Y-190116400D02*
X185110595Y-190211638D01*
X185110595Y-190211638D02*
X185027262Y-190116400D01*
X185027262Y-190116400D02*
X185134405Y-190021161D01*
X185134405Y-190021161D02*
X185110595Y-190211638D01*
X185265357Y-188973542D02*
X185348690Y-189068780D01*
X185348690Y-189068780D02*
X185241548Y-189164019D01*
X185241548Y-189164019D02*
X185158214Y-189068780D01*
X185158214Y-189068780D02*
X185265357Y-188973542D01*
X185265357Y-188973542D02*
X185241548Y-189164019D01*
X187586786Y-190211638D02*
X187753453Y-188878304D01*
X187836786Y-188211638D02*
X187729643Y-188306876D01*
X187729643Y-188306876D02*
X187812977Y-188402114D01*
X187812977Y-188402114D02*
X187920120Y-188306876D01*
X187920120Y-188306876D02*
X187836786Y-188211638D01*
X187836786Y-188211638D02*
X187812977Y-188402114D01*
X188562977Y-190021161D02*
X188646310Y-190116400D01*
X188646310Y-190116400D02*
X188539167Y-190211638D01*
X188539167Y-190211638D02*
X188455834Y-190116400D01*
X188455834Y-190116400D02*
X188562977Y-190021161D01*
X188562977Y-190021161D02*
X188539167Y-190211638D01*
X189491548Y-190211638D02*
X189741548Y-188211638D01*
X189741548Y-188211638D02*
X190229643Y-189640209D01*
X190229643Y-189640209D02*
X191074882Y-188211638D01*
X191074882Y-188211638D02*
X190824882Y-190211638D01*
X191836786Y-188211638D02*
X192920119Y-190211638D01*
X193170119Y-188211638D02*
X191586786Y-190211638D01*
X196312977Y-188211638D02*
X195932025Y-188211638D01*
X195932025Y-188211638D02*
X195729644Y-188306876D01*
X195729644Y-188306876D02*
X195622501Y-188402114D01*
X195622501Y-188402114D02*
X195396310Y-188687828D01*
X195396310Y-188687828D02*
X195253453Y-189068780D01*
X195253453Y-189068780D02*
X195158215Y-189830685D01*
X195158215Y-189830685D02*
X195229644Y-190021161D01*
X195229644Y-190021161D02*
X195312977Y-190116400D01*
X195312977Y-190116400D02*
X195491549Y-190211638D01*
X195491549Y-190211638D02*
X195872501Y-190211638D01*
X195872501Y-190211638D02*
X196074882Y-190116400D01*
X196074882Y-190116400D02*
X196182025Y-190021161D01*
X196182025Y-190021161D02*
X196301072Y-189830685D01*
X196301072Y-189830685D02*
X196360596Y-189354495D01*
X196360596Y-189354495D02*
X196289168Y-189164019D01*
X196289168Y-189164019D02*
X196205834Y-189068780D01*
X196205834Y-189068780D02*
X196027263Y-188973542D01*
X196027263Y-188973542D02*
X195646310Y-188973542D01*
X195646310Y-188973542D02*
X195443929Y-189068780D01*
X195443929Y-189068780D02*
X195336787Y-189164019D01*
X195336787Y-189164019D02*
X195217739Y-189354495D01*
X197360596Y-188211638D02*
X197158215Y-189830685D01*
X197158215Y-189830685D02*
X197229644Y-190021161D01*
X197229644Y-190021161D02*
X197312977Y-190116400D01*
X197312977Y-190116400D02*
X197491549Y-190211638D01*
X197491549Y-190211638D02*
X197872501Y-190211638D01*
X197872501Y-190211638D02*
X198074882Y-190116400D01*
X198074882Y-190116400D02*
X198182025Y-190021161D01*
X198182025Y-190021161D02*
X198301072Y-189830685D01*
X198301072Y-189830685D02*
X198503453Y-188211638D01*
X200158215Y-190211638D02*
X199205834Y-190211638D01*
X199205834Y-190211638D02*
X199455834Y-188211638D01*
X201777263Y-190211638D02*
X200824882Y-190211638D01*
X200824882Y-190211638D02*
X201074882Y-188211638D01*
X204765359Y-189164019D02*
X205039169Y-189259257D01*
X205039169Y-189259257D02*
X205122502Y-189354495D01*
X205122502Y-189354495D02*
X205193931Y-189544971D01*
X205193931Y-189544971D02*
X205158216Y-189830685D01*
X205158216Y-189830685D02*
X205039169Y-190021161D01*
X205039169Y-190021161D02*
X204932026Y-190116400D01*
X204932026Y-190116400D02*
X204729645Y-190211638D01*
X204729645Y-190211638D02*
X203967740Y-190211638D01*
X203967740Y-190211638D02*
X204217740Y-188211638D01*
X204217740Y-188211638D02*
X204884407Y-188211638D01*
X204884407Y-188211638D02*
X205062978Y-188306876D01*
X205062978Y-188306876D02*
X205146312Y-188402114D01*
X205146312Y-188402114D02*
X205217740Y-188592590D01*
X205217740Y-188592590D02*
X205193931Y-188783066D01*
X205193931Y-188783066D02*
X205074883Y-188973542D01*
X205074883Y-188973542D02*
X204967740Y-189068780D01*
X204967740Y-189068780D02*
X204765359Y-189164019D01*
X204765359Y-189164019D02*
X204098693Y-189164019D01*
X206824883Y-190211638D02*
X206955835Y-189164019D01*
X206955835Y-189164019D02*
X206884407Y-188973542D01*
X206884407Y-188973542D02*
X206705835Y-188878304D01*
X206705835Y-188878304D02*
X206324883Y-188878304D01*
X206324883Y-188878304D02*
X206122502Y-188973542D01*
X206836788Y-190116400D02*
X206634407Y-190211638D01*
X206634407Y-190211638D02*
X206158216Y-190211638D01*
X206158216Y-190211638D02*
X205979645Y-190116400D01*
X205979645Y-190116400D02*
X205908216Y-189925923D01*
X205908216Y-189925923D02*
X205932026Y-189735447D01*
X205932026Y-189735447D02*
X206051074Y-189544971D01*
X206051074Y-189544971D02*
X206253455Y-189449733D01*
X206253455Y-189449733D02*
X206729645Y-189449733D01*
X206729645Y-189449733D02*
X206932026Y-189354495D01*
X207777264Y-190211638D02*
X207943931Y-188878304D01*
X207896312Y-189259257D02*
X208015359Y-189068780D01*
X208015359Y-189068780D02*
X208122502Y-188973542D01*
X208122502Y-188973542D02*
X208324883Y-188878304D01*
X208324883Y-188878304D02*
X208515359Y-188878304D01*
X209789169Y-190116400D02*
X209586788Y-190211638D01*
X209586788Y-190211638D02*
X209205835Y-190211638D01*
X209205835Y-190211638D02*
X209027264Y-190116400D01*
X209027264Y-190116400D02*
X208955835Y-189925923D01*
X208955835Y-189925923D02*
X209051074Y-189164019D01*
X209051074Y-189164019D02*
X209170121Y-188973542D01*
X209170121Y-188973542D02*
X209372502Y-188878304D01*
X209372502Y-188878304D02*
X209753454Y-188878304D01*
X209753454Y-188878304D02*
X209932026Y-188973542D01*
X209932026Y-188973542D02*
X210003454Y-189164019D01*
X210003454Y-189164019D02*
X209979645Y-189354495D01*
X209979645Y-189354495D02*
X209003454Y-189544971D01*
X213051074Y-189164019D02*
X213324884Y-189259257D01*
X213324884Y-189259257D02*
X213408217Y-189354495D01*
X213408217Y-189354495D02*
X213479646Y-189544971D01*
X213479646Y-189544971D02*
X213443931Y-189830685D01*
X213443931Y-189830685D02*
X213324884Y-190021161D01*
X213324884Y-190021161D02*
X213217741Y-190116400D01*
X213217741Y-190116400D02*
X213015360Y-190211638D01*
X213015360Y-190211638D02*
X212253455Y-190211638D01*
X212253455Y-190211638D02*
X212503455Y-188211638D01*
X212503455Y-188211638D02*
X213170122Y-188211638D01*
X213170122Y-188211638D02*
X213348693Y-188306876D01*
X213348693Y-188306876D02*
X213432027Y-188402114D01*
X213432027Y-188402114D02*
X213503455Y-188592590D01*
X213503455Y-188592590D02*
X213479646Y-188783066D01*
X213479646Y-188783066D02*
X213360598Y-188973542D01*
X213360598Y-188973542D02*
X213253455Y-189068780D01*
X213253455Y-189068780D02*
X213051074Y-189164019D01*
X213051074Y-189164019D02*
X212384408Y-189164019D01*
X214539170Y-190211638D02*
X214360598Y-190116400D01*
X214360598Y-190116400D02*
X214277265Y-190021161D01*
X214277265Y-190021161D02*
X214205836Y-189830685D01*
X214205836Y-189830685D02*
X214277265Y-189259257D01*
X214277265Y-189259257D02*
X214396312Y-189068780D01*
X214396312Y-189068780D02*
X214503455Y-188973542D01*
X214503455Y-188973542D02*
X214705836Y-188878304D01*
X214705836Y-188878304D02*
X214991550Y-188878304D01*
X214991550Y-188878304D02*
X215170122Y-188973542D01*
X215170122Y-188973542D02*
X215253455Y-189068780D01*
X215253455Y-189068780D02*
X215324884Y-189259257D01*
X215324884Y-189259257D02*
X215253455Y-189830685D01*
X215253455Y-189830685D02*
X215134408Y-190021161D01*
X215134408Y-190021161D02*
X215027265Y-190116400D01*
X215027265Y-190116400D02*
X214824884Y-190211638D01*
X214824884Y-190211638D02*
X214539170Y-190211638D01*
X216229646Y-188878304D02*
X216062979Y-190211638D01*
X216205836Y-189068780D02*
X216312979Y-188973542D01*
X216312979Y-188973542D02*
X216515360Y-188878304D01*
X216515360Y-188878304D02*
X216801074Y-188878304D01*
X216801074Y-188878304D02*
X216979646Y-188973542D01*
X216979646Y-188973542D02*
X217051074Y-189164019D01*
X217051074Y-189164019D02*
X216920122Y-190211638D01*
X218646313Y-190116400D02*
X218443932Y-190211638D01*
X218443932Y-190211638D02*
X218062979Y-190211638D01*
X218062979Y-190211638D02*
X217884408Y-190116400D01*
X217884408Y-190116400D02*
X217812979Y-189925923D01*
X217812979Y-189925923D02*
X217908218Y-189164019D01*
X217908218Y-189164019D02*
X218027265Y-188973542D01*
X218027265Y-188973542D02*
X218229646Y-188878304D01*
X218229646Y-188878304D02*
X218610598Y-188878304D01*
X218610598Y-188878304D02*
X218789170Y-188973542D01*
X218789170Y-188973542D02*
X218860598Y-189164019D01*
X218860598Y-189164019D02*
X218836789Y-189354495D01*
X218836789Y-189354495D02*
X217860598Y-189544971D01*
X219503456Y-190116400D02*
X219682027Y-190211638D01*
X219682027Y-190211638D02*
X220062980Y-190211638D01*
X220062980Y-190211638D02*
X220265361Y-190116400D01*
X220265361Y-190116400D02*
X220384408Y-189925923D01*
X220384408Y-189925923D02*
X220396313Y-189830685D01*
X220396313Y-189830685D02*
X220324884Y-189640209D01*
X220324884Y-189640209D02*
X220146313Y-189544971D01*
X220146313Y-189544971D02*
X219860599Y-189544971D01*
X219860599Y-189544971D02*
X219682027Y-189449733D01*
X219682027Y-189449733D02*
X219610599Y-189259257D01*
X219610599Y-189259257D02*
X219622504Y-189164019D01*
X219622504Y-189164019D02*
X219741551Y-188973542D01*
X219741551Y-188973542D02*
X219943932Y-188878304D01*
X219943932Y-188878304D02*
X220229646Y-188878304D01*
X220229646Y-188878304D02*
X220408218Y-188973542D01*
D10*
D11*
X178958026Y-185607614D02*
X178458026Y-185607614D01*
X178458026Y-186393328D02*
X178458026Y-184893328D01*
X178458026Y-184893328D02*
X179172312Y-184893328D01*
X179743740Y-186393328D02*
X179743740Y-185393328D01*
X179743740Y-184893328D02*
X179672312Y-184964757D01*
X179672312Y-184964757D02*
X179743740Y-185036185D01*
X179743740Y-185036185D02*
X179815169Y-184964757D01*
X179815169Y-184964757D02*
X179743740Y-184893328D01*
X179743740Y-184893328D02*
X179743740Y-185036185D01*
X180672312Y-186393328D02*
X180529455Y-186321900D01*
X180529455Y-186321900D02*
X180458026Y-186179042D01*
X180458026Y-186179042D02*
X180458026Y-184893328D01*
X181815169Y-186321900D02*
X181672312Y-186393328D01*
X181672312Y-186393328D02*
X181386598Y-186393328D01*
X181386598Y-186393328D02*
X181243740Y-186321900D01*
X181243740Y-186321900D02*
X181172312Y-186179042D01*
X181172312Y-186179042D02*
X181172312Y-185607614D01*
X181172312Y-185607614D02*
X181243740Y-185464757D01*
X181243740Y-185464757D02*
X181386598Y-185393328D01*
X181386598Y-185393328D02*
X181672312Y-185393328D01*
X181672312Y-185393328D02*
X181815169Y-185464757D01*
X181815169Y-185464757D02*
X181886598Y-185607614D01*
X181886598Y-185607614D02*
X181886598Y-185750471D01*
X181886598Y-185750471D02*
X181172312Y-185893328D01*
X182529454Y-186250471D02*
X182600883Y-186321900D01*
X182600883Y-186321900D02*
X182529454Y-186393328D01*
X182529454Y-186393328D02*
X182458026Y-186321900D01*
X182458026Y-186321900D02*
X182529454Y-186250471D01*
X182529454Y-186250471D02*
X182529454Y-186393328D01*
X182529454Y-185464757D02*
X182600883Y-185536185D01*
X182600883Y-185536185D02*
X182529454Y-185607614D01*
X182529454Y-185607614D02*
X182458026Y-185536185D01*
X182458026Y-185536185D02*
X182529454Y-185464757D01*
X182529454Y-185464757D02*
X182529454Y-185607614D01*
X184386597Y-186393328D02*
X184386597Y-185393328D01*
X184386597Y-184893328D02*
X184315169Y-184964757D01*
X184315169Y-184964757D02*
X184386597Y-185036185D01*
X184386597Y-185036185D02*
X184458026Y-184964757D01*
X184458026Y-184964757D02*
X184386597Y-184893328D01*
X184386597Y-184893328D02*
X184386597Y-185036185D01*
X185100883Y-186393328D02*
X185100883Y-184893328D01*
X185100883Y-184893328D02*
X185600883Y-185964757D01*
X185600883Y-185964757D02*
X186100883Y-184893328D01*
X186100883Y-184893328D02*
X186100883Y-186393328D01*
X186672312Y-184893328D02*
X187672312Y-186393328D01*
X187672312Y-184893328D02*
X186672312Y-186393328D01*
X188886598Y-184893328D02*
X188600883Y-184893328D01*
X188600883Y-184893328D02*
X188458026Y-184964757D01*
X188458026Y-184964757D02*
X188386598Y-185036185D01*
X188386598Y-185036185D02*
X188243740Y-185250471D01*
X188243740Y-185250471D02*
X188172312Y-185536185D01*
X188172312Y-185536185D02*
X188172312Y-186107614D01*
X188172312Y-186107614D02*
X188243740Y-186250471D01*
X188243740Y-186250471D02*
X188315169Y-186321900D01*
X188315169Y-186321900D02*
X188458026Y-186393328D01*
X188458026Y-186393328D02*
X188743740Y-186393328D01*
X188743740Y-186393328D02*
X188886598Y-186321900D01*
X188886598Y-186321900D02*
X188958026Y-186250471D01*
X188958026Y-186250471D02*
X189029455Y-186107614D01*
X189029455Y-186107614D02*
X189029455Y-185750471D01*
X189029455Y-185750471D02*
X188958026Y-185607614D01*
X188958026Y-185607614D02*
X188886598Y-185536185D01*
X188886598Y-185536185D02*
X188743740Y-185464757D01*
X188743740Y-185464757D02*
X188458026Y-185464757D01*
X188458026Y-185464757D02*
X188315169Y-185536185D01*
X188315169Y-185536185D02*
X188243740Y-185607614D01*
X188243740Y-185607614D02*
X188172312Y-185750471D01*
X189315169Y-186536185D02*
X190458026Y-186536185D01*
X191315168Y-185607614D02*
X191529454Y-185679042D01*
X191529454Y-185679042D02*
X191600883Y-185750471D01*
X191600883Y-185750471D02*
X191672311Y-185893328D01*
X191672311Y-185893328D02*
X191672311Y-186107614D01*
X191672311Y-186107614D02*
X191600883Y-186250471D01*
X191600883Y-186250471D02*
X191529454Y-186321900D01*
X191529454Y-186321900D02*
X191386597Y-186393328D01*
X191386597Y-186393328D02*
X190815168Y-186393328D01*
X190815168Y-186393328D02*
X190815168Y-184893328D01*
X190815168Y-184893328D02*
X191315168Y-184893328D01*
X191315168Y-184893328D02*
X191458026Y-184964757D01*
X191458026Y-184964757D02*
X191529454Y-185036185D01*
X191529454Y-185036185D02*
X191600883Y-185179042D01*
X191600883Y-185179042D02*
X191600883Y-185321900D01*
X191600883Y-185321900D02*
X191529454Y-185464757D01*
X191529454Y-185464757D02*
X191458026Y-185536185D01*
X191458026Y-185536185D02*
X191315168Y-185607614D01*
X191315168Y-185607614D02*
X190815168Y-185607614D01*
X192958026Y-186393328D02*
X192958026Y-185607614D01*
X192958026Y-185607614D02*
X192886597Y-185464757D01*
X192886597Y-185464757D02*
X192743740Y-185393328D01*
X192743740Y-185393328D02*
X192458026Y-185393328D01*
X192458026Y-185393328D02*
X192315168Y-185464757D01*
X192958026Y-186321900D02*
X192815168Y-186393328D01*
X192815168Y-186393328D02*
X192458026Y-186393328D01*
X192458026Y-186393328D02*
X192315168Y-186321900D01*
X192315168Y-186321900D02*
X192243740Y-186179042D01*
X192243740Y-186179042D02*
X192243740Y-186036185D01*
X192243740Y-186036185D02*
X192315168Y-185893328D01*
X192315168Y-185893328D02*
X192458026Y-185821900D01*
X192458026Y-185821900D02*
X192815168Y-185821900D01*
X192815168Y-185821900D02*
X192958026Y-185750471D01*
X193672311Y-186393328D02*
X193672311Y-185393328D01*
X193672311Y-185679042D02*
X193743740Y-185536185D01*
X193743740Y-185536185D02*
X193815169Y-185464757D01*
X193815169Y-185464757D02*
X193958026Y-185393328D01*
X193958026Y-185393328D02*
X194100883Y-185393328D01*
X195172311Y-186321900D02*
X195029454Y-186393328D01*
X195029454Y-186393328D02*
X194743740Y-186393328D01*
X194743740Y-186393328D02*
X194600882Y-186321900D01*
X194600882Y-186321900D02*
X194529454Y-186179042D01*
X194529454Y-186179042D02*
X194529454Y-185607614D01*
X194529454Y-185607614D02*
X194600882Y-185464757D01*
X194600882Y-185464757D02*
X194743740Y-185393328D01*
X194743740Y-185393328D02*
X195029454Y-185393328D01*
X195029454Y-185393328D02*
X195172311Y-185464757D01*
X195172311Y-185464757D02*
X195243740Y-185607614D01*
X195243740Y-185607614D02*
X195243740Y-185750471D01*
X195243740Y-185750471D02*
X194529454Y-185893328D01*
X196386596Y-185607614D02*
X196600882Y-185679042D01*
X196600882Y-185679042D02*
X196672311Y-185750471D01*
X196672311Y-185750471D02*
X196743739Y-185893328D01*
X196743739Y-185893328D02*
X196743739Y-186107614D01*
X196743739Y-186107614D02*
X196672311Y-186250471D01*
X196672311Y-186250471D02*
X196600882Y-186321900D01*
X196600882Y-186321900D02*
X196458025Y-186393328D01*
X196458025Y-186393328D02*
X195886596Y-186393328D01*
X195886596Y-186393328D02*
X195886596Y-184893328D01*
X195886596Y-184893328D02*
X196386596Y-184893328D01*
X196386596Y-184893328D02*
X196529454Y-184964757D01*
X196529454Y-184964757D02*
X196600882Y-185036185D01*
X196600882Y-185036185D02*
X196672311Y-185179042D01*
X196672311Y-185179042D02*
X196672311Y-185321900D01*
X196672311Y-185321900D02*
X196600882Y-185464757D01*
X196600882Y-185464757D02*
X196529454Y-185536185D01*
X196529454Y-185536185D02*
X196386596Y-185607614D01*
X196386596Y-185607614D02*
X195886596Y-185607614D01*
X197600882Y-186393328D02*
X197458025Y-186321900D01*
X197458025Y-186321900D02*
X197386596Y-186250471D01*
X197386596Y-186250471D02*
X197315168Y-186107614D01*
X197315168Y-186107614D02*
X197315168Y-185679042D01*
X197315168Y-185679042D02*
X197386596Y-185536185D01*
X197386596Y-185536185D02*
X197458025Y-185464757D01*
X197458025Y-185464757D02*
X197600882Y-185393328D01*
X197600882Y-185393328D02*
X197815168Y-185393328D01*
X197815168Y-185393328D02*
X197958025Y-185464757D01*
X197958025Y-185464757D02*
X198029454Y-185536185D01*
X198029454Y-185536185D02*
X198100882Y-185679042D01*
X198100882Y-185679042D02*
X198100882Y-186107614D01*
X198100882Y-186107614D02*
X198029454Y-186250471D01*
X198029454Y-186250471D02*
X197958025Y-186321900D01*
X197958025Y-186321900D02*
X197815168Y-186393328D01*
X197815168Y-186393328D02*
X197600882Y-186393328D01*
X198743739Y-185393328D02*
X198743739Y-186393328D01*
X198743739Y-185536185D02*
X198815168Y-185464757D01*
X198815168Y-185464757D02*
X198958025Y-185393328D01*
X198958025Y-185393328D02*
X199172311Y-185393328D01*
X199172311Y-185393328D02*
X199315168Y-185464757D01*
X199315168Y-185464757D02*
X199386597Y-185607614D01*
X199386597Y-185607614D02*
X199386597Y-186393328D01*
X200672311Y-186321900D02*
X200529454Y-186393328D01*
X200529454Y-186393328D02*
X200243740Y-186393328D01*
X200243740Y-186393328D02*
X200100882Y-186321900D01*
X200100882Y-186321900D02*
X200029454Y-186179042D01*
X200029454Y-186179042D02*
X200029454Y-185607614D01*
X200029454Y-185607614D02*
X200100882Y-185464757D01*
X200100882Y-185464757D02*
X200243740Y-185393328D01*
X200243740Y-185393328D02*
X200529454Y-185393328D01*
X200529454Y-185393328D02*
X200672311Y-185464757D01*
X200672311Y-185464757D02*
X200743740Y-185607614D01*
X200743740Y-185607614D02*
X200743740Y-185750471D01*
X200743740Y-185750471D02*
X200029454Y-185893328D01*
X201315168Y-186321900D02*
X201458025Y-186393328D01*
X201458025Y-186393328D02*
X201743739Y-186393328D01*
X201743739Y-186393328D02*
X201886596Y-186321900D01*
X201886596Y-186321900D02*
X201958025Y-186179042D01*
X201958025Y-186179042D02*
X201958025Y-186107614D01*
X201958025Y-186107614D02*
X201886596Y-185964757D01*
X201886596Y-185964757D02*
X201743739Y-185893328D01*
X201743739Y-185893328D02*
X201529454Y-185893328D01*
X201529454Y-185893328D02*
X201386596Y-185821900D01*
X201386596Y-185821900D02*
X201315168Y-185679042D01*
X201315168Y-185679042D02*
X201315168Y-185607614D01*
X201315168Y-185607614D02*
X201386596Y-185464757D01*
X201386596Y-185464757D02*
X201529454Y-185393328D01*
X201529454Y-185393328D02*
X201743739Y-185393328D01*
X201743739Y-185393328D02*
X201886596Y-185464757D01*
X202600882Y-186250471D02*
X202672311Y-186321900D01*
X202672311Y-186321900D02*
X202600882Y-186393328D01*
X202600882Y-186393328D02*
X202529454Y-186321900D01*
X202529454Y-186321900D02*
X202600882Y-186250471D01*
X202600882Y-186250471D02*
X202600882Y-186393328D01*
X203315168Y-186393328D02*
X203315168Y-184893328D01*
X203458026Y-185821900D02*
X203886597Y-186393328D01*
X203886597Y-185393328D02*
X203315168Y-185964757D01*
X204529454Y-186393328D02*
X204529454Y-185393328D01*
X204529454Y-184893328D02*
X204458026Y-184964757D01*
X204458026Y-184964757D02*
X204529454Y-185036185D01*
X204529454Y-185036185D02*
X204600883Y-184964757D01*
X204600883Y-184964757D02*
X204529454Y-184893328D01*
X204529454Y-184893328D02*
X204529454Y-185036185D01*
X205886598Y-186321900D02*
X205743740Y-186393328D01*
X205743740Y-186393328D02*
X205458026Y-186393328D01*
X205458026Y-186393328D02*
X205315169Y-186321900D01*
X205315169Y-186321900D02*
X205243740Y-186250471D01*
X205243740Y-186250471D02*
X205172312Y-186107614D01*
X205172312Y-186107614D02*
X205172312Y-185679042D01*
X205172312Y-185679042D02*
X205243740Y-185536185D01*
X205243740Y-185536185D02*
X205315169Y-185464757D01*
X205315169Y-185464757D02*
X205458026Y-185393328D01*
X205458026Y-185393328D02*
X205743740Y-185393328D01*
X205743740Y-185393328D02*
X205886598Y-185464757D01*
X207172312Y-186393328D02*
X207172312Y-185607614D01*
X207172312Y-185607614D02*
X207100883Y-185464757D01*
X207100883Y-185464757D02*
X206958026Y-185393328D01*
X206958026Y-185393328D02*
X206672312Y-185393328D01*
X206672312Y-185393328D02*
X206529454Y-185464757D01*
X207172312Y-186321900D02*
X207029454Y-186393328D01*
X207029454Y-186393328D02*
X206672312Y-186393328D01*
X206672312Y-186393328D02*
X206529454Y-186321900D01*
X206529454Y-186321900D02*
X206458026Y-186179042D01*
X206458026Y-186179042D02*
X206458026Y-186036185D01*
X206458026Y-186036185D02*
X206529454Y-185893328D01*
X206529454Y-185893328D02*
X206672312Y-185821900D01*
X206672312Y-185821900D02*
X207029454Y-185821900D01*
X207029454Y-185821900D02*
X207172312Y-185750471D01*
X208529455Y-186393328D02*
X208529455Y-184893328D01*
X208529455Y-186321900D02*
X208386597Y-186393328D01*
X208386597Y-186393328D02*
X208100883Y-186393328D01*
X208100883Y-186393328D02*
X207958026Y-186321900D01*
X207958026Y-186321900D02*
X207886597Y-186250471D01*
X207886597Y-186250471D02*
X207815169Y-186107614D01*
X207815169Y-186107614D02*
X207815169Y-185679042D01*
X207815169Y-185679042D02*
X207886597Y-185536185D01*
X207886597Y-185536185D02*
X207958026Y-185464757D01*
X207958026Y-185464757D02*
X208100883Y-185393328D01*
X208100883Y-185393328D02*
X208386597Y-185393328D01*
X208386597Y-185393328D02*
X208529455Y-185464757D01*
X208886598Y-186536185D02*
X210029455Y-186536185D01*
X210386597Y-185393328D02*
X210386597Y-186893328D01*
X210386597Y-185464757D02*
X210529455Y-185393328D01*
X210529455Y-185393328D02*
X210815169Y-185393328D01*
X210815169Y-185393328D02*
X210958026Y-185464757D01*
X210958026Y-185464757D02*
X211029455Y-185536185D01*
X211029455Y-185536185D02*
X211100883Y-185679042D01*
X211100883Y-185679042D02*
X211100883Y-186107614D01*
X211100883Y-186107614D02*
X211029455Y-186250471D01*
X211029455Y-186250471D02*
X210958026Y-186321900D01*
X210958026Y-186321900D02*
X210815169Y-186393328D01*
X210815169Y-186393328D02*
X210529455Y-186393328D01*
X210529455Y-186393328D02*
X210386597Y-186321900D01*
X212386598Y-186321900D02*
X212243740Y-186393328D01*
X212243740Y-186393328D02*
X211958026Y-186393328D01*
X211958026Y-186393328D02*
X211815169Y-186321900D01*
X211815169Y-186321900D02*
X211743740Y-186250471D01*
X211743740Y-186250471D02*
X211672312Y-186107614D01*
X211672312Y-186107614D02*
X211672312Y-185679042D01*
X211672312Y-185679042D02*
X211743740Y-185536185D01*
X211743740Y-185536185D02*
X211815169Y-185464757D01*
X211815169Y-185464757D02*
X211958026Y-185393328D01*
X211958026Y-185393328D02*
X212243740Y-185393328D01*
X212243740Y-185393328D02*
X212386598Y-185464757D01*
X213029454Y-186393328D02*
X213029454Y-184893328D01*
X213029454Y-185464757D02*
X213172312Y-185393328D01*
X213172312Y-185393328D02*
X213458026Y-185393328D01*
X213458026Y-185393328D02*
X213600883Y-185464757D01*
X213600883Y-185464757D02*
X213672312Y-185536185D01*
X213672312Y-185536185D02*
X213743740Y-185679042D01*
X213743740Y-185679042D02*
X213743740Y-186107614D01*
X213743740Y-186107614D02*
X213672312Y-186250471D01*
X213672312Y-186250471D02*
X213600883Y-186321900D01*
X213600883Y-186321900D02*
X213458026Y-186393328D01*
X213458026Y-186393328D02*
X213172312Y-186393328D01*
X213172312Y-186393328D02*
X213029454Y-186321900D01*
D10*
D11*
X177002200Y-181507200D02*
X285002200Y-181507200D01*
D10*
D11*
X178386598Y-183621900D02*
X178600884Y-183693328D01*
X178600884Y-183693328D02*
X178958026Y-183693328D01*
X178958026Y-183693328D02*
X179100884Y-183621900D01*
X179100884Y-183621900D02*
X179172312Y-183550471D01*
X179172312Y-183550471D02*
X179243741Y-183407614D01*
X179243741Y-183407614D02*
X179243741Y-183264757D01*
X179243741Y-183264757D02*
X179172312Y-183121900D01*
X179172312Y-183121900D02*
X179100884Y-183050471D01*
X179100884Y-183050471D02*
X178958026Y-182979042D01*
X178958026Y-182979042D02*
X178672312Y-182907614D01*
X178672312Y-182907614D02*
X178529455Y-182836185D01*
X178529455Y-182836185D02*
X178458026Y-182764757D01*
X178458026Y-182764757D02*
X178386598Y-182621900D01*
X178386598Y-182621900D02*
X178386598Y-182479042D01*
X178386598Y-182479042D02*
X178458026Y-182336185D01*
X178458026Y-182336185D02*
X178529455Y-182264757D01*
X178529455Y-182264757D02*
X178672312Y-182193328D01*
X178672312Y-182193328D02*
X179029455Y-182193328D01*
X179029455Y-182193328D02*
X179243741Y-182264757D01*
X179886597Y-183693328D02*
X179886597Y-182193328D01*
X180529455Y-183693328D02*
X180529455Y-182907614D01*
X180529455Y-182907614D02*
X180458026Y-182764757D01*
X180458026Y-182764757D02*
X180315169Y-182693328D01*
X180315169Y-182693328D02*
X180100883Y-182693328D01*
X180100883Y-182693328D02*
X179958026Y-182764757D01*
X179958026Y-182764757D02*
X179886597Y-182836185D01*
X181815169Y-183621900D02*
X181672312Y-183693328D01*
X181672312Y-183693328D02*
X181386598Y-183693328D01*
X181386598Y-183693328D02*
X181243740Y-183621900D01*
X181243740Y-183621900D02*
X181172312Y-183479042D01*
X181172312Y-183479042D02*
X181172312Y-182907614D01*
X181172312Y-182907614D02*
X181243740Y-182764757D01*
X181243740Y-182764757D02*
X181386598Y-182693328D01*
X181386598Y-182693328D02*
X181672312Y-182693328D01*
X181672312Y-182693328D02*
X181815169Y-182764757D01*
X181815169Y-182764757D02*
X181886598Y-182907614D01*
X181886598Y-182907614D02*
X181886598Y-183050471D01*
X181886598Y-183050471D02*
X181172312Y-183193328D01*
X183100883Y-183621900D02*
X182958026Y-183693328D01*
X182958026Y-183693328D02*
X182672312Y-183693328D01*
X182672312Y-183693328D02*
X182529454Y-183621900D01*
X182529454Y-183621900D02*
X182458026Y-183479042D01*
X182458026Y-183479042D02*
X182458026Y-182907614D01*
X182458026Y-182907614D02*
X182529454Y-182764757D01*
X182529454Y-182764757D02*
X182672312Y-182693328D01*
X182672312Y-182693328D02*
X182958026Y-182693328D01*
X182958026Y-182693328D02*
X183100883Y-182764757D01*
X183100883Y-182764757D02*
X183172312Y-182907614D01*
X183172312Y-182907614D02*
X183172312Y-183050471D01*
X183172312Y-183050471D02*
X182458026Y-183193328D01*
X183600883Y-182693328D02*
X184172311Y-182693328D01*
X183815168Y-182193328D02*
X183815168Y-183479042D01*
X183815168Y-183479042D02*
X183886597Y-183621900D01*
X183886597Y-183621900D02*
X184029454Y-183693328D01*
X184029454Y-183693328D02*
X184172311Y-183693328D01*
X184672311Y-183550471D02*
X184743740Y-183621900D01*
X184743740Y-183621900D02*
X184672311Y-183693328D01*
X184672311Y-183693328D02*
X184600883Y-183621900D01*
X184600883Y-183621900D02*
X184672311Y-183550471D01*
X184672311Y-183550471D02*
X184672311Y-183693328D01*
X184672311Y-182764757D02*
X184743740Y-182836185D01*
X184743740Y-182836185D02*
X184672311Y-182907614D01*
X184672311Y-182907614D02*
X184600883Y-182836185D01*
X184600883Y-182836185D02*
X184672311Y-182764757D01*
X184672311Y-182764757D02*
X184672311Y-182907614D01*
D10*
D12*
X178413853Y-179185528D02*
X178770996Y-180685528D01*
X178770996Y-180685528D02*
X179056710Y-179614100D01*
X179056710Y-179614100D02*
X179342425Y-180685528D01*
X179342425Y-180685528D02*
X179699568Y-179185528D01*
X180485282Y-180685528D02*
X180342425Y-180614100D01*
X180342425Y-180614100D02*
X180270996Y-180542671D01*
X180270996Y-180542671D02*
X180199568Y-180399814D01*
X180199568Y-180399814D02*
X180199568Y-179971242D01*
X180199568Y-179971242D02*
X180270996Y-179828385D01*
X180270996Y-179828385D02*
X180342425Y-179756957D01*
X180342425Y-179756957D02*
X180485282Y-179685528D01*
X180485282Y-179685528D02*
X180699568Y-179685528D01*
X180699568Y-179685528D02*
X180842425Y-179756957D01*
X180842425Y-179756957D02*
X180913854Y-179828385D01*
X180913854Y-179828385D02*
X180985282Y-179971242D01*
X180985282Y-179971242D02*
X180985282Y-180399814D01*
X180985282Y-180399814D02*
X180913854Y-180542671D01*
X180913854Y-180542671D02*
X180842425Y-180614100D01*
X180842425Y-180614100D02*
X180699568Y-180685528D01*
X180699568Y-180685528D02*
X180485282Y-180685528D01*
X181842425Y-180685528D02*
X181699568Y-180614100D01*
X181699568Y-180614100D02*
X181628139Y-180471242D01*
X181628139Y-180471242D02*
X181628139Y-179185528D01*
X182199568Y-179685528D02*
X182770996Y-179685528D01*
X182413853Y-180685528D02*
X182413853Y-179399814D01*
X182413853Y-179399814D02*
X182485282Y-179256957D01*
X182485282Y-179256957D02*
X182628139Y-179185528D01*
X182628139Y-179185528D02*
X182770996Y-179185528D01*
X183842425Y-180614100D02*
X183699568Y-180685528D01*
X183699568Y-180685528D02*
X183413854Y-180685528D01*
X183413854Y-180685528D02*
X183270996Y-180614100D01*
X183270996Y-180614100D02*
X183199568Y-180471242D01*
X183199568Y-180471242D02*
X183199568Y-179899814D01*
X183199568Y-179899814D02*
X183270996Y-179756957D01*
X183270996Y-179756957D02*
X183413854Y-179685528D01*
X183413854Y-179685528D02*
X183699568Y-179685528D01*
X183699568Y-179685528D02*
X183842425Y-179756957D01*
X183842425Y-179756957D02*
X183913854Y-179899814D01*
X183913854Y-179899814D02*
X183913854Y-180042671D01*
X183913854Y-180042671D02*
X183199568Y-180185528D01*
X185699567Y-179899814D02*
X186199567Y-179899814D01*
X186413853Y-180685528D02*
X185699567Y-180685528D01*
X185699567Y-180685528D02*
X185699567Y-179185528D01*
X185699567Y-179185528D02*
X186413853Y-179185528D01*
X187270996Y-180685528D02*
X187128139Y-180614100D01*
X187128139Y-180614100D02*
X187056710Y-180471242D01*
X187056710Y-180471242D02*
X187056710Y-179185528D01*
X188413853Y-180614100D02*
X188270996Y-180685528D01*
X188270996Y-180685528D02*
X187985282Y-180685528D01*
X187985282Y-180685528D02*
X187842424Y-180614100D01*
X187842424Y-180614100D02*
X187770996Y-180471242D01*
X187770996Y-180471242D02*
X187770996Y-179899814D01*
X187770996Y-179899814D02*
X187842424Y-179756957D01*
X187842424Y-179756957D02*
X187985282Y-179685528D01*
X187985282Y-179685528D02*
X188270996Y-179685528D01*
X188270996Y-179685528D02*
X188413853Y-179756957D01*
X188413853Y-179756957D02*
X188485282Y-179899814D01*
X188485282Y-179899814D02*
X188485282Y-180042671D01*
X188485282Y-180042671D02*
X187770996Y-180185528D01*
X189770996Y-180614100D02*
X189628138Y-180685528D01*
X189628138Y-180685528D02*
X189342424Y-180685528D01*
X189342424Y-180685528D02*
X189199567Y-180614100D01*
X189199567Y-180614100D02*
X189128138Y-180542671D01*
X189128138Y-180542671D02*
X189056710Y-180399814D01*
X189056710Y-180399814D02*
X189056710Y-179971242D01*
X189056710Y-179971242D02*
X189128138Y-179828385D01*
X189128138Y-179828385D02*
X189199567Y-179756957D01*
X189199567Y-179756957D02*
X189342424Y-179685528D01*
X189342424Y-179685528D02*
X189628138Y-179685528D01*
X189628138Y-179685528D02*
X189770996Y-179756957D01*
X190199567Y-179685528D02*
X190770995Y-179685528D01*
X190413852Y-179185528D02*
X190413852Y-180471242D01*
X190413852Y-180471242D02*
X190485281Y-180614100D01*
X190485281Y-180614100D02*
X190628138Y-180685528D01*
X190628138Y-180685528D02*
X190770995Y-180685528D01*
X191270995Y-180685528D02*
X191270995Y-179685528D01*
X191270995Y-179971242D02*
X191342424Y-179828385D01*
X191342424Y-179828385D02*
X191413853Y-179756957D01*
X191413853Y-179756957D02*
X191556710Y-179685528D01*
X191556710Y-179685528D02*
X191699567Y-179685528D01*
X192413852Y-180685528D02*
X192270995Y-180614100D01*
X192270995Y-180614100D02*
X192199566Y-180542671D01*
X192199566Y-180542671D02*
X192128138Y-180399814D01*
X192128138Y-180399814D02*
X192128138Y-179971242D01*
X192128138Y-179971242D02*
X192199566Y-179828385D01*
X192199566Y-179828385D02*
X192270995Y-179756957D01*
X192270995Y-179756957D02*
X192413852Y-179685528D01*
X192413852Y-179685528D02*
X192628138Y-179685528D01*
X192628138Y-179685528D02*
X192770995Y-179756957D01*
X192770995Y-179756957D02*
X192842424Y-179828385D01*
X192842424Y-179828385D02*
X192913852Y-179971242D01*
X192913852Y-179971242D02*
X192913852Y-180399814D01*
X192913852Y-180399814D02*
X192842424Y-180542671D01*
X192842424Y-180542671D02*
X192770995Y-180614100D01*
X192770995Y-180614100D02*
X192628138Y-180685528D01*
X192628138Y-180685528D02*
X192413852Y-180685528D01*
X193556709Y-179685528D02*
X193556709Y-180685528D01*
X193556709Y-179828385D02*
X193628138Y-179756957D01*
X193628138Y-179756957D02*
X193770995Y-179685528D01*
X193770995Y-179685528D02*
X193985281Y-179685528D01*
X193985281Y-179685528D02*
X194128138Y-179756957D01*
X194128138Y-179756957D02*
X194199567Y-179899814D01*
X194199567Y-179899814D02*
X194199567Y-180685528D01*
X194913852Y-180685528D02*
X194913852Y-179685528D01*
X194913852Y-179185528D02*
X194842424Y-179256957D01*
X194842424Y-179256957D02*
X194913852Y-179328385D01*
X194913852Y-179328385D02*
X194985281Y-179256957D01*
X194985281Y-179256957D02*
X194913852Y-179185528D01*
X194913852Y-179185528D02*
X194913852Y-179328385D01*
X196270996Y-180614100D02*
X196128138Y-180685528D01*
X196128138Y-180685528D02*
X195842424Y-180685528D01*
X195842424Y-180685528D02*
X195699567Y-180614100D01*
X195699567Y-180614100D02*
X195628138Y-180542671D01*
X195628138Y-180542671D02*
X195556710Y-180399814D01*
X195556710Y-180399814D02*
X195556710Y-179971242D01*
X195556710Y-179971242D02*
X195628138Y-179828385D01*
X195628138Y-179828385D02*
X195699567Y-179756957D01*
X195699567Y-179756957D02*
X195842424Y-179685528D01*
X195842424Y-179685528D02*
X196128138Y-179685528D01*
X196128138Y-179685528D02*
X196270996Y-179756957D01*
X196842424Y-180614100D02*
X196985281Y-180685528D01*
X196985281Y-180685528D02*
X197270995Y-180685528D01*
X197270995Y-180685528D02*
X197413852Y-180614100D01*
X197413852Y-180614100D02*
X197485281Y-180471242D01*
X197485281Y-180471242D02*
X197485281Y-180399814D01*
X197485281Y-180399814D02*
X197413852Y-180256957D01*
X197413852Y-180256957D02*
X197270995Y-180185528D01*
X197270995Y-180185528D02*
X197056710Y-180185528D01*
X197056710Y-180185528D02*
X196913852Y-180114100D01*
X196913852Y-180114100D02*
X196842424Y-179971242D01*
X196842424Y-179971242D02*
X196842424Y-179899814D01*
X196842424Y-179899814D02*
X196913852Y-179756957D01*
X196913852Y-179756957D02*
X197056710Y-179685528D01*
X197056710Y-179685528D02*
X197270995Y-179685528D01*
X197270995Y-179685528D02*
X197413852Y-179756957D01*
D10*
D11*
X197002200Y-191507200D02*
X197002200Y-194507200D01*
D10*
D11*
X261002200Y-191507200D02*
X261002200Y-198007200D01*
D14*
X228600000Y-43180000D02*
X228600000Y-121920000D01*
X223520000Y-38100000D02*
G75*
G02*
X228600000Y-43180000I0J-5080000D01*
G01*
X223520000Y-127000000D02*
X96520000Y-127000000D01*
X88900000Y-43180000D02*
G75*
G02*
X93980000Y-38100000I5080000J0D01*
G01*
X96520000Y-127000000D02*
X93980000Y-127000000D01*
X88900000Y-121920000D02*
X88900000Y-43180000D01*
X93980000Y-127000000D02*
G75*
G02*
X88900000Y-121920000I0J5080000D01*
G01*
X93980000Y-38100000D02*
X223520000Y-38100000D01*
X228600000Y-121920000D02*
G75*
G02*
X223520000Y-127000000I-5080000J0D01*
G01*
M02*
