%TF.GenerationSoftware,KiCad,Pcbnew,9.0.6*%
%TF.CreationDate,2026-04-11T10:05:08-04:00*%
%TF.ProjectId,iMX6_BareBones,694d5836-5f42-4617-9265-426f6e65732e,1*%
%TF.SameCoordinates,Original*%
%TF.FileFunction,Soldermask,Top*%
%TF.FilePolarity,Negative*%
%FSLAX46Y46*%
G04 Gerber Fmt 4.6, Leading zero omitted, Abs format (unit mm)*
G04 Created by KiCad (PCBNEW 9.0.6) date 2026-04-11 10:05:08*
%MOMM*%
%LPD*%
G01*
G04 APERTURE LIST*
G04 Aperture macros list*
%AMRoundRect*
0 Rectangle with rounded corners*
0 $1 Rounding radius*
0 $2 $3 $4 $5 $6 $7 $8 $9 X,Y pos of 4 corners*
0 Add a 4 corners polygon primitive as box body*
4,1,4,$2,$3,$4,$5,$6,$7,$8,$9,$2,$3,0*
0 Add four circle primitives for the rounded corners*
1,1,$1+$1,$2,$3*
1,1,$1+$1,$4,$5*
1,1,$1+$1,$6,$7*
1,1,$1+$1,$8,$9*
0 Add four rect primitives between the rounded corners*
20,1,$1+$1,$2,$3,$4,$5,0*
20,1,$1+$1,$4,$5,$6,$7,0*
20,1,$1+$1,$6,$7,$8,$9,0*
20,1,$1+$1,$8,$9,$2,$3,0*%
G04 Aperture macros list end*
%ADD10RoundRect,0.165400X0.195400X-0.165400X0.195400X0.165400X-0.195400X0.165400X-0.195400X-0.165400X0*%
%ADD11RoundRect,0.165400X0.165400X0.195400X-0.165400X0.195400X-0.165400X-0.195400X0.165400X-0.195400X0*%
%ADD12RoundRect,0.087900X0.142900X0.087900X-0.142900X0.087900X-0.142900X-0.087900X0.142900X-0.087900X0*%
%ADD13RoundRect,0.160400X-0.160400X-0.210400X0.160400X-0.210400X0.160400X0.210400X-0.160400X0.210400X0*%
%ADD14RoundRect,0.087900X-0.087900X0.142900X-0.087900X-0.142900X0.087900X-0.142900X0.087900X0.142900X0*%
%ADD15RoundRect,0.050800X-0.299999X-0.500000X0.299999X-0.500000X0.299999X0.500000X-0.299999X0.500000X0*%
%ADD16C,0.863600*%
%ADD17RoundRect,0.165400X-0.195400X0.165400X-0.195400X-0.165400X0.195400X-0.165400X0.195400X0.165400X0*%
%ADD18RoundRect,0.160400X-0.210400X0.160400X-0.210400X-0.160400X0.210400X-0.160400X0.210400X0.160400X0*%
%ADD19RoundRect,0.050800X-0.525000X0.275000X-0.525000X-0.275000X0.525000X-0.275000X0.525000X0.275000X0*%
%ADD20RoundRect,0.160400X0.210400X-0.160400X0.210400X0.160400X-0.210400X0.160400X-0.210400X-0.160400X0*%
%ADD21C,1.801600*%
%ADD22RoundRect,0.102000X-1.200000X0.750000X-1.200000X-0.750000X1.200000X-0.750000X1.200000X0.750000X0*%
%ADD23RoundRect,0.102000X0.450000X-0.725000X0.450000X0.725000X-0.450000X0.725000X-0.450000X-0.725000X0*%
%ADD24RoundRect,0.160400X0.160400X0.210400X-0.160400X0.210400X-0.160400X-0.210400X0.160400X-0.210400X0*%
%ADD25RoundRect,0.270320X-0.405480X-0.655480X0.405480X-0.655480X0.405480X0.655480X-0.405480X0.655480X0*%
%ADD26RoundRect,0.025000X0.215000X0.155000X-0.215000X0.155000X-0.215000X-0.155000X0.215000X-0.155000X0*%
%ADD27RoundRect,0.025000X0.210000X0.155000X-0.210000X0.155000X-0.210000X-0.155000X0.210000X-0.155000X0*%
%ADD28C,0.558800*%
%ADD29RoundRect,0.050800X0.275000X0.525000X-0.275000X0.525000X-0.275000X-0.525000X0.275000X-0.525000X0*%
%ADD30RoundRect,0.050800X-0.304800X-0.139700X0.304800X-0.139700X0.304800X0.139700X-0.304800X0.139700X0*%
%ADD31C,0.901600*%
%ADD32C,6.501600*%
%ADD33RoundRect,0.050800X-0.525000X0.200000X-0.525000X-0.200000X0.525000X-0.200000X0.525000X0.200000X0*%
%ADD34C,2.000000*%
%ADD35RoundRect,0.050800X-0.900000X0.500000X-0.900000X-0.500000X0.900000X-0.500000X0.900000X0.500000X0*%
%ADD36RoundRect,0.030000X0.175000X-0.175000X0.175000X0.175000X-0.175000X0.175000X-0.175000X-0.175000X0*%
%ADD37RoundRect,0.040000X0.150000X-0.450000X0.150000X0.450000X-0.150000X0.450000X-0.150000X-0.450000X0*%
%ADD38RoundRect,0.040000X0.450000X-0.150000X0.450000X0.150000X-0.450000X0.150000X-0.450000X-0.150000X0*%
%ADD39RoundRect,0.250400X0.250400X0.275400X-0.250400X0.275400X-0.250400X-0.275400X0.250400X-0.275400X0*%
%ADD40RoundRect,0.100000X-0.575000X-1.100000X0.575000X-1.100000X0.575000X1.100000X-0.575000X1.100000X0*%
%ADD41RoundRect,0.100000X-0.575000X-0.600000X0.575000X-0.600000X0.575000X0.600000X-0.575000X0.600000X0*%
%ADD42RoundRect,0.100000X-0.750000X-0.575000X0.750000X-0.575000X0.750000X0.575000X-0.750000X0.575000X0*%
%ADD43RoundRect,0.100000X-0.575000X-1.250000X0.575000X-1.250000X0.575000X1.250000X-0.575000X1.250000X0*%
%ADD44RoundRect,0.050000X-0.400000X-0.620000X0.400000X-0.620000X0.400000X0.620000X-0.400000X0.620000X0*%
%ADD45RoundRect,0.100000X-0.575000X-0.625000X0.575000X-0.625000X0.575000X0.625000X-0.575000X0.625000X0*%
%ADD46RoundRect,0.102000X1.715000X0.890000X-1.715000X0.890000X-1.715000X-0.890000X1.715000X-0.890000X0*%
%ADD47RoundRect,0.269150X-0.481650X0.269150X-0.481650X-0.269150X0.481650X-0.269150X0.481650X0.269150X0*%
%ADD48RoundRect,0.274780X-0.476020X0.288520X-0.476020X-0.288520X0.476020X-0.288520X0.476020X0.288520X0*%
%ADD49RoundRect,0.102000X-0.750000X-1.200000X0.750000X-1.200000X0.750000X1.200000X-0.750000X1.200000X0*%
%ADD50C,1.300000*%
%ADD51RoundRect,0.250400X-0.250400X-0.275400X0.250400X-0.275400X0.250400X0.275400X-0.250400X0.275400X0*%
%ADD52RoundRect,0.270320X0.405480X0.655480X-0.405480X0.655480X-0.405480X-0.655480X0.405480X-0.655480X0*%
%ADD53RoundRect,0.274780X0.476020X-0.288520X0.476020X0.288520X-0.476020X0.288520X-0.476020X-0.288520X0*%
%ADD54RoundRect,0.165400X-0.165400X-0.195400X0.165400X-0.195400X0.165400X0.195400X-0.165400X0.195400X0*%
%ADD55RoundRect,0.050800X0.775000X-0.350000X0.775000X0.350000X-0.775000X0.350000X-0.775000X-0.350000X0*%
%ADD56RoundRect,0.270320X0.655480X-0.405480X0.655480X0.405480X-0.655480X0.405480X-0.655480X-0.405480X0*%
%ADD57RoundRect,0.215400X0.460400X0.215400X-0.460400X0.215400X-0.460400X-0.215400X0.460400X-0.215400X0*%
%ADD58RoundRect,0.050800X-0.177400X0.422649X-0.177400X-0.422649X0.177400X-0.422649X0.177400X0.422649X0*%
%ADD59RoundRect,0.270320X-0.655480X0.405480X-0.655480X-0.405480X0.655480X-0.405480X0.655480X0.405480X0*%
%ADD60C,0.634000*%
%ADD61RoundRect,0.265875X-1.534925X-0.584925X1.534925X-0.584925X1.534925X0.584925X-1.534925X0.584925X0*%
%ADD62RoundRect,0.102000X-1.715000X-0.890000X1.715000X-0.890000X1.715000X0.890000X-1.715000X0.890000X0*%
%ADD63C,0.386000*%
%ADD64RoundRect,0.250400X-0.275400X0.250400X-0.275400X-0.250400X0.275400X-0.250400X0.275400X0.250400X0*%
%ADD65RoundRect,0.275400X-0.275400X-0.500400X0.275400X-0.500400X0.275400X0.500400X-0.275400X0.500400X0*%
%ADD66C,0.471600*%
%ADD67RoundRect,0.161750X0.585250X-0.485250X0.585250X0.485250X-0.585250X0.485250X-0.585250X-0.485250X0*%
%ADD68RoundRect,0.050800X0.177800X-0.622300X0.177800X0.622300X-0.177800X0.622300X-0.177800X-0.622300X0*%
%ADD69C,3.351600*%
%ADD70RoundRect,0.050800X0.704000X0.704000X-0.704000X0.704000X-0.704000X-0.704000X0.704000X-0.704000X0*%
%ADD71C,1.509600*%
%ADD72C,1.631600*%
%ADD73C,2.501600*%
%ADD74C,0.751600*%
%ADD75RoundRect,0.040000X-0.300000X-0.575000X0.300000X-0.575000X0.300000X0.575000X-0.300000X0.575000X0*%
%ADD76RoundRect,0.040000X-0.150000X-0.575000X0.150000X-0.575000X0.150000X0.575000X-0.150000X0.575000X0*%
%ADD77RoundRect,0.050000X-1.090000X-1.000000X1.090000X-1.000000X1.090000X1.000000X-1.090000X1.000000X0*%
%ADD78RoundRect,0.250400X0.275400X-0.250400X0.275400X0.250400X-0.275400X0.250400X-0.275400X-0.250400X0*%
%ADD79RoundRect,0.102000X-0.704000X0.704000X-0.704000X-0.704000X0.704000X-0.704000X0.704000X0.704000X0*%
%ADD80C,1.612000*%
%ADD81RoundRect,0.150000X0.850000X-0.850000X0.850000X0.850000X-0.850000X0.850000X-0.850000X-0.850000X0*%
%ADD82RoundRect,0.050800X0.500000X-0.299999X0.500000X0.299999X-0.500000X0.299999X-0.500000X-0.299999X0*%
%ADD83C,1.632000*%
%ADD84C,3.520000*%
%ADD85RoundRect,0.050800X-0.325000X-0.550000X0.325000X-0.550000X0.325000X0.550000X-0.325000X0.550000X0*%
%ADD86C,0.355600*%
%ADD87RoundRect,0.050800X0.127000X0.431800X-0.127000X0.431800X-0.127000X-0.431800X0.127000X-0.431800X0*%
%ADD88RoundRect,0.050800X0.431800X-0.127000X0.431800X0.127000X-0.431800X0.127000X-0.431800X-0.127000X0*%
%ADD89RoundRect,0.102000X-1.395000X0.370000X-1.395000X-0.370000X1.395000X-0.370000X1.395000X0.370000X0*%
%ADD90RoundRect,0.040000X0.300000X0.575000X-0.300000X0.575000X-0.300000X-0.575000X0.300000X-0.575000X0*%
%ADD91RoundRect,0.040000X0.150000X0.575000X-0.150000X0.575000X-0.150000X-0.575000X0.150000X-0.575000X0*%
%ADD92RoundRect,0.050000X1.090000X1.000000X-1.090000X1.000000X-1.090000X-1.000000X1.090000X-1.000000X0*%
%ADD93RoundRect,0.050800X0.300000X0.600000X-0.300000X0.600000X-0.300000X-0.600000X0.300000X-0.600000X0*%
G04 APERTURE END LIST*
%TO.C,U8*%
G36*
X207126000Y-105718000D02*
G01*
X207826000Y-105718000D01*
X207826000Y-105018000D01*
X207126000Y-105018000D01*
X207126000Y-105718000D01*
G37*
G36*
X207126000Y-106818000D02*
G01*
X207826000Y-106818000D01*
X207826000Y-106118000D01*
X207126000Y-106118000D01*
X207126000Y-106818000D01*
G37*
G36*
X208226000Y-105718000D02*
G01*
X208926000Y-105718000D01*
X208926000Y-105018000D01*
X208226000Y-105018000D01*
X208226000Y-105718000D01*
G37*
G36*
X208226000Y-106818000D02*
G01*
X208926000Y-106818000D01*
X208926000Y-106118000D01*
X208226000Y-106118000D01*
X208226000Y-106818000D01*
G37*
%TO.C,U7*%
G36*
X185063000Y-95431000D02*
G01*
X186363000Y-95431000D01*
X186363000Y-94131000D01*
X185063000Y-94131000D01*
X185063000Y-95431000D01*
G37*
G36*
X185063000Y-97131000D02*
G01*
X186363000Y-97131000D01*
X186363000Y-95831000D01*
X185063000Y-95831000D01*
X185063000Y-97131000D01*
G37*
G36*
X186763000Y-95431000D02*
G01*
X188063000Y-95431000D01*
X188063000Y-94131000D01*
X186763000Y-94131000D01*
X186763000Y-95431000D01*
G37*
G36*
X186763000Y-97131000D02*
G01*
X188063000Y-97131000D01*
X188063000Y-95831000D01*
X186763000Y-95831000D01*
X186763000Y-97131000D01*
G37*
%TD*%
D10*
%TO.C,C121*%
X121158000Y-77950000D03*
X121158000Y-76990000D03*
%TD*%
D11*
%TO.C,C103*%
X215110000Y-48895000D03*
X214150000Y-48895000D03*
%TD*%
D12*
%TO.C,D7*%
X108068000Y-47073000D03*
X108908000Y-47073000D03*
%TD*%
D11*
%TO.C,C101*%
X203299000Y-48918500D03*
X202339000Y-48918500D03*
%TD*%
D13*
%TO.C,R2*%
X105585800Y-99237800D03*
X106605800Y-99237800D03*
%TD*%
%TO.C,R259*%
X137259600Y-59172600D03*
X138279600Y-59172600D03*
%TD*%
D14*
%TO.C,D1*%
X154178000Y-122721000D03*
X154178000Y-121881000D03*
%TD*%
D15*
%TO.C,U16*%
X166304001Y-58822999D03*
X165354000Y-58822999D03*
X164404002Y-58822999D03*
X164404002Y-61572999D03*
X166304001Y-61572999D03*
%TD*%
D16*
%TO.C,TP32*%
X190423800Y-98729800D03*
%TD*%
D11*
%TO.C,C147*%
X185138000Y-89027000D03*
X184178000Y-89027000D03*
%TD*%
D17*
%TO.C,C28*%
X154362000Y-99330700D03*
X154362000Y-100290700D03*
%TD*%
D11*
%TO.C,C32*%
X141128000Y-90565100D03*
X140168000Y-90565100D03*
%TD*%
D18*
%TO.C,R243*%
X110617000Y-74801000D03*
X110617000Y-75821000D03*
%TD*%
D19*
%TO.C,U15*%
X139958600Y-56423600D03*
X139958600Y-55473600D03*
X139958600Y-54523600D03*
X137358600Y-54523600D03*
X137358600Y-55473600D03*
X137358600Y-56423600D03*
%TD*%
D20*
%TO.C,R249*%
X122682000Y-71122000D03*
X122682000Y-70102000D03*
%TD*%
D21*
%TO.C,SW3*%
X121100000Y-116892500D03*
X121100000Y-121972500D03*
X116020000Y-116892500D03*
X116020000Y-121972500D03*
%TD*%
D10*
%TO.C,C97*%
X210312000Y-69949000D03*
X210312000Y-68989000D03*
%TD*%
D22*
%TO.C,L4*%
X125984000Y-77652000D03*
X125984000Y-81352000D03*
%TD*%
D23*
%TO.C,L1*%
X202418000Y-61873500D03*
X202418000Y-57423500D03*
X199918000Y-57423500D03*
X199918000Y-61873500D03*
%TD*%
D24*
%TO.C,R187*%
X204192600Y-105054400D03*
X203172600Y-105054400D03*
%TD*%
D25*
%TO.C,F14*%
X104080000Y-59182000D03*
X106880000Y-59182000D03*
%TD*%
D20*
%TO.C,R88*%
X200914000Y-123700000D03*
X200914000Y-122680000D03*
%TD*%
D26*
%TO.C,U18*%
X98629000Y-112387000D03*
D27*
X98634000Y-111887000D03*
X98634000Y-111387000D03*
X98634000Y-110887000D03*
X98044000Y-110887000D03*
X98044000Y-111387000D03*
X98044000Y-111887000D03*
X98044000Y-112387000D03*
%TD*%
D13*
%TO.C,R92*%
X146408200Y-68340100D03*
X147428200Y-68340100D03*
%TD*%
D28*
%TO.C,TP17*%
X148520400Y-81751300D03*
%TD*%
D11*
%TO.C,C109*%
X102378000Y-60579000D03*
X101418000Y-60579000D03*
%TD*%
D20*
%TO.C,R117*%
X118110000Y-112298000D03*
X118110000Y-111278000D03*
%TD*%
D24*
%TO.C,R113*%
X181231000Y-91440000D03*
X180211000Y-91440000D03*
%TD*%
D29*
%TO.C,U14*%
X121986000Y-75214000D03*
X122936000Y-75214000D03*
X123886000Y-75214000D03*
X123886000Y-72614000D03*
X122936000Y-72614000D03*
X121986000Y-72614000D03*
%TD*%
D30*
%TO.C,U13*%
X107200700Y-74179999D03*
X107200700Y-74680000D03*
X107200700Y-75180000D03*
X107200700Y-75680001D03*
X108699300Y-75680001D03*
X108699300Y-75180000D03*
X108699300Y-74680000D03*
X108699300Y-74179999D03*
%TD*%
D31*
%TO.C,H3*%
X91580000Y-121920000D03*
X92282944Y-120222944D03*
X92282944Y-123617056D03*
X93980000Y-119520000D03*
D32*
X93980000Y-121920000D03*
D31*
X93980000Y-124320000D03*
X95677056Y-120222944D03*
X95677056Y-123617056D03*
X96380000Y-121920000D03*
%TD*%
D16*
%TO.C,TP26*%
X135695000Y-89041100D03*
%TD*%
D33*
%TO.C,Q1*%
X109916000Y-116347000D03*
X109916000Y-115697000D03*
X109916000Y-115047000D03*
X108016000Y-115047000D03*
X108016000Y-115697000D03*
X108016000Y-116347000D03*
%TD*%
D20*
%TO.C,R172*%
X205384400Y-65915000D03*
X205384400Y-64895000D03*
%TD*%
D24*
%TO.C,R74*%
X154307000Y-117856000D03*
X153287000Y-117856000D03*
%TD*%
%TO.C,R178*%
X203329000Y-53975000D03*
X202309000Y-53975000D03*
%TD*%
D13*
%TO.C,R169*%
X124407200Y-115290600D03*
X125427200Y-115290600D03*
%TD*%
D20*
%TO.C,R69*%
X162438080Y-107723400D03*
X162438080Y-106703400D03*
%TD*%
D34*
%TO.C,FID3*%
X216916000Y-43180000D03*
%TD*%
D35*
%TO.C,Y2*%
X143696000Y-88146700D03*
X143696000Y-90646700D03*
%TD*%
D17*
%TO.C,C119*%
X127254000Y-72926000D03*
X127254000Y-73886000D03*
%TD*%
D36*
%TO.C,U8*%
X206776000Y-107168000D03*
D37*
X207276000Y-107468000D03*
X207776000Y-107468000D03*
X208276000Y-107468000D03*
X208776000Y-107468000D03*
D36*
X209276000Y-107168000D03*
D38*
X209576000Y-106668000D03*
X209576000Y-106168000D03*
X209576000Y-105668000D03*
X209576000Y-105168000D03*
D36*
X209276000Y-104668000D03*
D37*
X208776000Y-104368000D03*
X208276000Y-104368000D03*
X207776000Y-104368000D03*
X207276000Y-104368000D03*
D36*
X206776000Y-104668000D03*
D38*
X206476000Y-105168000D03*
X206476000Y-105668000D03*
X206476000Y-106168000D03*
X206476000Y-106668000D03*
%TD*%
D13*
%TO.C,R266*%
X102106000Y-108077000D03*
X103126000Y-108077000D03*
%TD*%
D18*
%TO.C,R240*%
X109220000Y-49671000D03*
X109220000Y-50691000D03*
%TD*%
D39*
%TO.C,C112*%
X105169000Y-72390000D03*
X103619000Y-72390000D03*
%TD*%
D25*
%TO.C,F18*%
X180591000Y-63627000D03*
X183391000Y-63627000D03*
%TD*%
D40*
%TO.C,J3*%
X156071000Y-124229000D03*
D41*
X156471000Y-113079000D03*
D42*
X158276000Y-111954000D03*
X166056000Y-111954000D03*
D40*
X170361000Y-112749000D03*
D43*
X170361000Y-124079000D03*
D44*
X166116000Y-124709000D03*
X165016000Y-124709000D03*
X163916000Y-124709000D03*
X162816000Y-124709000D03*
X161716000Y-124709000D03*
X160616000Y-124709000D03*
X159516000Y-124709000D03*
X158416000Y-124709000D03*
D45*
X156471000Y-122079000D03*
%TD*%
D46*
%TO.C,TP41*%
X97790000Y-50292000D03*
%TD*%
D47*
%TO.C,D5*%
X199390000Y-108536500D03*
X199390000Y-110411500D03*
%TD*%
D48*
%TO.C,R177*%
X199517000Y-50292000D03*
X199517000Y-52117000D03*
%TD*%
D10*
%TO.C,C99*%
X201168000Y-51811500D03*
X201168000Y-50851500D03*
%TD*%
D49*
%TO.C,L5*%
X142269600Y-52425600D03*
X145969600Y-52425600D03*
%TD*%
D50*
%TO.C,H6*%
X216916000Y-45720000D03*
%TD*%
D18*
%TO.C,R91*%
X134728200Y-73595900D03*
X134728200Y-74615900D03*
%TD*%
D11*
%TO.C,C137*%
X126238000Y-118110000D03*
X125278000Y-118110000D03*
%TD*%
D16*
%TO.C,TP58*%
X96180000Y-113288000D03*
%TD*%
D13*
%TO.C,R58*%
X146234000Y-88126700D03*
X147254000Y-88126700D03*
%TD*%
D51*
%TO.C,C129*%
X166611000Y-55626000D03*
X168161000Y-55626000D03*
%TD*%
D52*
%TO.C,F16*%
X178282600Y-59055000D03*
X175482600Y-59055000D03*
%TD*%
D53*
%TO.C,R276*%
X110744000Y-121562500D03*
X110744000Y-119737500D03*
%TD*%
D20*
%TO.C,R274*%
X106045000Y-108841000D03*
X106045000Y-107821000D03*
%TD*%
D46*
%TO.C,TP42*%
X97282000Y-80181000D03*
%TD*%
D13*
%TO.C,R3*%
X105587800Y-97900400D03*
X106607800Y-97900400D03*
%TD*%
%TO.C,R265*%
X95416000Y-111383000D03*
X96436000Y-111383000D03*
%TD*%
D54*
%TO.C,C114*%
X106200000Y-77724000D03*
X107160000Y-77724000D03*
%TD*%
D24*
%TO.C,R105*%
X192661000Y-97917000D03*
X191641000Y-97917000D03*
%TD*%
D31*
%TO.C,H1*%
X91580000Y-43180000D03*
X92282944Y-41482944D03*
X92282944Y-44877056D03*
X93980000Y-40780000D03*
D32*
X93980000Y-43180000D03*
D31*
X93980000Y-45580000D03*
X95677056Y-41482944D03*
X95677056Y-44877056D03*
X96380000Y-43180000D03*
%TD*%
D55*
%TO.C,U11*%
X212159000Y-67564000D03*
X212159000Y-68834000D03*
X212159000Y-70104000D03*
X212159000Y-71374000D03*
X217609000Y-71374000D03*
X217609000Y-70104000D03*
X217609000Y-68834000D03*
X217609000Y-67564000D03*
%TD*%
D16*
%TO.C,TP51*%
X123698000Y-109474000D03*
%TD*%
D24*
%TO.C,R162*%
X152224200Y-104571800D03*
X151204200Y-104571800D03*
%TD*%
D13*
%TO.C,R89*%
X203706000Y-107315000D03*
X204726000Y-107315000D03*
%TD*%
%TO.C,R236*%
X167003000Y-83693000D03*
X168023000Y-83693000D03*
%TD*%
D56*
%TO.C,F11*%
X124714000Y-70488000D03*
X124714000Y-67688000D03*
%TD*%
D20*
%TO.C,R66*%
X167858440Y-109677200D03*
X167858440Y-108657200D03*
%TD*%
D16*
%TO.C,TP29*%
X179578000Y-94996000D03*
%TD*%
D57*
%TO.C,SW1*%
X114327000Y-99187000D03*
X114327000Y-97917000D03*
X108177000Y-97917000D03*
X108177000Y-99187000D03*
%TD*%
D20*
%TO.C,R62*%
X158816040Y-109677200D03*
X158816040Y-108657200D03*
%TD*%
D18*
%TO.C,R57*%
X123588000Y-96137000D03*
X123588000Y-97157000D03*
%TD*%
D54*
%TO.C,C125*%
X137289600Y-58013600D03*
X138249600Y-58013600D03*
%TD*%
D55*
%TO.C,U10*%
X198316000Y-67564000D03*
X198316000Y-68834000D03*
X198316000Y-70104000D03*
X198316000Y-71374000D03*
X203766000Y-71374000D03*
X203766000Y-70104000D03*
X203766000Y-68834000D03*
X203766000Y-67564000D03*
%TD*%
D54*
%TO.C,C30*%
X147509000Y-78627100D03*
X148469000Y-78627100D03*
%TD*%
D24*
%TO.C,R185*%
X152224200Y-103454200D03*
X151204200Y-103454200D03*
%TD*%
D20*
%TO.C,R237*%
X104170000Y-43690000D03*
X104170000Y-42670000D03*
%TD*%
D13*
%TO.C,R234*%
X167003000Y-82677000D03*
X168023000Y-82677000D03*
%TD*%
%TO.C,R261*%
X163320000Y-55880000D03*
X164340000Y-55880000D03*
%TD*%
D18*
%TO.C,R171*%
X204114400Y-64895000D03*
X204114400Y-65915000D03*
%TD*%
D31*
%TO.C,H2*%
X221120000Y-43180000D03*
X221822944Y-41482944D03*
X221822944Y-44877056D03*
X223520000Y-40780000D03*
D32*
X223520000Y-43180000D03*
D31*
X223520000Y-45580000D03*
X225217056Y-41482944D03*
X225217056Y-44877056D03*
X225920000Y-43180000D03*
%TD*%
D58*
%TO.C,U19*%
X107837999Y-110245149D03*
X107188000Y-110245149D03*
X106538001Y-110245149D03*
X106538001Y-112512851D03*
X107188000Y-112512851D03*
X107837999Y-112512851D03*
%TD*%
D24*
%TO.C,R114*%
X181231000Y-92456000D03*
X180211000Y-92456000D03*
%TD*%
%TO.C,R192*%
X196471000Y-71501000D03*
X195451000Y-71501000D03*
%TD*%
D54*
%TO.C,C130*%
X166398000Y-57150000D03*
X167358000Y-57150000D03*
%TD*%
D13*
%TO.C,R218*%
X169289000Y-92608400D03*
X170309000Y-92608400D03*
%TD*%
D10*
%TO.C,C47*%
X211328000Y-109446000D03*
X211328000Y-108486000D03*
%TD*%
D59*
%TO.C,F8*%
X129286000Y-42288000D03*
X129286000Y-45088000D03*
%TD*%
D13*
%TO.C,R108*%
X191639000Y-96901000D03*
X192659000Y-96901000D03*
%TD*%
D16*
%TO.C,TP30*%
X185801000Y-90297000D03*
%TD*%
D39*
%TO.C,C108*%
X102178000Y-58928000D03*
X100628000Y-58928000D03*
%TD*%
D20*
%TO.C,R71*%
X160639760Y-107698000D03*
X160639760Y-106678000D03*
%TD*%
D17*
%TO.C,C83*%
X135382000Y-110264000D03*
X135382000Y-111224000D03*
%TD*%
D52*
%TO.C,F6*%
X200282000Y-41275000D03*
X197482000Y-41275000D03*
%TD*%
%TO.C,F15*%
X133480000Y-110236000D03*
X130680000Y-110236000D03*
%TD*%
D13*
%TO.C,R109*%
X191639000Y-95885000D03*
X192659000Y-95885000D03*
%TD*%
D18*
%TO.C,R250*%
X119380000Y-72337200D03*
X119380000Y-73357200D03*
%TD*%
D10*
%TO.C,C94*%
X196342000Y-69949000D03*
X196342000Y-68989000D03*
%TD*%
D13*
%TO.C,R232*%
X167003000Y-80645000D03*
X168023000Y-80645000D03*
%TD*%
%TO.C,R233*%
X167003000Y-84709000D03*
X168023000Y-84709000D03*
%TD*%
D17*
%TO.C,C135*%
X119634000Y-111308000D03*
X119634000Y-112268000D03*
%TD*%
D60*
%TO.C,U5*%
X143618000Y-80664700D03*
X142818000Y-80664700D03*
X142018000Y-80664700D03*
X138818000Y-80664700D03*
X138018000Y-80664700D03*
X137218000Y-80664700D03*
X143618000Y-79864700D03*
X142818000Y-79864700D03*
X142018000Y-79864700D03*
X138818000Y-79864700D03*
X138018000Y-79864700D03*
X137218000Y-79864700D03*
X143618000Y-79064700D03*
X142818000Y-79064700D03*
X142018000Y-79064700D03*
X138818000Y-79064700D03*
X138018000Y-79064700D03*
X137218000Y-79064700D03*
X143618000Y-78264700D03*
X142818000Y-78264700D03*
X142018000Y-78264700D03*
X138818000Y-78264700D03*
X138018000Y-78264700D03*
X137218000Y-78264700D03*
X143618000Y-77464700D03*
X142818000Y-77464700D03*
X142018000Y-77464700D03*
X138818000Y-77464700D03*
X138018000Y-77464700D03*
X137218000Y-77464700D03*
X143618000Y-76664700D03*
X142818000Y-76664700D03*
X142018000Y-76664700D03*
X138818000Y-76664700D03*
X138018000Y-76664700D03*
X137218000Y-76664700D03*
X143618000Y-75864700D03*
X142818000Y-75864700D03*
X142018000Y-75864700D03*
X138818000Y-75864700D03*
X138018000Y-75864700D03*
X137218000Y-75864700D03*
X143618000Y-75064700D03*
X142818000Y-75064700D03*
X142018000Y-75064700D03*
X138818000Y-75064700D03*
X138018000Y-75064700D03*
X137218000Y-75064700D03*
X143618000Y-74264700D03*
X142818000Y-74264700D03*
X142018000Y-74264700D03*
X138818000Y-74264700D03*
X138018000Y-74264700D03*
X137218000Y-74264700D03*
X143618000Y-73464700D03*
X142818000Y-73464700D03*
X142018000Y-73464700D03*
X138818000Y-73464700D03*
X138018000Y-73464700D03*
X137218000Y-73464700D03*
X143618000Y-72664700D03*
X142818000Y-72664700D03*
X142018000Y-72664700D03*
X138818000Y-72664700D03*
X138018000Y-72664700D03*
X137218000Y-72664700D03*
X143618000Y-71864700D03*
X142818000Y-71864700D03*
X142018000Y-71864700D03*
X138818000Y-71864700D03*
X138018000Y-71864700D03*
X137218000Y-71864700D03*
X143618000Y-71064700D03*
X142818000Y-71064700D03*
X142018000Y-71064700D03*
X138818000Y-71064700D03*
X138018000Y-71064700D03*
X137218000Y-71064700D03*
X143618000Y-70264700D03*
X142818000Y-70264700D03*
X142018000Y-70264700D03*
X138818000Y-70264700D03*
X138018000Y-70264700D03*
X137218000Y-70264700D03*
X143618000Y-69464700D03*
X142818000Y-69464700D03*
X142018000Y-69464700D03*
X138818000Y-69464700D03*
X138018000Y-69464700D03*
X137218000Y-69464700D03*
X143618000Y-68664700D03*
X142818000Y-68664700D03*
X142018000Y-68664700D03*
X138818000Y-68664700D03*
X138018000Y-68664700D03*
X137218000Y-68664700D03*
%TD*%
D20*
%TO.C,R63*%
X162433000Y-109704600D03*
X162433000Y-108684600D03*
%TD*%
D54*
%TO.C,C124*%
X137797600Y-51155600D03*
X138757600Y-51155600D03*
%TD*%
%TO.C,C128*%
X163350000Y-57150000D03*
X164310000Y-57150000D03*
%TD*%
D61*
%TO.C,C87*%
X116680000Y-56432000D03*
X122080000Y-56432000D03*
%TD*%
D25*
%TO.C,F10*%
X110106000Y-70275000D03*
X112906000Y-70275000D03*
%TD*%
D20*
%TO.C,R106*%
X193802000Y-95912400D03*
X193802000Y-94892400D03*
%TD*%
D11*
%TO.C,C29*%
X148494400Y-75731500D03*
X147534400Y-75731500D03*
%TD*%
D18*
%TO.C,R251*%
X121412000Y-70102000D03*
X121412000Y-71122000D03*
%TD*%
%TO.C,R86*%
X207365600Y-112824800D03*
X207365600Y-113844800D03*
%TD*%
D62*
%TO.C,TP44*%
X118110000Y-81026000D03*
%TD*%
D24*
%TO.C,R54*%
X148518306Y-76682600D03*
X147498306Y-76682600D03*
%TD*%
D10*
%TO.C,C98*%
X209169000Y-69949000D03*
X209169000Y-68989000D03*
%TD*%
D52*
%TO.C,F1*%
X178282600Y-54483000D03*
X175482600Y-54483000D03*
%TD*%
D10*
%TO.C,C136*%
X126187200Y-113027400D03*
X126187200Y-112067400D03*
%TD*%
D18*
%TO.C,R167*%
X124917200Y-112037400D03*
X124917200Y-113057400D03*
%TD*%
D20*
%TO.C,R87*%
X216154000Y-123700000D03*
X216154000Y-122680000D03*
%TD*%
D52*
%TO.C,F3*%
X144656000Y-97917000D03*
X141856000Y-97917000D03*
%TD*%
D17*
%TO.C,C117*%
X120396000Y-72390000D03*
X120396000Y-73350000D03*
%TD*%
D16*
%TO.C,TP31*%
X128701800Y-120472200D03*
%TD*%
D63*
%TO.C,U4*%
X112125000Y-54086000D03*
X111625000Y-54086000D03*
X111125000Y-54086000D03*
X112125000Y-53586000D03*
X111625000Y-53586000D03*
X111125000Y-53586000D03*
X112125000Y-53086000D03*
X111625000Y-53086000D03*
X111125000Y-53086000D03*
X112125000Y-52586000D03*
X111625000Y-52586000D03*
X111125000Y-52586000D03*
X112125000Y-52086000D03*
X111625000Y-52086000D03*
X111125000Y-52086000D03*
%TD*%
D20*
%TO.C,R174*%
X219202000Y-65915000D03*
X219202000Y-64895000D03*
%TD*%
D13*
%TO.C,R90*%
X203706000Y-106248200D03*
X204726000Y-106248200D03*
%TD*%
D20*
%TO.C,R61*%
X158816040Y-107696000D03*
X158816040Y-106676000D03*
%TD*%
D24*
%TO.C,R189*%
X210314000Y-67183000D03*
X209294000Y-67183000D03*
%TD*%
D13*
%TO.C,R59*%
X146234000Y-89396700D03*
X147254000Y-89396700D03*
%TD*%
D20*
%TO.C,R52*%
X150552000Y-96764700D03*
X150552000Y-95744700D03*
%TD*%
D24*
%TO.C,R168*%
X220601000Y-70967600D03*
X219581000Y-70967600D03*
%TD*%
D13*
%TO.C,R60*%
X146234000Y-90666700D03*
X147254000Y-90666700D03*
%TD*%
D62*
%TO.C,TP57*%
X220599000Y-93218000D03*
%TD*%
D34*
%TO.C,FID2*%
X216992200Y-120116600D03*
%TD*%
D52*
%TO.C,F13*%
X166246000Y-53340000D03*
X163446000Y-53340000D03*
%TD*%
D20*
%TO.C,R239*%
X110490000Y-50691000D03*
X110490000Y-49671000D03*
%TD*%
D28*
%TO.C,TP7*%
X145878800Y-76315700D03*
%TD*%
D13*
%TO.C,R55*%
X147504400Y-77661900D03*
X148524400Y-77661900D03*
%TD*%
D24*
%TO.C,R83*%
X213870000Y-106426000D03*
X212850000Y-106426000D03*
%TD*%
D13*
%TO.C,R179*%
X199007000Y-53975000D03*
X200027000Y-53975000D03*
%TD*%
%TO.C,R219*%
X169289000Y-91567000D03*
X170309000Y-91567000D03*
%TD*%
D20*
%TO.C,R273*%
X108458000Y-108841000D03*
X108458000Y-107821000D03*
%TD*%
D16*
%TO.C,TP28*%
X181102000Y-96266000D03*
%TD*%
D24*
%TO.C,R188*%
X204192600Y-103886000D03*
X203172600Y-103886000D03*
%TD*%
D13*
%TO.C,R260*%
X134465600Y-56997600D03*
X135485600Y-56997600D03*
%TD*%
D51*
%TO.C,C133*%
X102476000Y-53274001D03*
X104026000Y-53274001D03*
%TD*%
D54*
%TO.C,C90*%
X146264000Y-93232100D03*
X147224000Y-93232100D03*
%TD*%
D53*
%TO.C,R176*%
X202819000Y-52117000D03*
X202819000Y-50292000D03*
%TD*%
D18*
%TO.C,R159*%
X139141200Y-109954600D03*
X139141200Y-110974600D03*
%TD*%
D46*
%TO.C,TP43*%
X118110000Y-62484000D03*
%TD*%
D24*
%TO.C,R258*%
X135485600Y-55473600D03*
X134465600Y-55473600D03*
%TD*%
D18*
%TO.C,R263*%
X100838000Y-107059000D03*
X100838000Y-108079000D03*
%TD*%
D17*
%TO.C,C92*%
X181737000Y-98197000D03*
X181737000Y-99157000D03*
%TD*%
D18*
%TO.C,R241*%
X108585000Y-52846000D03*
X108585000Y-53866000D03*
%TD*%
D54*
%TO.C,C102*%
X199037000Y-48918500D03*
X199997000Y-48918500D03*
%TD*%
D10*
%TO.C,C100*%
X212979000Y-51661000D03*
X212979000Y-50701000D03*
%TD*%
D52*
%TO.C,F12*%
X135188600Y-53441600D03*
X132388600Y-53441600D03*
%TD*%
D10*
%TO.C,C111*%
X108966000Y-78204000D03*
X108966000Y-77244000D03*
%TD*%
D57*
%TO.C,SW2*%
X212321800Y-85090000D03*
X212321800Y-83820000D03*
X212321800Y-82550000D03*
X212321800Y-81280000D03*
X206171800Y-81280000D03*
X206171800Y-82550000D03*
X206171800Y-83820000D03*
X206171800Y-85090000D03*
%TD*%
D13*
%TO.C,R223*%
X169293000Y-89535000D03*
X170313000Y-89535000D03*
%TD*%
D39*
%TO.C,C126*%
X143370600Y-55727600D03*
X141820600Y-55727600D03*
%TD*%
D13*
%TO.C,R231*%
X167003000Y-79629000D03*
X168023000Y-79629000D03*
%TD*%
%TO.C,R264*%
X95416000Y-110240000D03*
X96436000Y-110240000D03*
%TD*%
D51*
%TO.C,C122*%
X137502600Y-52679600D03*
X139052600Y-52679600D03*
%TD*%
D64*
%TO.C,C82*%
X136906000Y-109461000D03*
X136906000Y-111011000D03*
%TD*%
D18*
%TO.C,R262*%
X99568000Y-107059000D03*
X99568000Y-108079000D03*
%TD*%
D25*
%TO.C,F17*%
X180562600Y-59055000D03*
X183362600Y-59055000D03*
%TD*%
D18*
%TO.C,R278*%
X105511600Y-114679000D03*
X105511600Y-115699000D03*
%TD*%
D23*
%TO.C,L2*%
X214229000Y-61829500D03*
X214229000Y-57379500D03*
X211729000Y-57379500D03*
X211729000Y-61829500D03*
%TD*%
D65*
%TO.C,C86*%
X114620000Y-50181000D03*
X116520000Y-50181000D03*
%TD*%
D18*
%TO.C,R175*%
X217932000Y-64895000D03*
X217932000Y-65915000D03*
%TD*%
D11*
%TO.C,C132*%
X166276001Y-64918999D03*
X165316001Y-64918999D03*
%TD*%
D66*
%TO.C,U1*%
X163442000Y-80812700D03*
X163442000Y-81612700D03*
X163442000Y-82412700D03*
X163442000Y-83212700D03*
X163442000Y-84012700D03*
X163442000Y-84812700D03*
X163442000Y-85612700D03*
X163442000Y-86412700D03*
X163442000Y-87212700D03*
X163442000Y-88012700D03*
X163442000Y-88812700D03*
X163442000Y-89612700D03*
X163442000Y-90412700D03*
X163442000Y-91212700D03*
X163442000Y-92012700D03*
X163442000Y-92812700D03*
X163442000Y-93612700D03*
X162642000Y-80812700D03*
X162642000Y-81612700D03*
X162642000Y-82412700D03*
X162642000Y-83212700D03*
X162642000Y-84012700D03*
X162642000Y-84812700D03*
X162642000Y-85612700D03*
X162642000Y-86412700D03*
X162642000Y-87212700D03*
X162642000Y-88012700D03*
X162642000Y-88812700D03*
X162642000Y-89612700D03*
X162642000Y-90412700D03*
X162642000Y-91212700D03*
X162642000Y-92012700D03*
X162642000Y-92812700D03*
X162642000Y-93612700D03*
X161842000Y-80812700D03*
X161842000Y-81612700D03*
X161842000Y-82412700D03*
X161842000Y-83212700D03*
X161842000Y-84012700D03*
X161842000Y-84812700D03*
X161842000Y-85612700D03*
X161842000Y-86412700D03*
X161842000Y-87212700D03*
X161842000Y-88012700D03*
X161842000Y-88812700D03*
X161842000Y-89612700D03*
X161842000Y-90412700D03*
X161842000Y-91212700D03*
X161842000Y-92012700D03*
X161842000Y-92812700D03*
X161842000Y-93612700D03*
X161042000Y-80812700D03*
X161042000Y-81612700D03*
X161042000Y-82412700D03*
X161042000Y-83212700D03*
X161042000Y-84012700D03*
X161042000Y-84812700D03*
X161042000Y-85612700D03*
X161042000Y-86412700D03*
X161042000Y-87212700D03*
X161042000Y-88012700D03*
X161042000Y-88812700D03*
X161042000Y-89612700D03*
X161042000Y-90412700D03*
X161042000Y-91212700D03*
X161042000Y-92012700D03*
X161042000Y-92812700D03*
X161042000Y-93612700D03*
X160242000Y-80812700D03*
X160242000Y-81612700D03*
X160242000Y-82412700D03*
X160242000Y-83212700D03*
X160242000Y-84012700D03*
X160242000Y-84812700D03*
X160242000Y-85612700D03*
X160242000Y-86412700D03*
X160242000Y-87212700D03*
X160242000Y-88012700D03*
X160242000Y-88812700D03*
X160242000Y-89612700D03*
X160242000Y-90412700D03*
X160242000Y-91212700D03*
X160242000Y-92012700D03*
X160242000Y-92812700D03*
X160242000Y-93612700D03*
X159442000Y-80812700D03*
X159442000Y-81612700D03*
X159442000Y-82412700D03*
X159442000Y-83212700D03*
X159442000Y-84012700D03*
X159442000Y-84812700D03*
X159442000Y-85612700D03*
X159442000Y-86412700D03*
X159442000Y-87212700D03*
X159442000Y-88012700D03*
X159442000Y-88812700D03*
X159442000Y-89612700D03*
X159442000Y-90412700D03*
X159442000Y-91212700D03*
X159442000Y-92012700D03*
X159442000Y-92812700D03*
X159442000Y-93612700D03*
X158642000Y-80812700D03*
X158642000Y-81612700D03*
X158642000Y-82412700D03*
X158642000Y-83212700D03*
X158642000Y-84012700D03*
X158642000Y-84812700D03*
X158642000Y-85612700D03*
X158642000Y-86412700D03*
X158642000Y-87212700D03*
X158642000Y-88012700D03*
X158642000Y-88812700D03*
X158642000Y-89612700D03*
X158642000Y-90412700D03*
X158642000Y-91212700D03*
X158642000Y-92012700D03*
X158642000Y-92812700D03*
X158642000Y-93612700D03*
X157842000Y-80812700D03*
X157842000Y-81612700D03*
X157842000Y-82412700D03*
X157842000Y-83212700D03*
X157842000Y-84012700D03*
X157842000Y-84812700D03*
X157842000Y-85612700D03*
X157842000Y-86412700D03*
X157842000Y-87212700D03*
X157842000Y-88012700D03*
X157842000Y-88812700D03*
X157842000Y-89612700D03*
X157842000Y-90412700D03*
X157842000Y-91212700D03*
X157842000Y-92012700D03*
X157842000Y-92812700D03*
X157842000Y-93612700D03*
X157042000Y-80812700D03*
X157042000Y-81612700D03*
X157042000Y-82412700D03*
X157042000Y-83212700D03*
X157042000Y-84012700D03*
X157042000Y-84812700D03*
X157042000Y-85612700D03*
X157042000Y-86412700D03*
X157042000Y-87212700D03*
X157042000Y-88012700D03*
X157042000Y-88812700D03*
X157042000Y-89612700D03*
X157042000Y-90412700D03*
X157042000Y-91212700D03*
X157042000Y-92012700D03*
X157042000Y-92812700D03*
X157042000Y-93612700D03*
X156242000Y-80812700D03*
X156242000Y-81612700D03*
X156242000Y-82412700D03*
X156242000Y-83212700D03*
X156242000Y-84012700D03*
X156242000Y-84812700D03*
X156242000Y-85612700D03*
X156242000Y-86412700D03*
X156242000Y-87212700D03*
X156242000Y-88012700D03*
X156242000Y-88812700D03*
X156242000Y-89612700D03*
X156242000Y-90412700D03*
X156242000Y-91212700D03*
X156242000Y-92012700D03*
X156242000Y-92812700D03*
X156242000Y-93612700D03*
X155442000Y-80812700D03*
X155442000Y-81612700D03*
X155442000Y-82412700D03*
X155442000Y-83212700D03*
X155442000Y-84012700D03*
X155442000Y-84812700D03*
X155442000Y-85612700D03*
X155442000Y-86412700D03*
X155442000Y-87212700D03*
X155442000Y-88012700D03*
X155442000Y-88812700D03*
X155442000Y-89612700D03*
X155442000Y-90412700D03*
X155442000Y-91212700D03*
X155442000Y-92012700D03*
X155442000Y-92812700D03*
X155442000Y-93612700D03*
X154642000Y-80812700D03*
X154642000Y-81612700D03*
X154642000Y-82412700D03*
X154642000Y-83212700D03*
X154642000Y-84012700D03*
X154642000Y-84812700D03*
X154642000Y-85612700D03*
X154642000Y-86412700D03*
X154642000Y-87212700D03*
X154642000Y-88012700D03*
X154642000Y-88812700D03*
X154642000Y-89612700D03*
X154642000Y-90412700D03*
X154642000Y-91212700D03*
X154642000Y-92012700D03*
X154642000Y-92812700D03*
X154642000Y-93612700D03*
X153842000Y-80812700D03*
X153842000Y-81612700D03*
X153842000Y-82412700D03*
X153842000Y-83212700D03*
X153842000Y-84012700D03*
X153842000Y-84812700D03*
X153842000Y-85612700D03*
X153842000Y-86412700D03*
X153842000Y-87212700D03*
X153842000Y-88012700D03*
X153842000Y-88812700D03*
X153842000Y-89612700D03*
X153842000Y-90412700D03*
X153842000Y-91212700D03*
X153842000Y-92012700D03*
X153842000Y-92812700D03*
X153842000Y-93612700D03*
X153042000Y-80812700D03*
X153042000Y-81612700D03*
X153042000Y-82412700D03*
X153042000Y-83212700D03*
X153042000Y-84012700D03*
X153042000Y-84812700D03*
X153042000Y-85612700D03*
X153042000Y-86412700D03*
X153042000Y-87212700D03*
X153042000Y-88012700D03*
X153042000Y-88812700D03*
X153042000Y-89612700D03*
X153042000Y-90412700D03*
X153042000Y-91212700D03*
X153042000Y-92012700D03*
X153042000Y-92812700D03*
X153042000Y-93612700D03*
X152242000Y-80812700D03*
X152242000Y-81612700D03*
X152242000Y-82412700D03*
X152242000Y-83212700D03*
X152242000Y-84012700D03*
X152242000Y-84812700D03*
X152242000Y-85612700D03*
X152242000Y-86412700D03*
X152242000Y-87212700D03*
X152242000Y-88012700D03*
X152242000Y-88812700D03*
X152242000Y-89612700D03*
X152242000Y-90412700D03*
X152242000Y-91212700D03*
X152242000Y-92012700D03*
X152242000Y-92812700D03*
X152242000Y-93612700D03*
X151442000Y-80812700D03*
X151442000Y-81612700D03*
X151442000Y-82412700D03*
X151442000Y-83212700D03*
X151442000Y-84012700D03*
X151442000Y-84812700D03*
X151442000Y-85612700D03*
X151442000Y-86412700D03*
X151442000Y-87212700D03*
X151442000Y-88012700D03*
X151442000Y-88812700D03*
X151442000Y-89612700D03*
X151442000Y-90412700D03*
X151442000Y-91212700D03*
X151442000Y-92012700D03*
X151442000Y-92812700D03*
X151442000Y-93612700D03*
X150642000Y-80812700D03*
X150642000Y-81612700D03*
X150642000Y-82412700D03*
X150642000Y-83212700D03*
X150642000Y-84012700D03*
X150642000Y-84812700D03*
X150642000Y-85612700D03*
X150642000Y-86412700D03*
X150642000Y-87212700D03*
X150642000Y-88012700D03*
X150642000Y-88812700D03*
X150642000Y-89612700D03*
X150642000Y-90412700D03*
X150642000Y-91212700D03*
X150642000Y-92012700D03*
X150642000Y-92812700D03*
X150642000Y-93612700D03*
%TD*%
D13*
%TO.C,R173*%
X215644000Y-65913000D03*
X216664000Y-65913000D03*
%TD*%
D54*
%TO.C,C60*%
X149767600Y-78550900D03*
X150727600Y-78550900D03*
%TD*%
D51*
%TO.C,C113*%
X105905000Y-79248000D03*
X107455000Y-79248000D03*
%TD*%
D10*
%TO.C,C46*%
X210312004Y-109446000D03*
X210312004Y-108486000D03*
%TD*%
D53*
%TO.C,R275*%
X108331000Y-121562500D03*
X108331000Y-119737500D03*
%TD*%
D13*
%TO.C,R267*%
X125248000Y-116840000D03*
X126268000Y-116840000D03*
%TD*%
%TO.C,R166*%
X202690000Y-74295000D03*
X203710000Y-74295000D03*
%TD*%
D54*
%TO.C,C96*%
X219611000Y-69697600D03*
X220571000Y-69697600D03*
%TD*%
D67*
%TO.C,Y1*%
X150478000Y-100142700D03*
X152658000Y-100142700D03*
X152658000Y-98462700D03*
X150478000Y-98462700D03*
%TD*%
D20*
%TO.C,R280*%
X106654600Y-115699000D03*
X106654600Y-114679000D03*
%TD*%
D13*
%TO.C,R235*%
X167003000Y-81661000D03*
X168023000Y-81661000D03*
%TD*%
D54*
%TO.C,C104*%
X210721000Y-48895000D03*
X211681000Y-48895000D03*
%TD*%
D20*
%TO.C,R72*%
X167858440Y-107696000D03*
X167858440Y-106676000D03*
%TD*%
D13*
%TO.C,R170*%
X201826400Y-65913000D03*
X202846400Y-65913000D03*
%TD*%
D68*
%TO.C,U9*%
X128057001Y-118084600D03*
X128706999Y-118084600D03*
X129357001Y-118084600D03*
X130006999Y-118084600D03*
X130006999Y-113563400D03*
X129357001Y-113563400D03*
X128706999Y-113563400D03*
X128057001Y-113563400D03*
%TD*%
D13*
%TO.C,R181*%
X210691000Y-53975000D03*
X211711000Y-53975000D03*
%TD*%
D31*
%TO.C,H4*%
X220980000Y-121920000D03*
X221682944Y-120222944D03*
X221682944Y-123617056D03*
X223380000Y-119520000D03*
D32*
X223380000Y-121920000D03*
D31*
X223380000Y-124320000D03*
X225077056Y-120222944D03*
X225077056Y-123617056D03*
X225780000Y-121920000D03*
%TD*%
D69*
%TO.C,J4*%
X180915000Y-116658000D03*
X192345000Y-116658000D03*
D70*
X191075000Y-107768000D03*
D71*
X189805000Y-110308000D03*
X188535000Y-107768000D03*
X187265000Y-110308000D03*
X185995000Y-107768000D03*
X184725000Y-110308000D03*
X183455000Y-107768000D03*
X182185000Y-110308000D03*
D72*
X192095000Y-102938000D03*
X189555000Y-102938000D03*
X183705000Y-102938000D03*
X181165000Y-102938000D03*
D73*
X178730000Y-113608000D03*
X194530000Y-113608000D03*
%TD*%
D53*
%TO.C,R182*%
X214630000Y-52093500D03*
X214630000Y-50268500D03*
%TD*%
D34*
%TO.C,FID1*%
X100330000Y-43180000D03*
%TD*%
D39*
%TO.C,C131*%
X166063001Y-63394999D03*
X164513001Y-63394999D03*
%TD*%
D18*
%TO.C,R158*%
X140360400Y-109954600D03*
X140360400Y-110974600D03*
%TD*%
D11*
%TO.C,C115*%
X104874000Y-73914000D03*
X103914000Y-73914000D03*
%TD*%
D74*
%TO.C,J2*%
X205644000Y-121127500D03*
X211424000Y-121127500D03*
D75*
X205334000Y-120052500D03*
X206134000Y-120052500D03*
D76*
X207284000Y-120052500D03*
X208284000Y-120052500D03*
X208784000Y-120052500D03*
X209784000Y-120052500D03*
D75*
X211734000Y-120052500D03*
X210934000Y-120052500D03*
D76*
X210284000Y-120052500D03*
X209284000Y-120052500D03*
X207784000Y-120052500D03*
X206784000Y-120052500D03*
D77*
X203424000Y-120627500D03*
X213644000Y-120627500D03*
X203424000Y-124557500D03*
X213644000Y-124557500D03*
%TD*%
D25*
%TO.C,F2*%
X180562600Y-54483000D03*
X183362600Y-54483000D03*
%TD*%
D62*
%TO.C,TP45*%
X145669000Y-59436000D03*
%TD*%
D78*
%TO.C,C120*%
X122682000Y-78753000D03*
X122682000Y-77203000D03*
%TD*%
D20*
%TO.C,R73*%
X166029640Y-107698000D03*
X166029640Y-106678000D03*
%TD*%
D50*
%TO.C,H7*%
X214884000Y-117221000D03*
%TD*%
D54*
%TO.C,C134*%
X102263000Y-51750001D03*
X103223000Y-51750001D03*
%TD*%
D20*
%TO.C,R64*%
X164256720Y-109702600D03*
X164256720Y-108682600D03*
%TD*%
D52*
%TO.C,F7*%
X200282000Y-45720000D03*
X197482000Y-45720000D03*
%TD*%
D20*
%TO.C,R67*%
X166039800Y-109679200D03*
X166039800Y-108659200D03*
%TD*%
D64*
%TO.C,C118*%
X125730000Y-72631000D03*
X125730000Y-74181000D03*
%TD*%
D18*
%TO.C,R163*%
X154305000Y-113536000D03*
X154305000Y-114556000D03*
%TD*%
D79*
%TO.C,D8*%
X105029000Y-119381500D03*
D80*
X102489000Y-119381500D03*
X105029000Y-121921500D03*
X102489000Y-121921500D03*
%TD*%
D20*
%TO.C,R68*%
X154178000Y-120652000D03*
X154178000Y-119632000D03*
%TD*%
D59*
%TO.C,F19*%
X213614000Y-109090000D03*
X213614000Y-111890000D03*
%TD*%
D22*
%TO.C,L3*%
X102616000Y-76045000D03*
X102616000Y-79745000D03*
%TD*%
D20*
%TO.C,R65*%
X160629600Y-109679200D03*
X160629600Y-108659200D03*
%TD*%
D18*
%TO.C,R85*%
X206298800Y-112824800D03*
X206298800Y-113844800D03*
%TD*%
D52*
%TO.C,F5*%
X178311000Y-63627000D03*
X175511000Y-63627000D03*
%TD*%
D16*
%TO.C,TP27*%
X189458600Y-100177600D03*
%TD*%
D47*
%TO.C,D4*%
X201676000Y-108536500D03*
X201676000Y-110411500D03*
%TD*%
D18*
%TO.C,R142*%
X180721000Y-98167000D03*
X180721000Y-99187000D03*
%TD*%
D81*
%TO.C,J8*%
X204480000Y-41890000D03*
D34*
X204480000Y-44430000D03*
X207020000Y-41890000D03*
X207020000Y-44430000D03*
X209560000Y-41890000D03*
X209560000Y-44430000D03*
X212100000Y-41890000D03*
X212100000Y-44430000D03*
%TD*%
D56*
%TO.C,F9*%
X112425000Y-50295000D03*
X112425000Y-47495000D03*
%TD*%
D24*
%TO.C,R191*%
X196445600Y-67005200D03*
X195425600Y-67005200D03*
%TD*%
D18*
%TO.C,R244*%
X110617000Y-72896000D03*
X110617000Y-73916000D03*
%TD*%
D82*
%TO.C,U12*%
X102432000Y-55118000D03*
X102432000Y-57017999D03*
X104832000Y-56068001D03*
%TD*%
D83*
%TO.C,J5*%
X136200000Y-114406000D03*
X138700000Y-114406000D03*
X140700000Y-114406000D03*
X143200000Y-114406000D03*
D84*
X133130000Y-117116000D03*
X146270000Y-117116000D03*
%TD*%
D13*
%TO.C,R222*%
X169293000Y-90551000D03*
X170313000Y-90551000D03*
%TD*%
D85*
%TO.C,U17*%
X123388000Y-111726000D03*
X121468000Y-111726000D03*
X122428000Y-113826000D03*
%TD*%
D11*
%TO.C,C27*%
X150035200Y-102158800D03*
X149075200Y-102158800D03*
%TD*%
D13*
%TO.C,R224*%
X169293000Y-88519000D03*
X170313000Y-88519000D03*
%TD*%
D46*
%TO.C,TP46*%
X171130001Y-63648999D03*
%TD*%
D11*
%TO.C,C31*%
X141128000Y-88152100D03*
X140168000Y-88152100D03*
%TD*%
%TO.C,C95*%
X203708000Y-73025000D03*
X202748000Y-73025000D03*
%TD*%
D86*
%TO.C,U6*%
X182444000Y-82296000D03*
X182444000Y-81796000D03*
X182444000Y-81296000D03*
X182444000Y-80796000D03*
X182444000Y-80296000D03*
X182444000Y-79796000D03*
X182444000Y-79296000D03*
X182444000Y-78796000D03*
X182444000Y-78296000D03*
X182444000Y-77796000D03*
X182444000Y-77296000D03*
X182444000Y-76796000D03*
X182444000Y-76296000D03*
X182444000Y-75796000D03*
X182944000Y-82296000D03*
X182944000Y-81796000D03*
X182944000Y-81296000D03*
X182944000Y-80796000D03*
X182944000Y-80296000D03*
X182944000Y-79796000D03*
X182944000Y-79296000D03*
X182944000Y-78796000D03*
X182944000Y-78296000D03*
X182944000Y-77796000D03*
X182944000Y-77296000D03*
X182944000Y-76796000D03*
X182944000Y-76296000D03*
X182944000Y-75796000D03*
X183444000Y-82296000D03*
X183444000Y-81796000D03*
X183444000Y-81296000D03*
X183444000Y-80796000D03*
X183444000Y-80296000D03*
X183444000Y-79796000D03*
X183444000Y-79296000D03*
X183444000Y-78796000D03*
X183444000Y-78296000D03*
X183444000Y-77796000D03*
X183444000Y-77296000D03*
X183444000Y-76796000D03*
X183444000Y-76296000D03*
X183444000Y-75796000D03*
X183944000Y-82296000D03*
X183944000Y-81796000D03*
X183944000Y-81296000D03*
X183944000Y-80796000D03*
X183944000Y-76796000D03*
X183944000Y-76296000D03*
X183944000Y-75796000D03*
X184444000Y-82296000D03*
X184444000Y-81796000D03*
X184444000Y-81296000D03*
X184444000Y-80296000D03*
X184444000Y-79796000D03*
X184444000Y-79296000D03*
X184444000Y-78796000D03*
X184444000Y-78296000D03*
X184444000Y-77796000D03*
X184444000Y-76796000D03*
X184444000Y-76296000D03*
X184444000Y-75796000D03*
X184944000Y-82296000D03*
X184944000Y-81796000D03*
X184944000Y-81296000D03*
X184944000Y-80296000D03*
X184944000Y-77796000D03*
X184944000Y-76796000D03*
X184944000Y-76296000D03*
X184944000Y-75796000D03*
X185444000Y-82296000D03*
X185444000Y-81796000D03*
X185444000Y-81296000D03*
X185444000Y-80296000D03*
X185444000Y-77796000D03*
X185444000Y-76796000D03*
X185444000Y-76296000D03*
X185444000Y-75796000D03*
X185944000Y-82296000D03*
X185944000Y-81796000D03*
X185944000Y-81296000D03*
X185944000Y-80296000D03*
X185944000Y-77796000D03*
X185944000Y-76796000D03*
X185944000Y-76296000D03*
X185944000Y-75796000D03*
X186444000Y-82296000D03*
X186444000Y-81796000D03*
X186444000Y-81296000D03*
X186444000Y-80296000D03*
X186444000Y-77796000D03*
X186444000Y-76796000D03*
X186444000Y-76296000D03*
X186444000Y-75796000D03*
X186944000Y-82296000D03*
X186944000Y-81796000D03*
X186944000Y-81296000D03*
X186944000Y-80296000D03*
X186944000Y-79796000D03*
X186944000Y-79296000D03*
X186944000Y-78796000D03*
X186944000Y-78296000D03*
X186944000Y-77796000D03*
X186944000Y-76796000D03*
X186944000Y-76296000D03*
X186944000Y-75796000D03*
X187444000Y-82296000D03*
X187444000Y-81796000D03*
X187444000Y-81296000D03*
X187444000Y-76796000D03*
X187444000Y-76296000D03*
X187444000Y-75796000D03*
X187944000Y-82296000D03*
X187944000Y-81796000D03*
X187944000Y-81296000D03*
X187944000Y-80796000D03*
X187944000Y-80296000D03*
X187944000Y-79796000D03*
X187944000Y-79296000D03*
X187944000Y-78796000D03*
X187944000Y-78296000D03*
X187944000Y-77796000D03*
X187944000Y-77296000D03*
X187944000Y-76796000D03*
X187944000Y-76296000D03*
X187944000Y-75796000D03*
X188444000Y-82296000D03*
X188444000Y-81796000D03*
X188444000Y-81296000D03*
X188444000Y-80796000D03*
X188444000Y-80296000D03*
X188444000Y-79796000D03*
X188444000Y-79296000D03*
X188444000Y-78796000D03*
X188444000Y-78296000D03*
X188444000Y-77796000D03*
X188444000Y-77296000D03*
X188444000Y-76796000D03*
X188444000Y-76296000D03*
X188444000Y-75796000D03*
X188944000Y-82296000D03*
X188944000Y-81796000D03*
X188944000Y-81296000D03*
X188944000Y-80796000D03*
X188944000Y-80296000D03*
X188944000Y-79796000D03*
X188944000Y-79296000D03*
X188944000Y-78796000D03*
X188944000Y-78296000D03*
X188944000Y-77796000D03*
X188944000Y-77296000D03*
X188944000Y-76796000D03*
X188944000Y-76296000D03*
X188944000Y-75796000D03*
%TD*%
D13*
%TO.C,R157*%
X191641000Y-98933000D03*
X192661000Y-98933000D03*
%TD*%
%TO.C,R84*%
X212850000Y-107442000D03*
X213870000Y-107442000D03*
%TD*%
D20*
%TO.C,R238*%
X119410000Y-43690000D03*
X119410000Y-42670000D03*
%TD*%
D16*
%TO.C,TP33*%
X143814800Y-108229400D03*
%TD*%
D11*
%TO.C,C127*%
X142567600Y-57251600D03*
X141607600Y-57251600D03*
%TD*%
D20*
%TO.C,R70*%
X164261800Y-107721400D03*
X164261800Y-106701400D03*
%TD*%
D13*
%TO.C,R53*%
X151610600Y-96723200D03*
X152630600Y-96723200D03*
%TD*%
D48*
%TO.C,R183*%
X211201000Y-50268500D03*
X211201000Y-52093500D03*
%TD*%
D54*
%TO.C,C105*%
X146264000Y-92089100D03*
X147224000Y-92089100D03*
%TD*%
D87*
%TO.C,U7*%
X184813001Y-98107500D03*
X185313000Y-98107500D03*
X185812999Y-98107500D03*
X186313000Y-98107500D03*
X186813000Y-98107500D03*
X187313001Y-98107500D03*
X187813000Y-98107500D03*
X188312999Y-98107500D03*
D88*
X189039500Y-97380999D03*
X189039500Y-96881000D03*
X189039500Y-96381001D03*
X189039500Y-95881000D03*
X189039500Y-95381000D03*
X189039500Y-94880999D03*
X189039500Y-94381000D03*
X189039500Y-93881001D03*
D87*
X188312999Y-93154500D03*
X187813000Y-93154500D03*
X187313001Y-93154500D03*
X186813000Y-93154500D03*
X186313000Y-93154500D03*
X185812999Y-93154500D03*
X185313000Y-93154500D03*
X184813001Y-93154500D03*
D88*
X184086500Y-93881001D03*
X184086500Y-94381000D03*
X184086500Y-94880999D03*
X184086500Y-95381000D03*
X184086500Y-95881000D03*
X184086500Y-96381001D03*
X184086500Y-96881000D03*
X184086500Y-97380999D03*
%TD*%
D28*
%TO.C,TP55*%
X134855200Y-76087100D03*
%TD*%
D13*
%TO.C,R107*%
X194739800Y-96901000D03*
X195759800Y-96901000D03*
%TD*%
D89*
%TO.C,J1*%
X126365000Y-96647000D03*
X130435000Y-96647000D03*
X126365000Y-97917000D03*
X130435000Y-97917000D03*
X126365000Y-99187000D03*
X130435000Y-99187000D03*
X126365000Y-100457000D03*
X130435000Y-100457000D03*
X126365000Y-101727000D03*
X130435000Y-101727000D03*
%TD*%
D74*
%TO.C,J6*%
X114680000Y-43972500D03*
X108900000Y-43972500D03*
D90*
X114990000Y-45047500D03*
X114190000Y-45047500D03*
D91*
X113040000Y-45047500D03*
X112040000Y-45047500D03*
X111540000Y-45047500D03*
X110540000Y-45047500D03*
D90*
X108590000Y-45047500D03*
X109390000Y-45047500D03*
D91*
X110040000Y-45047500D03*
X111040000Y-45047500D03*
X112540000Y-45047500D03*
X113540000Y-45047500D03*
D92*
X116900000Y-44472500D03*
X106680000Y-44472500D03*
X116900000Y-40542500D03*
X106680000Y-40542500D03*
%TD*%
D46*
%TO.C,TP52*%
X97790000Y-63246000D03*
%TD*%
D50*
%TO.C,H5*%
X100330000Y-45847000D03*
%TD*%
D81*
%TO.C,J9*%
X133350000Y-41910000D03*
D34*
X133350000Y-44450000D03*
X135890000Y-41910000D03*
X135890000Y-44450000D03*
X138430000Y-41910000D03*
X138430000Y-44450000D03*
X140970000Y-41910000D03*
X140970000Y-44450000D03*
X143510000Y-41910000D03*
X143510000Y-44450000D03*
X146050000Y-41910000D03*
X146050000Y-44450000D03*
X148590000Y-41910000D03*
X148590000Y-44450000D03*
X151130000Y-41910000D03*
X151130000Y-44450000D03*
X153670000Y-41910000D03*
X153670000Y-44450000D03*
X156210000Y-41910000D03*
X156210000Y-44450000D03*
X158750000Y-41910000D03*
X158750000Y-44450000D03*
X161290000Y-41910000D03*
X161290000Y-44450000D03*
%TD*%
D10*
%TO.C,C93*%
X195326000Y-69949000D03*
X195326000Y-68989000D03*
%TD*%
D81*
%TO.C,J7*%
X172730000Y-41890000D03*
D34*
X172730000Y-44430000D03*
X175270000Y-41890000D03*
X175270000Y-44430000D03*
X177810000Y-41890000D03*
X177810000Y-44430000D03*
X180350000Y-41890000D03*
X180350000Y-44430000D03*
X182890000Y-41890000D03*
X182890000Y-44430000D03*
X185430000Y-41890000D03*
X185430000Y-44430000D03*
X187970000Y-41890000D03*
X187970000Y-44430000D03*
X190510000Y-41890000D03*
X190510000Y-44430000D03*
X193050000Y-41890000D03*
X193050000Y-44430000D03*
%TD*%
D24*
%TO.C,R190*%
X210314000Y-71755000D03*
X209294000Y-71755000D03*
%TD*%
D93*
%TO.C,U20*%
X207573800Y-118019200D03*
X208523800Y-118019200D03*
X209473800Y-118019200D03*
X209473800Y-115519200D03*
X208523800Y-115519200D03*
X207573800Y-115519200D03*
%TD*%
D24*
%TO.C,R180*%
X215140000Y-53975000D03*
X214120000Y-53975000D03*
%TD*%
D13*
%TO.C,R214*%
X169293000Y-87503000D03*
X170313000Y-87503000D03*
%TD*%
D24*
%TO.C,R115*%
X181231000Y-93472000D03*
X180211000Y-93472000D03*
%TD*%
M02*
