%TF.GenerationSoftware,KiCad,Pcbnew,9.0.6*%
%TF.CreationDate,2026-04-18T09:15:02-04:00*%
%TF.ProjectId,iMX6_BareBones,694d5836-5f42-4617-9265-426f6e65732e,1*%
%TF.SameCoordinates,Original*%
%TF.FileFunction,Soldermask,Top*%
%TF.FilePolarity,Negative*%
%FSLAX46Y46*%
G04 Gerber Fmt 4.6, Leading zero omitted, Abs format (unit mm)*
G04 Created by KiCad (PCBNEW 9.0.6) date 2026-04-18 09:15:02*
%MOMM*%
%LPD*%
G01*
G04 APERTURE LIST*
G04 Aperture macros list*
%AMRoundRect*
0 Rectangle with rounded corners*
0 $1 Rounding radius*
0 $2 $3 $4 $5 $6 $7 $8 $9 X,Y pos of 4 corners*
0 Add a 4 corners polygon primitive as box body*
4,1,4,$2,$3,$4,$5,$6,$7,$8,$9,$2,$3,0*
0 Add four circle primitives for the rounded corners*
1,1,$1+$1,$2,$3*
1,1,$1+$1,$4,$5*
1,1,$1+$1,$6,$7*
1,1,$1+$1,$8,$9*
0 Add four rect primitives between the rounded corners*
20,1,$1+$1,$2,$3,$4,$5,0*
20,1,$1+$1,$4,$5,$6,$7,0*
20,1,$1+$1,$6,$7,$8,$9,0*
20,1,$1+$1,$8,$9,$2,$3,0*%
G04 Aperture macros list end*
%ADD10C,0.100000*%
%ADD11C,0.150000*%
%ADD12C,0.300000*%
%ADD13C,0.400000*%
%ADD14RoundRect,0.165400X0.195400X-0.165400X0.195400X0.165400X-0.195400X0.165400X-0.195400X-0.165400X0*%
%ADD15RoundRect,0.165400X0.165400X0.195400X-0.165400X0.195400X-0.165400X-0.195400X0.165400X-0.195400X0*%
%ADD16RoundRect,0.087900X0.142900X0.087900X-0.142900X0.087900X-0.142900X-0.087900X0.142900X-0.087900X0*%
%ADD17RoundRect,0.160400X-0.160400X-0.210400X0.160400X-0.210400X0.160400X0.210400X-0.160400X0.210400X0*%
%ADD18RoundRect,0.087900X-0.087900X0.142900X-0.087900X-0.142900X0.087900X-0.142900X0.087900X0.142900X0*%
%ADD19RoundRect,0.050800X-0.299999X-0.500000X0.299999X-0.500000X0.299999X0.500000X-0.299999X0.500000X0*%
%ADD20C,0.863600*%
%ADD21RoundRect,0.165400X-0.195400X0.165400X-0.195400X-0.165400X0.195400X-0.165400X0.195400X0.165400X0*%
%ADD22RoundRect,0.160400X-0.210400X0.160400X-0.210400X-0.160400X0.210400X-0.160400X0.210400X0.160400X0*%
%ADD23RoundRect,0.050800X-0.525000X0.275000X-0.525000X-0.275000X0.525000X-0.275000X0.525000X0.275000X0*%
%ADD24RoundRect,0.160400X0.210400X-0.160400X0.210400X0.160400X-0.210400X0.160400X-0.210400X-0.160400X0*%
%ADD25C,1.801600*%
%ADD26RoundRect,0.102000X-1.200000X0.750000X-1.200000X-0.750000X1.200000X-0.750000X1.200000X0.750000X0*%
%ADD27RoundRect,0.102000X0.450000X-0.725000X0.450000X0.725000X-0.450000X0.725000X-0.450000X-0.725000X0*%
%ADD28RoundRect,0.160400X0.160400X0.210400X-0.160400X0.210400X-0.160400X-0.210400X0.160400X-0.210400X0*%
%ADD29RoundRect,0.270320X-0.405480X-0.655480X0.405480X-0.655480X0.405480X0.655480X-0.405480X0.655480X0*%
%ADD30RoundRect,0.025000X0.215000X0.155000X-0.215000X0.155000X-0.215000X-0.155000X0.215000X-0.155000X0*%
%ADD31RoundRect,0.025000X0.210000X0.155000X-0.210000X0.155000X-0.210000X-0.155000X0.210000X-0.155000X0*%
%ADD32C,0.558800*%
%ADD33RoundRect,0.050800X0.275000X0.525000X-0.275000X0.525000X-0.275000X-0.525000X0.275000X-0.525000X0*%
%ADD34RoundRect,0.050800X-0.304800X-0.139700X0.304800X-0.139700X0.304800X0.139700X-0.304800X0.139700X0*%
%ADD35C,0.901600*%
%ADD36C,6.501600*%
%ADD37RoundRect,0.050800X-0.525000X0.200000X-0.525000X-0.200000X0.525000X-0.200000X0.525000X0.200000X0*%
%ADD38C,2.000000*%
%ADD39RoundRect,0.050800X-0.900000X0.500000X-0.900000X-0.500000X0.900000X-0.500000X0.900000X0.500000X0*%
%ADD40RoundRect,0.030000X0.175000X-0.175000X0.175000X0.175000X-0.175000X0.175000X-0.175000X-0.175000X0*%
%ADD41RoundRect,0.040000X0.150000X-0.450000X0.150000X0.450000X-0.150000X0.450000X-0.150000X-0.450000X0*%
%ADD42RoundRect,0.040000X0.450000X-0.150000X0.450000X0.150000X-0.450000X0.150000X-0.450000X-0.150000X0*%
%ADD43RoundRect,0.250400X0.250400X0.275400X-0.250400X0.275400X-0.250400X-0.275400X0.250400X-0.275400X0*%
%ADD44RoundRect,0.100000X-0.575000X-1.100000X0.575000X-1.100000X0.575000X1.100000X-0.575000X1.100000X0*%
%ADD45RoundRect,0.100000X-0.575000X-0.600000X0.575000X-0.600000X0.575000X0.600000X-0.575000X0.600000X0*%
%ADD46RoundRect,0.100000X-0.750000X-0.575000X0.750000X-0.575000X0.750000X0.575000X-0.750000X0.575000X0*%
%ADD47RoundRect,0.100000X-0.575000X-1.250000X0.575000X-1.250000X0.575000X1.250000X-0.575000X1.250000X0*%
%ADD48RoundRect,0.050000X-0.400000X-0.620000X0.400000X-0.620000X0.400000X0.620000X-0.400000X0.620000X0*%
%ADD49RoundRect,0.100000X-0.575000X-0.625000X0.575000X-0.625000X0.575000X0.625000X-0.575000X0.625000X0*%
%ADD50RoundRect,0.102000X1.715000X0.890000X-1.715000X0.890000X-1.715000X-0.890000X1.715000X-0.890000X0*%
%ADD51RoundRect,0.269150X-0.481650X0.269150X-0.481650X-0.269150X0.481650X-0.269150X0.481650X0.269150X0*%
%ADD52RoundRect,0.274780X-0.476020X0.288520X-0.476020X-0.288520X0.476020X-0.288520X0.476020X0.288520X0*%
%ADD53RoundRect,0.102000X-0.750000X-1.200000X0.750000X-1.200000X0.750000X1.200000X-0.750000X1.200000X0*%
%ADD54C,1.300000*%
%ADD55RoundRect,0.250400X-0.250400X-0.275400X0.250400X-0.275400X0.250400X0.275400X-0.250400X0.275400X0*%
%ADD56RoundRect,0.270320X0.405480X0.655480X-0.405480X0.655480X-0.405480X-0.655480X0.405480X-0.655480X0*%
%ADD57RoundRect,0.274780X0.476020X-0.288520X0.476020X0.288520X-0.476020X0.288520X-0.476020X-0.288520X0*%
%ADD58RoundRect,0.165400X-0.165400X-0.195400X0.165400X-0.195400X0.165400X0.195400X-0.165400X0.195400X0*%
%ADD59RoundRect,0.050800X0.775000X-0.350000X0.775000X0.350000X-0.775000X0.350000X-0.775000X-0.350000X0*%
%ADD60RoundRect,0.270320X0.655480X-0.405480X0.655480X0.405480X-0.655480X0.405480X-0.655480X-0.405480X0*%
%ADD61RoundRect,0.215400X0.460400X0.215400X-0.460400X0.215400X-0.460400X-0.215400X0.460400X-0.215400X0*%
%ADD62RoundRect,0.050800X-0.177400X0.422649X-0.177400X-0.422649X0.177400X-0.422649X0.177400X0.422649X0*%
%ADD63RoundRect,0.270320X-0.655480X0.405480X-0.655480X-0.405480X0.655480X-0.405480X0.655480X0.405480X0*%
%ADD64C,0.634000*%
%ADD65RoundRect,0.265875X-1.534925X-0.584925X1.534925X-0.584925X1.534925X0.584925X-1.534925X0.584925X0*%
%ADD66RoundRect,0.102000X-1.715000X-0.890000X1.715000X-0.890000X1.715000X0.890000X-1.715000X0.890000X0*%
%ADD67C,0.386000*%
%ADD68RoundRect,0.250400X-0.275400X0.250400X-0.275400X-0.250400X0.275400X-0.250400X0.275400X0.250400X0*%
%ADD69RoundRect,0.275400X-0.275400X-0.500400X0.275400X-0.500400X0.275400X0.500400X-0.275400X0.500400X0*%
%ADD70C,0.471600*%
%ADD71RoundRect,0.161750X0.585250X-0.485250X0.585250X0.485250X-0.585250X0.485250X-0.585250X-0.485250X0*%
%ADD72RoundRect,0.050800X0.177800X-0.622300X0.177800X0.622300X-0.177800X0.622300X-0.177800X-0.622300X0*%
%ADD73C,3.351600*%
%ADD74RoundRect,0.050800X0.704000X0.704000X-0.704000X0.704000X-0.704000X-0.704000X0.704000X-0.704000X0*%
%ADD75C,1.509600*%
%ADD76C,1.631600*%
%ADD77C,2.501600*%
%ADD78C,0.751600*%
%ADD79RoundRect,0.040000X-0.300000X-0.575000X0.300000X-0.575000X0.300000X0.575000X-0.300000X0.575000X0*%
%ADD80RoundRect,0.040000X-0.150000X-0.575000X0.150000X-0.575000X0.150000X0.575000X-0.150000X0.575000X0*%
%ADD81RoundRect,0.050000X-1.090000X-1.000000X1.090000X-1.000000X1.090000X1.000000X-1.090000X1.000000X0*%
%ADD82RoundRect,0.250400X0.275400X-0.250400X0.275400X0.250400X-0.275400X0.250400X-0.275400X-0.250400X0*%
%ADD83RoundRect,0.102000X-0.704000X0.704000X-0.704000X-0.704000X0.704000X-0.704000X0.704000X0.704000X0*%
%ADD84C,1.612000*%
%ADD85RoundRect,0.150000X0.850000X-0.850000X0.850000X0.850000X-0.850000X0.850000X-0.850000X-0.850000X0*%
%ADD86RoundRect,0.050800X0.500000X-0.299999X0.500000X0.299999X-0.500000X0.299999X-0.500000X-0.299999X0*%
%ADD87C,1.632000*%
%ADD88C,3.520000*%
%ADD89RoundRect,0.050800X-0.325000X-0.550000X0.325000X-0.550000X0.325000X0.550000X-0.325000X0.550000X0*%
%ADD90C,0.355600*%
%ADD91RoundRect,0.050800X0.127000X0.431800X-0.127000X0.431800X-0.127000X-0.431800X0.127000X-0.431800X0*%
%ADD92RoundRect,0.050800X0.431800X-0.127000X0.431800X0.127000X-0.431800X0.127000X-0.431800X-0.127000X0*%
%ADD93RoundRect,0.102000X-1.395000X0.370000X-1.395000X-0.370000X1.395000X-0.370000X1.395000X0.370000X0*%
%ADD94RoundRect,0.040000X0.300000X0.575000X-0.300000X0.575000X-0.300000X-0.575000X0.300000X-0.575000X0*%
%ADD95RoundRect,0.040000X0.150000X0.575000X-0.150000X0.575000X-0.150000X-0.575000X0.150000X-0.575000X0*%
%ADD96RoundRect,0.050000X1.090000X1.000000X-1.090000X1.000000X-1.090000X-1.000000X1.090000X-1.000000X0*%
%ADD97RoundRect,0.050800X0.300000X0.600000X-0.300000X0.600000X-0.300000X-0.600000X0.300000X-0.600000X0*%
G04 APERTURE END LIST*
D10*
D11*
X177002200Y-166007200D02*
X285002200Y-166007200D01*
X285002200Y-198007200D01*
X177002200Y-198007200D01*
X177002200Y-166007200D01*
D10*
D11*
X10000000Y-10000000D02*
X287002200Y-10000000D01*
X287002200Y-200007200D01*
X10000000Y-200007200D01*
X10000000Y-10000000D01*
D10*
D11*
X12000000Y-12000000D02*
X285002200Y-12000000D01*
X285002200Y-198007200D01*
X12000000Y-198007200D01*
X12000000Y-12000000D01*
D10*
D11*
X60000000Y-12000000D02*
X60000000Y-10000000D01*
D10*
D11*
X110000000Y-12000000D02*
X110000000Y-10000000D01*
D10*
D11*
X160000000Y-12000000D02*
X160000000Y-10000000D01*
D10*
D11*
X210000000Y-12000000D02*
X210000000Y-10000000D01*
D10*
D11*
X260000000Y-12000000D02*
X260000000Y-10000000D01*
D10*
D11*
X36089160Y-11593604D02*
X35346303Y-11593604D01*
X35717731Y-11593604D02*
X35717731Y-10293604D01*
X35717731Y-10293604D02*
X35593922Y-10479319D01*
X35593922Y-10479319D02*
X35470112Y-10603128D01*
X35470112Y-10603128D02*
X35346303Y-10665033D01*
D10*
D11*
X85346303Y-10417414D02*
X85408207Y-10355509D01*
X85408207Y-10355509D02*
X85532017Y-10293604D01*
X85532017Y-10293604D02*
X85841541Y-10293604D01*
X85841541Y-10293604D02*
X85965350Y-10355509D01*
X85965350Y-10355509D02*
X86027255Y-10417414D01*
X86027255Y-10417414D02*
X86089160Y-10541223D01*
X86089160Y-10541223D02*
X86089160Y-10665033D01*
X86089160Y-10665033D02*
X86027255Y-10850747D01*
X86027255Y-10850747D02*
X85284398Y-11593604D01*
X85284398Y-11593604D02*
X86089160Y-11593604D01*
D10*
D11*
X135284398Y-10293604D02*
X136089160Y-10293604D01*
X136089160Y-10293604D02*
X135655826Y-10788842D01*
X135655826Y-10788842D02*
X135841541Y-10788842D01*
X135841541Y-10788842D02*
X135965350Y-10850747D01*
X135965350Y-10850747D02*
X136027255Y-10912652D01*
X136027255Y-10912652D02*
X136089160Y-11036461D01*
X136089160Y-11036461D02*
X136089160Y-11345985D01*
X136089160Y-11345985D02*
X136027255Y-11469795D01*
X136027255Y-11469795D02*
X135965350Y-11531700D01*
X135965350Y-11531700D02*
X135841541Y-11593604D01*
X135841541Y-11593604D02*
X135470112Y-11593604D01*
X135470112Y-11593604D02*
X135346303Y-11531700D01*
X135346303Y-11531700D02*
X135284398Y-11469795D01*
D10*
D11*
X185965350Y-10726938D02*
X185965350Y-11593604D01*
X185655826Y-10231700D02*
X185346303Y-11160271D01*
X185346303Y-11160271D02*
X186151064Y-11160271D01*
D10*
D11*
X236027255Y-10293604D02*
X235408207Y-10293604D01*
X235408207Y-10293604D02*
X235346303Y-10912652D01*
X235346303Y-10912652D02*
X235408207Y-10850747D01*
X235408207Y-10850747D02*
X235532017Y-10788842D01*
X235532017Y-10788842D02*
X235841541Y-10788842D01*
X235841541Y-10788842D02*
X235965350Y-10850747D01*
X235965350Y-10850747D02*
X236027255Y-10912652D01*
X236027255Y-10912652D02*
X236089160Y-11036461D01*
X236089160Y-11036461D02*
X236089160Y-11345985D01*
X236089160Y-11345985D02*
X236027255Y-11469795D01*
X236027255Y-11469795D02*
X235965350Y-11531700D01*
X235965350Y-11531700D02*
X235841541Y-11593604D01*
X235841541Y-11593604D02*
X235532017Y-11593604D01*
X235532017Y-11593604D02*
X235408207Y-11531700D01*
X235408207Y-11531700D02*
X235346303Y-11469795D01*
D10*
D11*
X285965350Y-10293604D02*
X285717731Y-10293604D01*
X285717731Y-10293604D02*
X285593922Y-10355509D01*
X285593922Y-10355509D02*
X285532017Y-10417414D01*
X285532017Y-10417414D02*
X285408207Y-10603128D01*
X285408207Y-10603128D02*
X285346303Y-10850747D01*
X285346303Y-10850747D02*
X285346303Y-11345985D01*
X285346303Y-11345985D02*
X285408207Y-11469795D01*
X285408207Y-11469795D02*
X285470112Y-11531700D01*
X285470112Y-11531700D02*
X285593922Y-11593604D01*
X285593922Y-11593604D02*
X285841541Y-11593604D01*
X285841541Y-11593604D02*
X285965350Y-11531700D01*
X285965350Y-11531700D02*
X286027255Y-11469795D01*
X286027255Y-11469795D02*
X286089160Y-11345985D01*
X286089160Y-11345985D02*
X286089160Y-11036461D01*
X286089160Y-11036461D02*
X286027255Y-10912652D01*
X286027255Y-10912652D02*
X285965350Y-10850747D01*
X285965350Y-10850747D02*
X285841541Y-10788842D01*
X285841541Y-10788842D02*
X285593922Y-10788842D01*
X285593922Y-10788842D02*
X285470112Y-10850747D01*
X285470112Y-10850747D02*
X285408207Y-10912652D01*
X285408207Y-10912652D02*
X285346303Y-11036461D01*
D10*
D11*
X60000000Y-198007200D02*
X60000000Y-200007200D01*
D10*
D11*
X110000000Y-198007200D02*
X110000000Y-200007200D01*
D10*
D11*
X160000000Y-198007200D02*
X160000000Y-200007200D01*
D10*
D11*
X210000000Y-198007200D02*
X210000000Y-200007200D01*
D10*
D11*
X260000000Y-198007200D02*
X260000000Y-200007200D01*
D10*
D11*
X36089160Y-199600804D02*
X35346303Y-199600804D01*
X35717731Y-199600804D02*
X35717731Y-198300804D01*
X35717731Y-198300804D02*
X35593922Y-198486519D01*
X35593922Y-198486519D02*
X35470112Y-198610328D01*
X35470112Y-198610328D02*
X35346303Y-198672233D01*
D10*
D11*
X85346303Y-198424614D02*
X85408207Y-198362709D01*
X85408207Y-198362709D02*
X85532017Y-198300804D01*
X85532017Y-198300804D02*
X85841541Y-198300804D01*
X85841541Y-198300804D02*
X85965350Y-198362709D01*
X85965350Y-198362709D02*
X86027255Y-198424614D01*
X86027255Y-198424614D02*
X86089160Y-198548423D01*
X86089160Y-198548423D02*
X86089160Y-198672233D01*
X86089160Y-198672233D02*
X86027255Y-198857947D01*
X86027255Y-198857947D02*
X85284398Y-199600804D01*
X85284398Y-199600804D02*
X86089160Y-199600804D01*
D10*
D11*
X135284398Y-198300804D02*
X136089160Y-198300804D01*
X136089160Y-198300804D02*
X135655826Y-198796042D01*
X135655826Y-198796042D02*
X135841541Y-198796042D01*
X135841541Y-198796042D02*
X135965350Y-198857947D01*
X135965350Y-198857947D02*
X136027255Y-198919852D01*
X136027255Y-198919852D02*
X136089160Y-199043661D01*
X136089160Y-199043661D02*
X136089160Y-199353185D01*
X136089160Y-199353185D02*
X136027255Y-199476995D01*
X136027255Y-199476995D02*
X135965350Y-199538900D01*
X135965350Y-199538900D02*
X135841541Y-199600804D01*
X135841541Y-199600804D02*
X135470112Y-199600804D01*
X135470112Y-199600804D02*
X135346303Y-199538900D01*
X135346303Y-199538900D02*
X135284398Y-199476995D01*
D10*
D11*
X185965350Y-198734138D02*
X185965350Y-199600804D01*
X185655826Y-198238900D02*
X185346303Y-199167471D01*
X185346303Y-199167471D02*
X186151064Y-199167471D01*
D10*
D11*
X236027255Y-198300804D02*
X235408207Y-198300804D01*
X235408207Y-198300804D02*
X235346303Y-198919852D01*
X235346303Y-198919852D02*
X235408207Y-198857947D01*
X235408207Y-198857947D02*
X235532017Y-198796042D01*
X235532017Y-198796042D02*
X235841541Y-198796042D01*
X235841541Y-198796042D02*
X235965350Y-198857947D01*
X235965350Y-198857947D02*
X236027255Y-198919852D01*
X236027255Y-198919852D02*
X236089160Y-199043661D01*
X236089160Y-199043661D02*
X236089160Y-199353185D01*
X236089160Y-199353185D02*
X236027255Y-199476995D01*
X236027255Y-199476995D02*
X235965350Y-199538900D01*
X235965350Y-199538900D02*
X235841541Y-199600804D01*
X235841541Y-199600804D02*
X235532017Y-199600804D01*
X235532017Y-199600804D02*
X235408207Y-199538900D01*
X235408207Y-199538900D02*
X235346303Y-199476995D01*
D10*
D11*
X285965350Y-198300804D02*
X285717731Y-198300804D01*
X285717731Y-198300804D02*
X285593922Y-198362709D01*
X285593922Y-198362709D02*
X285532017Y-198424614D01*
X285532017Y-198424614D02*
X285408207Y-198610328D01*
X285408207Y-198610328D02*
X285346303Y-198857947D01*
X285346303Y-198857947D02*
X285346303Y-199353185D01*
X285346303Y-199353185D02*
X285408207Y-199476995D01*
X285408207Y-199476995D02*
X285470112Y-199538900D01*
X285470112Y-199538900D02*
X285593922Y-199600804D01*
X285593922Y-199600804D02*
X285841541Y-199600804D01*
X285841541Y-199600804D02*
X285965350Y-199538900D01*
X285965350Y-199538900D02*
X286027255Y-199476995D01*
X286027255Y-199476995D02*
X286089160Y-199353185D01*
X286089160Y-199353185D02*
X286089160Y-199043661D01*
X286089160Y-199043661D02*
X286027255Y-198919852D01*
X286027255Y-198919852D02*
X285965350Y-198857947D01*
X285965350Y-198857947D02*
X285841541Y-198796042D01*
X285841541Y-198796042D02*
X285593922Y-198796042D01*
X285593922Y-198796042D02*
X285470112Y-198857947D01*
X285470112Y-198857947D02*
X285408207Y-198919852D01*
X285408207Y-198919852D02*
X285346303Y-199043661D01*
D10*
D11*
X10000000Y-60000000D02*
X12000000Y-60000000D01*
D10*
D11*
X10000000Y-110000000D02*
X12000000Y-110000000D01*
D10*
D11*
X10000000Y-160000000D02*
X12000000Y-160000000D01*
D10*
D11*
X10690476Y-35222176D02*
X11309523Y-35222176D01*
X10566666Y-35593604D02*
X10999999Y-34293604D01*
X10999999Y-34293604D02*
X11433333Y-35593604D01*
D10*
D11*
X11092857Y-84912652D02*
X11278571Y-84974557D01*
X11278571Y-84974557D02*
X11340476Y-85036461D01*
X11340476Y-85036461D02*
X11402380Y-85160271D01*
X11402380Y-85160271D02*
X11402380Y-85345985D01*
X11402380Y-85345985D02*
X11340476Y-85469795D01*
X11340476Y-85469795D02*
X11278571Y-85531700D01*
X11278571Y-85531700D02*
X11154761Y-85593604D01*
X11154761Y-85593604D02*
X10659523Y-85593604D01*
X10659523Y-85593604D02*
X10659523Y-84293604D01*
X10659523Y-84293604D02*
X11092857Y-84293604D01*
X11092857Y-84293604D02*
X11216666Y-84355509D01*
X11216666Y-84355509D02*
X11278571Y-84417414D01*
X11278571Y-84417414D02*
X11340476Y-84541223D01*
X11340476Y-84541223D02*
X11340476Y-84665033D01*
X11340476Y-84665033D02*
X11278571Y-84788842D01*
X11278571Y-84788842D02*
X11216666Y-84850747D01*
X11216666Y-84850747D02*
X11092857Y-84912652D01*
X11092857Y-84912652D02*
X10659523Y-84912652D01*
D10*
D11*
X11402380Y-135469795D02*
X11340476Y-135531700D01*
X11340476Y-135531700D02*
X11154761Y-135593604D01*
X11154761Y-135593604D02*
X11030952Y-135593604D01*
X11030952Y-135593604D02*
X10845238Y-135531700D01*
X10845238Y-135531700D02*
X10721428Y-135407890D01*
X10721428Y-135407890D02*
X10659523Y-135284080D01*
X10659523Y-135284080D02*
X10597619Y-135036461D01*
X10597619Y-135036461D02*
X10597619Y-134850747D01*
X10597619Y-134850747D02*
X10659523Y-134603128D01*
X10659523Y-134603128D02*
X10721428Y-134479319D01*
X10721428Y-134479319D02*
X10845238Y-134355509D01*
X10845238Y-134355509D02*
X11030952Y-134293604D01*
X11030952Y-134293604D02*
X11154761Y-134293604D01*
X11154761Y-134293604D02*
X11340476Y-134355509D01*
X11340476Y-134355509D02*
X11402380Y-134417414D01*
D10*
D11*
X10659523Y-185593604D02*
X10659523Y-184293604D01*
X10659523Y-184293604D02*
X10969047Y-184293604D01*
X10969047Y-184293604D02*
X11154761Y-184355509D01*
X11154761Y-184355509D02*
X11278571Y-184479319D01*
X11278571Y-184479319D02*
X11340476Y-184603128D01*
X11340476Y-184603128D02*
X11402380Y-184850747D01*
X11402380Y-184850747D02*
X11402380Y-185036461D01*
X11402380Y-185036461D02*
X11340476Y-185284080D01*
X11340476Y-185284080D02*
X11278571Y-185407890D01*
X11278571Y-185407890D02*
X11154761Y-185531700D01*
X11154761Y-185531700D02*
X10969047Y-185593604D01*
X10969047Y-185593604D02*
X10659523Y-185593604D01*
D10*
D11*
X287002200Y-60000000D02*
X285002200Y-60000000D01*
D10*
D11*
X287002200Y-110000000D02*
X285002200Y-110000000D01*
D10*
D11*
X287002200Y-160000000D02*
X285002200Y-160000000D01*
D10*
D11*
X285692676Y-35222176D02*
X286311723Y-35222176D01*
X285568866Y-35593604D02*
X286002199Y-34293604D01*
X286002199Y-34293604D02*
X286435533Y-35593604D01*
D10*
D11*
X286095057Y-84912652D02*
X286280771Y-84974557D01*
X286280771Y-84974557D02*
X286342676Y-85036461D01*
X286342676Y-85036461D02*
X286404580Y-85160271D01*
X286404580Y-85160271D02*
X286404580Y-85345985D01*
X286404580Y-85345985D02*
X286342676Y-85469795D01*
X286342676Y-85469795D02*
X286280771Y-85531700D01*
X286280771Y-85531700D02*
X286156961Y-85593604D01*
X286156961Y-85593604D02*
X285661723Y-85593604D01*
X285661723Y-85593604D02*
X285661723Y-84293604D01*
X285661723Y-84293604D02*
X286095057Y-84293604D01*
X286095057Y-84293604D02*
X286218866Y-84355509D01*
X286218866Y-84355509D02*
X286280771Y-84417414D01*
X286280771Y-84417414D02*
X286342676Y-84541223D01*
X286342676Y-84541223D02*
X286342676Y-84665033D01*
X286342676Y-84665033D02*
X286280771Y-84788842D01*
X286280771Y-84788842D02*
X286218866Y-84850747D01*
X286218866Y-84850747D02*
X286095057Y-84912652D01*
X286095057Y-84912652D02*
X285661723Y-84912652D01*
D10*
D11*
X286404580Y-135469795D02*
X286342676Y-135531700D01*
X286342676Y-135531700D02*
X286156961Y-135593604D01*
X286156961Y-135593604D02*
X286033152Y-135593604D01*
X286033152Y-135593604D02*
X285847438Y-135531700D01*
X285847438Y-135531700D02*
X285723628Y-135407890D01*
X285723628Y-135407890D02*
X285661723Y-135284080D01*
X285661723Y-135284080D02*
X285599819Y-135036461D01*
X285599819Y-135036461D02*
X285599819Y-134850747D01*
X285599819Y-134850747D02*
X285661723Y-134603128D01*
X285661723Y-134603128D02*
X285723628Y-134479319D01*
X285723628Y-134479319D02*
X285847438Y-134355509D01*
X285847438Y-134355509D02*
X286033152Y-134293604D01*
X286033152Y-134293604D02*
X286156961Y-134293604D01*
X286156961Y-134293604D02*
X286342676Y-134355509D01*
X286342676Y-134355509D02*
X286404580Y-134417414D01*
D10*
D11*
X285661723Y-185593604D02*
X285661723Y-184293604D01*
X285661723Y-184293604D02*
X285971247Y-184293604D01*
X285971247Y-184293604D02*
X286156961Y-184355509D01*
X286156961Y-184355509D02*
X286280771Y-184479319D01*
X286280771Y-184479319D02*
X286342676Y-184603128D01*
X286342676Y-184603128D02*
X286404580Y-184850747D01*
X286404580Y-184850747D02*
X286404580Y-185036461D01*
X286404580Y-185036461D02*
X286342676Y-185284080D01*
X286342676Y-185284080D02*
X286280771Y-185407890D01*
X286280771Y-185407890D02*
X286156961Y-185531700D01*
X286156961Y-185531700D02*
X285971247Y-185593604D01*
X285971247Y-185593604D02*
X285661723Y-185593604D01*
D10*
D11*
X200458026Y-193793328D02*
X200458026Y-192293328D01*
X200458026Y-192293328D02*
X200815169Y-192293328D01*
X200815169Y-192293328D02*
X201029455Y-192364757D01*
X201029455Y-192364757D02*
X201172312Y-192507614D01*
X201172312Y-192507614D02*
X201243741Y-192650471D01*
X201243741Y-192650471D02*
X201315169Y-192936185D01*
X201315169Y-192936185D02*
X201315169Y-193150471D01*
X201315169Y-193150471D02*
X201243741Y-193436185D01*
X201243741Y-193436185D02*
X201172312Y-193579042D01*
X201172312Y-193579042D02*
X201029455Y-193721900D01*
X201029455Y-193721900D02*
X200815169Y-193793328D01*
X200815169Y-193793328D02*
X200458026Y-193793328D01*
X202600884Y-193793328D02*
X202600884Y-193007614D01*
X202600884Y-193007614D02*
X202529455Y-192864757D01*
X202529455Y-192864757D02*
X202386598Y-192793328D01*
X202386598Y-192793328D02*
X202100884Y-192793328D01*
X202100884Y-192793328D02*
X201958026Y-192864757D01*
X202600884Y-193721900D02*
X202458026Y-193793328D01*
X202458026Y-193793328D02*
X202100884Y-193793328D01*
X202100884Y-193793328D02*
X201958026Y-193721900D01*
X201958026Y-193721900D02*
X201886598Y-193579042D01*
X201886598Y-193579042D02*
X201886598Y-193436185D01*
X201886598Y-193436185D02*
X201958026Y-193293328D01*
X201958026Y-193293328D02*
X202100884Y-193221900D01*
X202100884Y-193221900D02*
X202458026Y-193221900D01*
X202458026Y-193221900D02*
X202600884Y-193150471D01*
X203100884Y-192793328D02*
X203672312Y-192793328D01*
X203315169Y-192293328D02*
X203315169Y-193579042D01*
X203315169Y-193579042D02*
X203386598Y-193721900D01*
X203386598Y-193721900D02*
X203529455Y-193793328D01*
X203529455Y-193793328D02*
X203672312Y-193793328D01*
X204743741Y-193721900D02*
X204600884Y-193793328D01*
X204600884Y-193793328D02*
X204315170Y-193793328D01*
X204315170Y-193793328D02*
X204172312Y-193721900D01*
X204172312Y-193721900D02*
X204100884Y-193579042D01*
X204100884Y-193579042D02*
X204100884Y-193007614D01*
X204100884Y-193007614D02*
X204172312Y-192864757D01*
X204172312Y-192864757D02*
X204315170Y-192793328D01*
X204315170Y-192793328D02*
X204600884Y-192793328D01*
X204600884Y-192793328D02*
X204743741Y-192864757D01*
X204743741Y-192864757D02*
X204815170Y-193007614D01*
X204815170Y-193007614D02*
X204815170Y-193150471D01*
X204815170Y-193150471D02*
X204100884Y-193293328D01*
X205458026Y-193650471D02*
X205529455Y-193721900D01*
X205529455Y-193721900D02*
X205458026Y-193793328D01*
X205458026Y-193793328D02*
X205386598Y-193721900D01*
X205386598Y-193721900D02*
X205458026Y-193650471D01*
X205458026Y-193650471D02*
X205458026Y-193793328D01*
X205458026Y-192864757D02*
X205529455Y-192936185D01*
X205529455Y-192936185D02*
X205458026Y-193007614D01*
X205458026Y-193007614D02*
X205386598Y-192936185D01*
X205386598Y-192936185D02*
X205458026Y-192864757D01*
X205458026Y-192864757D02*
X205458026Y-193007614D01*
X207243741Y-192436185D02*
X207315169Y-192364757D01*
X207315169Y-192364757D02*
X207458027Y-192293328D01*
X207458027Y-192293328D02*
X207815169Y-192293328D01*
X207815169Y-192293328D02*
X207958027Y-192364757D01*
X207958027Y-192364757D02*
X208029455Y-192436185D01*
X208029455Y-192436185D02*
X208100884Y-192579042D01*
X208100884Y-192579042D02*
X208100884Y-192721900D01*
X208100884Y-192721900D02*
X208029455Y-192936185D01*
X208029455Y-192936185D02*
X207172312Y-193793328D01*
X207172312Y-193793328D02*
X208100884Y-193793328D01*
X209029455Y-192293328D02*
X209172312Y-192293328D01*
X209172312Y-192293328D02*
X209315169Y-192364757D01*
X209315169Y-192364757D02*
X209386598Y-192436185D01*
X209386598Y-192436185D02*
X209458026Y-192579042D01*
X209458026Y-192579042D02*
X209529455Y-192864757D01*
X209529455Y-192864757D02*
X209529455Y-193221900D01*
X209529455Y-193221900D02*
X209458026Y-193507614D01*
X209458026Y-193507614D02*
X209386598Y-193650471D01*
X209386598Y-193650471D02*
X209315169Y-193721900D01*
X209315169Y-193721900D02*
X209172312Y-193793328D01*
X209172312Y-193793328D02*
X209029455Y-193793328D01*
X209029455Y-193793328D02*
X208886598Y-193721900D01*
X208886598Y-193721900D02*
X208815169Y-193650471D01*
X208815169Y-193650471D02*
X208743740Y-193507614D01*
X208743740Y-193507614D02*
X208672312Y-193221900D01*
X208672312Y-193221900D02*
X208672312Y-192864757D01*
X208672312Y-192864757D02*
X208743740Y-192579042D01*
X208743740Y-192579042D02*
X208815169Y-192436185D01*
X208815169Y-192436185D02*
X208886598Y-192364757D01*
X208886598Y-192364757D02*
X209029455Y-192293328D01*
X210100883Y-192436185D02*
X210172311Y-192364757D01*
X210172311Y-192364757D02*
X210315169Y-192293328D01*
X210315169Y-192293328D02*
X210672311Y-192293328D01*
X210672311Y-192293328D02*
X210815169Y-192364757D01*
X210815169Y-192364757D02*
X210886597Y-192436185D01*
X210886597Y-192436185D02*
X210958026Y-192579042D01*
X210958026Y-192579042D02*
X210958026Y-192721900D01*
X210958026Y-192721900D02*
X210886597Y-192936185D01*
X210886597Y-192936185D02*
X210029454Y-193793328D01*
X210029454Y-193793328D02*
X210958026Y-193793328D01*
X212243740Y-192293328D02*
X211958025Y-192293328D01*
X211958025Y-192293328D02*
X211815168Y-192364757D01*
X211815168Y-192364757D02*
X211743740Y-192436185D01*
X211743740Y-192436185D02*
X211600882Y-192650471D01*
X211600882Y-192650471D02*
X211529454Y-192936185D01*
X211529454Y-192936185D02*
X211529454Y-193507614D01*
X211529454Y-193507614D02*
X211600882Y-193650471D01*
X211600882Y-193650471D02*
X211672311Y-193721900D01*
X211672311Y-193721900D02*
X211815168Y-193793328D01*
X211815168Y-193793328D02*
X212100882Y-193793328D01*
X212100882Y-193793328D02*
X212243740Y-193721900D01*
X212243740Y-193721900D02*
X212315168Y-193650471D01*
X212315168Y-193650471D02*
X212386597Y-193507614D01*
X212386597Y-193507614D02*
X212386597Y-193150471D01*
X212386597Y-193150471D02*
X212315168Y-193007614D01*
X212315168Y-193007614D02*
X212243740Y-192936185D01*
X212243740Y-192936185D02*
X212100882Y-192864757D01*
X212100882Y-192864757D02*
X211815168Y-192864757D01*
X211815168Y-192864757D02*
X211672311Y-192936185D01*
X211672311Y-192936185D02*
X211600882Y-193007614D01*
X211600882Y-193007614D02*
X211529454Y-193150471D01*
X213029453Y-193221900D02*
X214172311Y-193221900D01*
X215172311Y-192293328D02*
X215315168Y-192293328D01*
X215315168Y-192293328D02*
X215458025Y-192364757D01*
X215458025Y-192364757D02*
X215529454Y-192436185D01*
X215529454Y-192436185D02*
X215600882Y-192579042D01*
X215600882Y-192579042D02*
X215672311Y-192864757D01*
X215672311Y-192864757D02*
X215672311Y-193221900D01*
X215672311Y-193221900D02*
X215600882Y-193507614D01*
X215600882Y-193507614D02*
X215529454Y-193650471D01*
X215529454Y-193650471D02*
X215458025Y-193721900D01*
X215458025Y-193721900D02*
X215315168Y-193793328D01*
X215315168Y-193793328D02*
X215172311Y-193793328D01*
X215172311Y-193793328D02*
X215029454Y-193721900D01*
X215029454Y-193721900D02*
X214958025Y-193650471D01*
X214958025Y-193650471D02*
X214886596Y-193507614D01*
X214886596Y-193507614D02*
X214815168Y-193221900D01*
X214815168Y-193221900D02*
X214815168Y-192864757D01*
X214815168Y-192864757D02*
X214886596Y-192579042D01*
X214886596Y-192579042D02*
X214958025Y-192436185D01*
X214958025Y-192436185D02*
X215029454Y-192364757D01*
X215029454Y-192364757D02*
X215172311Y-192293328D01*
X216958025Y-192793328D02*
X216958025Y-193793328D01*
X216600882Y-192221900D02*
X216243739Y-193293328D01*
X216243739Y-193293328D02*
X217172310Y-193293328D01*
X217743738Y-193221900D02*
X218886596Y-193221900D01*
X220386596Y-193793328D02*
X219529453Y-193793328D01*
X219958024Y-193793328D02*
X219958024Y-192293328D01*
X219958024Y-192293328D02*
X219815167Y-192507614D01*
X219815167Y-192507614D02*
X219672310Y-192650471D01*
X219672310Y-192650471D02*
X219529453Y-192721900D01*
X220958024Y-192436185D02*
X221029452Y-192364757D01*
X221029452Y-192364757D02*
X221172310Y-192293328D01*
X221172310Y-192293328D02*
X221529452Y-192293328D01*
X221529452Y-192293328D02*
X221672310Y-192364757D01*
X221672310Y-192364757D02*
X221743738Y-192436185D01*
X221743738Y-192436185D02*
X221815167Y-192579042D01*
X221815167Y-192579042D02*
X221815167Y-192721900D01*
X221815167Y-192721900D02*
X221743738Y-192936185D01*
X221743738Y-192936185D02*
X220886595Y-193793328D01*
X220886595Y-193793328D02*
X221815167Y-193793328D01*
D10*
D11*
X177002200Y-194507200D02*
X285002200Y-194507200D01*
D10*
D11*
X178458026Y-196593328D02*
X178458026Y-195093328D01*
X179315169Y-196593328D02*
X178672312Y-195736185D01*
X179315169Y-195093328D02*
X178458026Y-195950471D01*
X179958026Y-196593328D02*
X179958026Y-195593328D01*
X179958026Y-195093328D02*
X179886598Y-195164757D01*
X179886598Y-195164757D02*
X179958026Y-195236185D01*
X179958026Y-195236185D02*
X180029455Y-195164757D01*
X180029455Y-195164757D02*
X179958026Y-195093328D01*
X179958026Y-195093328D02*
X179958026Y-195236185D01*
X181529455Y-196450471D02*
X181458027Y-196521900D01*
X181458027Y-196521900D02*
X181243741Y-196593328D01*
X181243741Y-196593328D02*
X181100884Y-196593328D01*
X181100884Y-196593328D02*
X180886598Y-196521900D01*
X180886598Y-196521900D02*
X180743741Y-196379042D01*
X180743741Y-196379042D02*
X180672312Y-196236185D01*
X180672312Y-196236185D02*
X180600884Y-195950471D01*
X180600884Y-195950471D02*
X180600884Y-195736185D01*
X180600884Y-195736185D02*
X180672312Y-195450471D01*
X180672312Y-195450471D02*
X180743741Y-195307614D01*
X180743741Y-195307614D02*
X180886598Y-195164757D01*
X180886598Y-195164757D02*
X181100884Y-195093328D01*
X181100884Y-195093328D02*
X181243741Y-195093328D01*
X181243741Y-195093328D02*
X181458027Y-195164757D01*
X181458027Y-195164757D02*
X181529455Y-195236185D01*
X182815170Y-196593328D02*
X182815170Y-195807614D01*
X182815170Y-195807614D02*
X182743741Y-195664757D01*
X182743741Y-195664757D02*
X182600884Y-195593328D01*
X182600884Y-195593328D02*
X182315170Y-195593328D01*
X182315170Y-195593328D02*
X182172312Y-195664757D01*
X182815170Y-196521900D02*
X182672312Y-196593328D01*
X182672312Y-196593328D02*
X182315170Y-196593328D01*
X182315170Y-196593328D02*
X182172312Y-196521900D01*
X182172312Y-196521900D02*
X182100884Y-196379042D01*
X182100884Y-196379042D02*
X182100884Y-196236185D01*
X182100884Y-196236185D02*
X182172312Y-196093328D01*
X182172312Y-196093328D02*
X182315170Y-196021900D01*
X182315170Y-196021900D02*
X182672312Y-196021900D01*
X182672312Y-196021900D02*
X182815170Y-195950471D01*
X184172313Y-196593328D02*
X184172313Y-195093328D01*
X184172313Y-196521900D02*
X184029455Y-196593328D01*
X184029455Y-196593328D02*
X183743741Y-196593328D01*
X183743741Y-196593328D02*
X183600884Y-196521900D01*
X183600884Y-196521900D02*
X183529455Y-196450471D01*
X183529455Y-196450471D02*
X183458027Y-196307614D01*
X183458027Y-196307614D02*
X183458027Y-195879042D01*
X183458027Y-195879042D02*
X183529455Y-195736185D01*
X183529455Y-195736185D02*
X183600884Y-195664757D01*
X183600884Y-195664757D02*
X183743741Y-195593328D01*
X183743741Y-195593328D02*
X184029455Y-195593328D01*
X184029455Y-195593328D02*
X184172313Y-195664757D01*
X186029455Y-195807614D02*
X186529455Y-195807614D01*
X186743741Y-196593328D02*
X186029455Y-196593328D01*
X186029455Y-196593328D02*
X186029455Y-195093328D01*
X186029455Y-195093328D02*
X186743741Y-195093328D01*
X187386598Y-196450471D02*
X187458027Y-196521900D01*
X187458027Y-196521900D02*
X187386598Y-196593328D01*
X187386598Y-196593328D02*
X187315170Y-196521900D01*
X187315170Y-196521900D02*
X187386598Y-196450471D01*
X187386598Y-196450471D02*
X187386598Y-196593328D01*
X188100884Y-196593328D02*
X188100884Y-195093328D01*
X188100884Y-195093328D02*
X188458027Y-195093328D01*
X188458027Y-195093328D02*
X188672313Y-195164757D01*
X188672313Y-195164757D02*
X188815170Y-195307614D01*
X188815170Y-195307614D02*
X188886599Y-195450471D01*
X188886599Y-195450471D02*
X188958027Y-195736185D01*
X188958027Y-195736185D02*
X188958027Y-195950471D01*
X188958027Y-195950471D02*
X188886599Y-196236185D01*
X188886599Y-196236185D02*
X188815170Y-196379042D01*
X188815170Y-196379042D02*
X188672313Y-196521900D01*
X188672313Y-196521900D02*
X188458027Y-196593328D01*
X188458027Y-196593328D02*
X188100884Y-196593328D01*
X189600884Y-196450471D02*
X189672313Y-196521900D01*
X189672313Y-196521900D02*
X189600884Y-196593328D01*
X189600884Y-196593328D02*
X189529456Y-196521900D01*
X189529456Y-196521900D02*
X189600884Y-196450471D01*
X189600884Y-196450471D02*
X189600884Y-196593328D01*
X190243742Y-196164757D02*
X190958028Y-196164757D01*
X190100885Y-196593328D02*
X190600885Y-195093328D01*
X190600885Y-195093328D02*
X191100885Y-196593328D01*
X191600884Y-196450471D02*
X191672313Y-196521900D01*
X191672313Y-196521900D02*
X191600884Y-196593328D01*
X191600884Y-196593328D02*
X191529456Y-196521900D01*
X191529456Y-196521900D02*
X191600884Y-196450471D01*
X191600884Y-196450471D02*
X191600884Y-196593328D01*
X193529456Y-196593328D02*
X193815170Y-196593328D01*
X193815170Y-196593328D02*
X193958027Y-196521900D01*
X193958027Y-196521900D02*
X194029456Y-196450471D01*
X194029456Y-196450471D02*
X194172313Y-196236185D01*
X194172313Y-196236185D02*
X194243742Y-195950471D01*
X194243742Y-195950471D02*
X194243742Y-195379042D01*
X194243742Y-195379042D02*
X194172313Y-195236185D01*
X194172313Y-195236185D02*
X194100885Y-195164757D01*
X194100885Y-195164757D02*
X193958027Y-195093328D01*
X193958027Y-195093328D02*
X193672313Y-195093328D01*
X193672313Y-195093328D02*
X193529456Y-195164757D01*
X193529456Y-195164757D02*
X193458027Y-195236185D01*
X193458027Y-195236185D02*
X193386599Y-195379042D01*
X193386599Y-195379042D02*
X193386599Y-195736185D01*
X193386599Y-195736185D02*
X193458027Y-195879042D01*
X193458027Y-195879042D02*
X193529456Y-195950471D01*
X193529456Y-195950471D02*
X193672313Y-196021900D01*
X193672313Y-196021900D02*
X193958027Y-196021900D01*
X193958027Y-196021900D02*
X194100885Y-195950471D01*
X194100885Y-195950471D02*
X194172313Y-195879042D01*
X194172313Y-195879042D02*
X194243742Y-195736185D01*
X194886598Y-196450471D02*
X194958027Y-196521900D01*
X194958027Y-196521900D02*
X194886598Y-196593328D01*
X194886598Y-196593328D02*
X194815170Y-196521900D01*
X194815170Y-196521900D02*
X194886598Y-196450471D01*
X194886598Y-196450471D02*
X194886598Y-196593328D01*
X195886599Y-195093328D02*
X196029456Y-195093328D01*
X196029456Y-195093328D02*
X196172313Y-195164757D01*
X196172313Y-195164757D02*
X196243742Y-195236185D01*
X196243742Y-195236185D02*
X196315170Y-195379042D01*
X196315170Y-195379042D02*
X196386599Y-195664757D01*
X196386599Y-195664757D02*
X196386599Y-196021900D01*
X196386599Y-196021900D02*
X196315170Y-196307614D01*
X196315170Y-196307614D02*
X196243742Y-196450471D01*
X196243742Y-196450471D02*
X196172313Y-196521900D01*
X196172313Y-196521900D02*
X196029456Y-196593328D01*
X196029456Y-196593328D02*
X195886599Y-196593328D01*
X195886599Y-196593328D02*
X195743742Y-196521900D01*
X195743742Y-196521900D02*
X195672313Y-196450471D01*
X195672313Y-196450471D02*
X195600884Y-196307614D01*
X195600884Y-196307614D02*
X195529456Y-196021900D01*
X195529456Y-196021900D02*
X195529456Y-195664757D01*
X195529456Y-195664757D02*
X195600884Y-195379042D01*
X195600884Y-195379042D02*
X195672313Y-195236185D01*
X195672313Y-195236185D02*
X195743742Y-195164757D01*
X195743742Y-195164757D02*
X195886599Y-195093328D01*
X197029455Y-196450471D02*
X197100884Y-196521900D01*
X197100884Y-196521900D02*
X197029455Y-196593328D01*
X197029455Y-196593328D02*
X196958027Y-196521900D01*
X196958027Y-196521900D02*
X197029455Y-196450471D01*
X197029455Y-196450471D02*
X197029455Y-196593328D01*
X198386599Y-195093328D02*
X198100884Y-195093328D01*
X198100884Y-195093328D02*
X197958027Y-195164757D01*
X197958027Y-195164757D02*
X197886599Y-195236185D01*
X197886599Y-195236185D02*
X197743741Y-195450471D01*
X197743741Y-195450471D02*
X197672313Y-195736185D01*
X197672313Y-195736185D02*
X197672313Y-196307614D01*
X197672313Y-196307614D02*
X197743741Y-196450471D01*
X197743741Y-196450471D02*
X197815170Y-196521900D01*
X197815170Y-196521900D02*
X197958027Y-196593328D01*
X197958027Y-196593328D02*
X198243741Y-196593328D01*
X198243741Y-196593328D02*
X198386599Y-196521900D01*
X198386599Y-196521900D02*
X198458027Y-196450471D01*
X198458027Y-196450471D02*
X198529456Y-196307614D01*
X198529456Y-196307614D02*
X198529456Y-195950471D01*
X198529456Y-195950471D02*
X198458027Y-195807614D01*
X198458027Y-195807614D02*
X198386599Y-195736185D01*
X198386599Y-195736185D02*
X198243741Y-195664757D01*
X198243741Y-195664757D02*
X197958027Y-195664757D01*
X197958027Y-195664757D02*
X197815170Y-195736185D01*
X197815170Y-195736185D02*
X197743741Y-195807614D01*
X197743741Y-195807614D02*
X197672313Y-195950471D01*
D10*
D11*
X177002200Y-191507200D02*
X285002200Y-191507200D01*
D10*
D12*
X264413853Y-193785528D02*
X263913853Y-193071242D01*
X263556710Y-193785528D02*
X263556710Y-192285528D01*
X263556710Y-192285528D02*
X264128139Y-192285528D01*
X264128139Y-192285528D02*
X264270996Y-192356957D01*
X264270996Y-192356957D02*
X264342425Y-192428385D01*
X264342425Y-192428385D02*
X264413853Y-192571242D01*
X264413853Y-192571242D02*
X264413853Y-192785528D01*
X264413853Y-192785528D02*
X264342425Y-192928385D01*
X264342425Y-192928385D02*
X264270996Y-192999814D01*
X264270996Y-192999814D02*
X264128139Y-193071242D01*
X264128139Y-193071242D02*
X263556710Y-193071242D01*
X265628139Y-193714100D02*
X265485282Y-193785528D01*
X265485282Y-193785528D02*
X265199568Y-193785528D01*
X265199568Y-193785528D02*
X265056710Y-193714100D01*
X265056710Y-193714100D02*
X264985282Y-193571242D01*
X264985282Y-193571242D02*
X264985282Y-192999814D01*
X264985282Y-192999814D02*
X265056710Y-192856957D01*
X265056710Y-192856957D02*
X265199568Y-192785528D01*
X265199568Y-192785528D02*
X265485282Y-192785528D01*
X265485282Y-192785528D02*
X265628139Y-192856957D01*
X265628139Y-192856957D02*
X265699568Y-192999814D01*
X265699568Y-192999814D02*
X265699568Y-193142671D01*
X265699568Y-193142671D02*
X264985282Y-193285528D01*
X266199567Y-192785528D02*
X266556710Y-193785528D01*
X266556710Y-193785528D02*
X266913853Y-192785528D01*
X267485281Y-193642671D02*
X267556710Y-193714100D01*
X267556710Y-193714100D02*
X267485281Y-193785528D01*
X267485281Y-193785528D02*
X267413853Y-193714100D01*
X267413853Y-193714100D02*
X267485281Y-193642671D01*
X267485281Y-193642671D02*
X267485281Y-193785528D01*
X267485281Y-192856957D02*
X267556710Y-192928385D01*
X267556710Y-192928385D02*
X267485281Y-192999814D01*
X267485281Y-192999814D02*
X267413853Y-192928385D01*
X267413853Y-192928385D02*
X267485281Y-192856957D01*
X267485281Y-192856957D02*
X267485281Y-192999814D01*
X270128139Y-193785528D02*
X269270996Y-193785528D01*
X269699567Y-193785528D02*
X269699567Y-192285528D01*
X269699567Y-192285528D02*
X269556710Y-192499814D01*
X269556710Y-192499814D02*
X269413853Y-192642671D01*
X269413853Y-192642671D02*
X269270996Y-192714100D01*
D10*
D11*
X178386598Y-193721900D02*
X178600884Y-193793328D01*
X178600884Y-193793328D02*
X178958026Y-193793328D01*
X178958026Y-193793328D02*
X179100884Y-193721900D01*
X179100884Y-193721900D02*
X179172312Y-193650471D01*
X179172312Y-193650471D02*
X179243741Y-193507614D01*
X179243741Y-193507614D02*
X179243741Y-193364757D01*
X179243741Y-193364757D02*
X179172312Y-193221900D01*
X179172312Y-193221900D02*
X179100884Y-193150471D01*
X179100884Y-193150471D02*
X178958026Y-193079042D01*
X178958026Y-193079042D02*
X178672312Y-193007614D01*
X178672312Y-193007614D02*
X178529455Y-192936185D01*
X178529455Y-192936185D02*
X178458026Y-192864757D01*
X178458026Y-192864757D02*
X178386598Y-192721900D01*
X178386598Y-192721900D02*
X178386598Y-192579042D01*
X178386598Y-192579042D02*
X178458026Y-192436185D01*
X178458026Y-192436185D02*
X178529455Y-192364757D01*
X178529455Y-192364757D02*
X178672312Y-192293328D01*
X178672312Y-192293328D02*
X179029455Y-192293328D01*
X179029455Y-192293328D02*
X179243741Y-192364757D01*
X179886597Y-193793328D02*
X179886597Y-192793328D01*
X179886597Y-192293328D02*
X179815169Y-192364757D01*
X179815169Y-192364757D02*
X179886597Y-192436185D01*
X179886597Y-192436185D02*
X179958026Y-192364757D01*
X179958026Y-192364757D02*
X179886597Y-192293328D01*
X179886597Y-192293328D02*
X179886597Y-192436185D01*
X180458026Y-192793328D02*
X181243741Y-192793328D01*
X181243741Y-192793328D02*
X180458026Y-193793328D01*
X180458026Y-193793328D02*
X181243741Y-193793328D01*
X182386598Y-193721900D02*
X182243741Y-193793328D01*
X182243741Y-193793328D02*
X181958027Y-193793328D01*
X181958027Y-193793328D02*
X181815169Y-193721900D01*
X181815169Y-193721900D02*
X181743741Y-193579042D01*
X181743741Y-193579042D02*
X181743741Y-193007614D01*
X181743741Y-193007614D02*
X181815169Y-192864757D01*
X181815169Y-192864757D02*
X181958027Y-192793328D01*
X181958027Y-192793328D02*
X182243741Y-192793328D01*
X182243741Y-192793328D02*
X182386598Y-192864757D01*
X182386598Y-192864757D02*
X182458027Y-193007614D01*
X182458027Y-193007614D02*
X182458027Y-193150471D01*
X182458027Y-193150471D02*
X181743741Y-193293328D01*
X183100883Y-193650471D02*
X183172312Y-193721900D01*
X183172312Y-193721900D02*
X183100883Y-193793328D01*
X183100883Y-193793328D02*
X183029455Y-193721900D01*
X183029455Y-193721900D02*
X183100883Y-193650471D01*
X183100883Y-193650471D02*
X183100883Y-193793328D01*
X183100883Y-192864757D02*
X183172312Y-192936185D01*
X183172312Y-192936185D02*
X183100883Y-193007614D01*
X183100883Y-193007614D02*
X183029455Y-192936185D01*
X183029455Y-192936185D02*
X183100883Y-192864757D01*
X183100883Y-192864757D02*
X183100883Y-193007614D01*
X184886598Y-193364757D02*
X185600884Y-193364757D01*
X184743741Y-193793328D02*
X185243741Y-192293328D01*
X185243741Y-192293328D02*
X185743741Y-193793328D01*
X186886598Y-192793328D02*
X186886598Y-193793328D01*
X186529455Y-192221900D02*
X186172312Y-193293328D01*
X186172312Y-193293328D02*
X187100883Y-193293328D01*
D10*
D11*
X263458026Y-196593328D02*
X263458026Y-195093328D01*
X264815170Y-196593328D02*
X264815170Y-195093328D01*
X264815170Y-196521900D02*
X264672312Y-196593328D01*
X264672312Y-196593328D02*
X264386598Y-196593328D01*
X264386598Y-196593328D02*
X264243741Y-196521900D01*
X264243741Y-196521900D02*
X264172312Y-196450471D01*
X264172312Y-196450471D02*
X264100884Y-196307614D01*
X264100884Y-196307614D02*
X264100884Y-195879042D01*
X264100884Y-195879042D02*
X264172312Y-195736185D01*
X264172312Y-195736185D02*
X264243741Y-195664757D01*
X264243741Y-195664757D02*
X264386598Y-195593328D01*
X264386598Y-195593328D02*
X264672312Y-195593328D01*
X264672312Y-195593328D02*
X264815170Y-195664757D01*
X265529455Y-196450471D02*
X265600884Y-196521900D01*
X265600884Y-196521900D02*
X265529455Y-196593328D01*
X265529455Y-196593328D02*
X265458027Y-196521900D01*
X265458027Y-196521900D02*
X265529455Y-196450471D01*
X265529455Y-196450471D02*
X265529455Y-196593328D01*
X265529455Y-195664757D02*
X265600884Y-195736185D01*
X265600884Y-195736185D02*
X265529455Y-195807614D01*
X265529455Y-195807614D02*
X265458027Y-195736185D01*
X265458027Y-195736185D02*
X265529455Y-195664757D01*
X265529455Y-195664757D02*
X265529455Y-195807614D01*
X268172313Y-196593328D02*
X267315170Y-196593328D01*
X267743741Y-196593328D02*
X267743741Y-195093328D01*
X267743741Y-195093328D02*
X267600884Y-195307614D01*
X267600884Y-195307614D02*
X267458027Y-195450471D01*
X267458027Y-195450471D02*
X267315170Y-195521900D01*
X269600884Y-196593328D02*
X268743741Y-196593328D01*
X269172312Y-196593328D02*
X269172312Y-195093328D01*
X269172312Y-195093328D02*
X269029455Y-195307614D01*
X269029455Y-195307614D02*
X268886598Y-195450471D01*
X268886598Y-195450471D02*
X268743741Y-195521900D01*
X271315169Y-195021900D02*
X270029455Y-196950471D01*
X272600884Y-196593328D02*
X271743741Y-196593328D01*
X272172312Y-196593328D02*
X272172312Y-195093328D01*
X272172312Y-195093328D02*
X272029455Y-195307614D01*
X272029455Y-195307614D02*
X271886598Y-195450471D01*
X271886598Y-195450471D02*
X271743741Y-195521900D01*
X273886598Y-195093328D02*
X273600883Y-195093328D01*
X273600883Y-195093328D02*
X273458026Y-195164757D01*
X273458026Y-195164757D02*
X273386598Y-195236185D01*
X273386598Y-195236185D02*
X273243740Y-195450471D01*
X273243740Y-195450471D02*
X273172312Y-195736185D01*
X273172312Y-195736185D02*
X273172312Y-196307614D01*
X273172312Y-196307614D02*
X273243740Y-196450471D01*
X273243740Y-196450471D02*
X273315169Y-196521900D01*
X273315169Y-196521900D02*
X273458026Y-196593328D01*
X273458026Y-196593328D02*
X273743740Y-196593328D01*
X273743740Y-196593328D02*
X273886598Y-196521900D01*
X273886598Y-196521900D02*
X273958026Y-196450471D01*
X273958026Y-196450471D02*
X274029455Y-196307614D01*
X274029455Y-196307614D02*
X274029455Y-195950471D01*
X274029455Y-195950471D02*
X273958026Y-195807614D01*
X273958026Y-195807614D02*
X273886598Y-195736185D01*
X273886598Y-195736185D02*
X273743740Y-195664757D01*
X273743740Y-195664757D02*
X273458026Y-195664757D01*
X273458026Y-195664757D02*
X273315169Y-195736185D01*
X273315169Y-195736185D02*
X273243740Y-195807614D01*
X273243740Y-195807614D02*
X273172312Y-195950471D01*
D10*
D11*
X177002200Y-187507200D02*
X285002200Y-187507200D01*
D10*
D13*
X178693928Y-188211638D02*
X179836785Y-188211638D01*
X179015357Y-190211638D02*
X179265357Y-188211638D01*
X180253452Y-190211638D02*
X180420119Y-188878304D01*
X180503452Y-188211638D02*
X180396309Y-188306876D01*
X180396309Y-188306876D02*
X180479643Y-188402114D01*
X180479643Y-188402114D02*
X180586786Y-188306876D01*
X180586786Y-188306876D02*
X180503452Y-188211638D01*
X180503452Y-188211638D02*
X180479643Y-188402114D01*
X181086786Y-188878304D02*
X181848690Y-188878304D01*
X181455833Y-188211638D02*
X181241548Y-189925923D01*
X181241548Y-189925923D02*
X181312976Y-190116400D01*
X181312976Y-190116400D02*
X181491548Y-190211638D01*
X181491548Y-190211638D02*
X181682024Y-190211638D01*
X182634405Y-190211638D02*
X182455833Y-190116400D01*
X182455833Y-190116400D02*
X182384405Y-189925923D01*
X182384405Y-189925923D02*
X182598690Y-188211638D01*
X184170119Y-190116400D02*
X183967738Y-190211638D01*
X183967738Y-190211638D02*
X183586785Y-190211638D01*
X183586785Y-190211638D02*
X183408214Y-190116400D01*
X183408214Y-190116400D02*
X183336785Y-189925923D01*
X183336785Y-189925923D02*
X183432024Y-189164019D01*
X183432024Y-189164019D02*
X183551071Y-188973542D01*
X183551071Y-188973542D02*
X183753452Y-188878304D01*
X183753452Y-188878304D02*
X184134404Y-188878304D01*
X184134404Y-188878304D02*
X184312976Y-188973542D01*
X184312976Y-188973542D02*
X184384404Y-189164019D01*
X184384404Y-189164019D02*
X184360595Y-189354495D01*
X184360595Y-189354495D02*
X183384404Y-189544971D01*
X185134405Y-190021161D02*
X185217738Y-190116400D01*
X185217738Y-190116400D02*
X185110595Y-190211638D01*
X185110595Y-190211638D02*
X185027262Y-190116400D01*
X185027262Y-190116400D02*
X185134405Y-190021161D01*
X185134405Y-190021161D02*
X185110595Y-190211638D01*
X185265357Y-188973542D02*
X185348690Y-189068780D01*
X185348690Y-189068780D02*
X185241548Y-189164019D01*
X185241548Y-189164019D02*
X185158214Y-189068780D01*
X185158214Y-189068780D02*
X185265357Y-188973542D01*
X185265357Y-188973542D02*
X185241548Y-189164019D01*
X187586786Y-190211638D02*
X187753453Y-188878304D01*
X187836786Y-188211638D02*
X187729643Y-188306876D01*
X187729643Y-188306876D02*
X187812977Y-188402114D01*
X187812977Y-188402114D02*
X187920120Y-188306876D01*
X187920120Y-188306876D02*
X187836786Y-188211638D01*
X187836786Y-188211638D02*
X187812977Y-188402114D01*
X188562977Y-190021161D02*
X188646310Y-190116400D01*
X188646310Y-190116400D02*
X188539167Y-190211638D01*
X188539167Y-190211638D02*
X188455834Y-190116400D01*
X188455834Y-190116400D02*
X188562977Y-190021161D01*
X188562977Y-190021161D02*
X188539167Y-190211638D01*
X189491548Y-190211638D02*
X189741548Y-188211638D01*
X189741548Y-188211638D02*
X190229643Y-189640209D01*
X190229643Y-189640209D02*
X191074882Y-188211638D01*
X191074882Y-188211638D02*
X190824882Y-190211638D01*
X191836786Y-188211638D02*
X192920119Y-190211638D01*
X193170119Y-188211638D02*
X191586786Y-190211638D01*
X196312977Y-188211638D02*
X195932025Y-188211638D01*
X195932025Y-188211638D02*
X195729644Y-188306876D01*
X195729644Y-188306876D02*
X195622501Y-188402114D01*
X195622501Y-188402114D02*
X195396310Y-188687828D01*
X195396310Y-188687828D02*
X195253453Y-189068780D01*
X195253453Y-189068780D02*
X195158215Y-189830685D01*
X195158215Y-189830685D02*
X195229644Y-190021161D01*
X195229644Y-190021161D02*
X195312977Y-190116400D01*
X195312977Y-190116400D02*
X195491549Y-190211638D01*
X195491549Y-190211638D02*
X195872501Y-190211638D01*
X195872501Y-190211638D02*
X196074882Y-190116400D01*
X196074882Y-190116400D02*
X196182025Y-190021161D01*
X196182025Y-190021161D02*
X196301072Y-189830685D01*
X196301072Y-189830685D02*
X196360596Y-189354495D01*
X196360596Y-189354495D02*
X196289168Y-189164019D01*
X196289168Y-189164019D02*
X196205834Y-189068780D01*
X196205834Y-189068780D02*
X196027263Y-188973542D01*
X196027263Y-188973542D02*
X195646310Y-188973542D01*
X195646310Y-188973542D02*
X195443929Y-189068780D01*
X195443929Y-189068780D02*
X195336787Y-189164019D01*
X195336787Y-189164019D02*
X195217739Y-189354495D01*
X197360596Y-188211638D02*
X197158215Y-189830685D01*
X197158215Y-189830685D02*
X197229644Y-190021161D01*
X197229644Y-190021161D02*
X197312977Y-190116400D01*
X197312977Y-190116400D02*
X197491549Y-190211638D01*
X197491549Y-190211638D02*
X197872501Y-190211638D01*
X197872501Y-190211638D02*
X198074882Y-190116400D01*
X198074882Y-190116400D02*
X198182025Y-190021161D01*
X198182025Y-190021161D02*
X198301072Y-189830685D01*
X198301072Y-189830685D02*
X198503453Y-188211638D01*
X200158215Y-190211638D02*
X199205834Y-190211638D01*
X199205834Y-190211638D02*
X199455834Y-188211638D01*
X201777263Y-190211638D02*
X200824882Y-190211638D01*
X200824882Y-190211638D02*
X201074882Y-188211638D01*
X204765359Y-189164019D02*
X205039169Y-189259257D01*
X205039169Y-189259257D02*
X205122502Y-189354495D01*
X205122502Y-189354495D02*
X205193931Y-189544971D01*
X205193931Y-189544971D02*
X205158216Y-189830685D01*
X205158216Y-189830685D02*
X205039169Y-190021161D01*
X205039169Y-190021161D02*
X204932026Y-190116400D01*
X204932026Y-190116400D02*
X204729645Y-190211638D01*
X204729645Y-190211638D02*
X203967740Y-190211638D01*
X203967740Y-190211638D02*
X204217740Y-188211638D01*
X204217740Y-188211638D02*
X204884407Y-188211638D01*
X204884407Y-188211638D02*
X205062978Y-188306876D01*
X205062978Y-188306876D02*
X205146312Y-188402114D01*
X205146312Y-188402114D02*
X205217740Y-188592590D01*
X205217740Y-188592590D02*
X205193931Y-188783066D01*
X205193931Y-188783066D02*
X205074883Y-188973542D01*
X205074883Y-188973542D02*
X204967740Y-189068780D01*
X204967740Y-189068780D02*
X204765359Y-189164019D01*
X204765359Y-189164019D02*
X204098693Y-189164019D01*
X206824883Y-190211638D02*
X206955835Y-189164019D01*
X206955835Y-189164019D02*
X206884407Y-188973542D01*
X206884407Y-188973542D02*
X206705835Y-188878304D01*
X206705835Y-188878304D02*
X206324883Y-188878304D01*
X206324883Y-188878304D02*
X206122502Y-188973542D01*
X206836788Y-190116400D02*
X206634407Y-190211638D01*
X206634407Y-190211638D02*
X206158216Y-190211638D01*
X206158216Y-190211638D02*
X205979645Y-190116400D01*
X205979645Y-190116400D02*
X205908216Y-189925923D01*
X205908216Y-189925923D02*
X205932026Y-189735447D01*
X205932026Y-189735447D02*
X206051074Y-189544971D01*
X206051074Y-189544971D02*
X206253455Y-189449733D01*
X206253455Y-189449733D02*
X206729645Y-189449733D01*
X206729645Y-189449733D02*
X206932026Y-189354495D01*
X207777264Y-190211638D02*
X207943931Y-188878304D01*
X207896312Y-189259257D02*
X208015359Y-189068780D01*
X208015359Y-189068780D02*
X208122502Y-188973542D01*
X208122502Y-188973542D02*
X208324883Y-188878304D01*
X208324883Y-188878304D02*
X208515359Y-188878304D01*
X209789169Y-190116400D02*
X209586788Y-190211638D01*
X209586788Y-190211638D02*
X209205835Y-190211638D01*
X209205835Y-190211638D02*
X209027264Y-190116400D01*
X209027264Y-190116400D02*
X208955835Y-189925923D01*
X208955835Y-189925923D02*
X209051074Y-189164019D01*
X209051074Y-189164019D02*
X209170121Y-188973542D01*
X209170121Y-188973542D02*
X209372502Y-188878304D01*
X209372502Y-188878304D02*
X209753454Y-188878304D01*
X209753454Y-188878304D02*
X209932026Y-188973542D01*
X209932026Y-188973542D02*
X210003454Y-189164019D01*
X210003454Y-189164019D02*
X209979645Y-189354495D01*
X209979645Y-189354495D02*
X209003454Y-189544971D01*
X213051074Y-189164019D02*
X213324884Y-189259257D01*
X213324884Y-189259257D02*
X213408217Y-189354495D01*
X213408217Y-189354495D02*
X213479646Y-189544971D01*
X213479646Y-189544971D02*
X213443931Y-189830685D01*
X213443931Y-189830685D02*
X213324884Y-190021161D01*
X213324884Y-190021161D02*
X213217741Y-190116400D01*
X213217741Y-190116400D02*
X213015360Y-190211638D01*
X213015360Y-190211638D02*
X212253455Y-190211638D01*
X212253455Y-190211638D02*
X212503455Y-188211638D01*
X212503455Y-188211638D02*
X213170122Y-188211638D01*
X213170122Y-188211638D02*
X213348693Y-188306876D01*
X213348693Y-188306876D02*
X213432027Y-188402114D01*
X213432027Y-188402114D02*
X213503455Y-188592590D01*
X213503455Y-188592590D02*
X213479646Y-188783066D01*
X213479646Y-188783066D02*
X213360598Y-188973542D01*
X213360598Y-188973542D02*
X213253455Y-189068780D01*
X213253455Y-189068780D02*
X213051074Y-189164019D01*
X213051074Y-189164019D02*
X212384408Y-189164019D01*
X214539170Y-190211638D02*
X214360598Y-190116400D01*
X214360598Y-190116400D02*
X214277265Y-190021161D01*
X214277265Y-190021161D02*
X214205836Y-189830685D01*
X214205836Y-189830685D02*
X214277265Y-189259257D01*
X214277265Y-189259257D02*
X214396312Y-189068780D01*
X214396312Y-189068780D02*
X214503455Y-188973542D01*
X214503455Y-188973542D02*
X214705836Y-188878304D01*
X214705836Y-188878304D02*
X214991550Y-188878304D01*
X214991550Y-188878304D02*
X215170122Y-188973542D01*
X215170122Y-188973542D02*
X215253455Y-189068780D01*
X215253455Y-189068780D02*
X215324884Y-189259257D01*
X215324884Y-189259257D02*
X215253455Y-189830685D01*
X215253455Y-189830685D02*
X215134408Y-190021161D01*
X215134408Y-190021161D02*
X215027265Y-190116400D01*
X215027265Y-190116400D02*
X214824884Y-190211638D01*
X214824884Y-190211638D02*
X214539170Y-190211638D01*
X216229646Y-188878304D02*
X216062979Y-190211638D01*
X216205836Y-189068780D02*
X216312979Y-188973542D01*
X216312979Y-188973542D02*
X216515360Y-188878304D01*
X216515360Y-188878304D02*
X216801074Y-188878304D01*
X216801074Y-188878304D02*
X216979646Y-188973542D01*
X216979646Y-188973542D02*
X217051074Y-189164019D01*
X217051074Y-189164019D02*
X216920122Y-190211638D01*
X218646313Y-190116400D02*
X218443932Y-190211638D01*
X218443932Y-190211638D02*
X218062979Y-190211638D01*
X218062979Y-190211638D02*
X217884408Y-190116400D01*
X217884408Y-190116400D02*
X217812979Y-189925923D01*
X217812979Y-189925923D02*
X217908218Y-189164019D01*
X217908218Y-189164019D02*
X218027265Y-188973542D01*
X218027265Y-188973542D02*
X218229646Y-188878304D01*
X218229646Y-188878304D02*
X218610598Y-188878304D01*
X218610598Y-188878304D02*
X218789170Y-188973542D01*
X218789170Y-188973542D02*
X218860598Y-189164019D01*
X218860598Y-189164019D02*
X218836789Y-189354495D01*
X218836789Y-189354495D02*
X217860598Y-189544971D01*
X219503456Y-190116400D02*
X219682027Y-190211638D01*
X219682027Y-190211638D02*
X220062980Y-190211638D01*
X220062980Y-190211638D02*
X220265361Y-190116400D01*
X220265361Y-190116400D02*
X220384408Y-189925923D01*
X220384408Y-189925923D02*
X220396313Y-189830685D01*
X220396313Y-189830685D02*
X220324884Y-189640209D01*
X220324884Y-189640209D02*
X220146313Y-189544971D01*
X220146313Y-189544971D02*
X219860599Y-189544971D01*
X219860599Y-189544971D02*
X219682027Y-189449733D01*
X219682027Y-189449733D02*
X219610599Y-189259257D01*
X219610599Y-189259257D02*
X219622504Y-189164019D01*
X219622504Y-189164019D02*
X219741551Y-188973542D01*
X219741551Y-188973542D02*
X219943932Y-188878304D01*
X219943932Y-188878304D02*
X220229646Y-188878304D01*
X220229646Y-188878304D02*
X220408218Y-188973542D01*
D10*
D11*
X178958026Y-185607614D02*
X178458026Y-185607614D01*
X178458026Y-186393328D02*
X178458026Y-184893328D01*
X178458026Y-184893328D02*
X179172312Y-184893328D01*
X179743740Y-186393328D02*
X179743740Y-185393328D01*
X179743740Y-184893328D02*
X179672312Y-184964757D01*
X179672312Y-184964757D02*
X179743740Y-185036185D01*
X179743740Y-185036185D02*
X179815169Y-184964757D01*
X179815169Y-184964757D02*
X179743740Y-184893328D01*
X179743740Y-184893328D02*
X179743740Y-185036185D01*
X180672312Y-186393328D02*
X180529455Y-186321900D01*
X180529455Y-186321900D02*
X180458026Y-186179042D01*
X180458026Y-186179042D02*
X180458026Y-184893328D01*
X181815169Y-186321900D02*
X181672312Y-186393328D01*
X181672312Y-186393328D02*
X181386598Y-186393328D01*
X181386598Y-186393328D02*
X181243740Y-186321900D01*
X181243740Y-186321900D02*
X181172312Y-186179042D01*
X181172312Y-186179042D02*
X181172312Y-185607614D01*
X181172312Y-185607614D02*
X181243740Y-185464757D01*
X181243740Y-185464757D02*
X181386598Y-185393328D01*
X181386598Y-185393328D02*
X181672312Y-185393328D01*
X181672312Y-185393328D02*
X181815169Y-185464757D01*
X181815169Y-185464757D02*
X181886598Y-185607614D01*
X181886598Y-185607614D02*
X181886598Y-185750471D01*
X181886598Y-185750471D02*
X181172312Y-185893328D01*
X182529454Y-186250471D02*
X182600883Y-186321900D01*
X182600883Y-186321900D02*
X182529454Y-186393328D01*
X182529454Y-186393328D02*
X182458026Y-186321900D01*
X182458026Y-186321900D02*
X182529454Y-186250471D01*
X182529454Y-186250471D02*
X182529454Y-186393328D01*
X182529454Y-185464757D02*
X182600883Y-185536185D01*
X182600883Y-185536185D02*
X182529454Y-185607614D01*
X182529454Y-185607614D02*
X182458026Y-185536185D01*
X182458026Y-185536185D02*
X182529454Y-185464757D01*
X182529454Y-185464757D02*
X182529454Y-185607614D01*
X184386597Y-186393328D02*
X184386597Y-185393328D01*
X184386597Y-184893328D02*
X184315169Y-184964757D01*
X184315169Y-184964757D02*
X184386597Y-185036185D01*
X184386597Y-185036185D02*
X184458026Y-184964757D01*
X184458026Y-184964757D02*
X184386597Y-184893328D01*
X184386597Y-184893328D02*
X184386597Y-185036185D01*
X185100883Y-186393328D02*
X185100883Y-184893328D01*
X185100883Y-184893328D02*
X185600883Y-185964757D01*
X185600883Y-185964757D02*
X186100883Y-184893328D01*
X186100883Y-184893328D02*
X186100883Y-186393328D01*
X186672312Y-184893328D02*
X187672312Y-186393328D01*
X187672312Y-184893328D02*
X186672312Y-186393328D01*
X188886598Y-184893328D02*
X188600883Y-184893328D01*
X188600883Y-184893328D02*
X188458026Y-184964757D01*
X188458026Y-184964757D02*
X188386598Y-185036185D01*
X188386598Y-185036185D02*
X188243740Y-185250471D01*
X188243740Y-185250471D02*
X188172312Y-185536185D01*
X188172312Y-185536185D02*
X188172312Y-186107614D01*
X188172312Y-186107614D02*
X188243740Y-186250471D01*
X188243740Y-186250471D02*
X188315169Y-186321900D01*
X188315169Y-186321900D02*
X188458026Y-186393328D01*
X188458026Y-186393328D02*
X188743740Y-186393328D01*
X188743740Y-186393328D02*
X188886598Y-186321900D01*
X188886598Y-186321900D02*
X188958026Y-186250471D01*
X188958026Y-186250471D02*
X189029455Y-186107614D01*
X189029455Y-186107614D02*
X189029455Y-185750471D01*
X189029455Y-185750471D02*
X188958026Y-185607614D01*
X188958026Y-185607614D02*
X188886598Y-185536185D01*
X188886598Y-185536185D02*
X188743740Y-185464757D01*
X188743740Y-185464757D02*
X188458026Y-185464757D01*
X188458026Y-185464757D02*
X188315169Y-185536185D01*
X188315169Y-185536185D02*
X188243740Y-185607614D01*
X188243740Y-185607614D02*
X188172312Y-185750471D01*
X189315169Y-186536185D02*
X190458026Y-186536185D01*
X191315168Y-185607614D02*
X191529454Y-185679042D01*
X191529454Y-185679042D02*
X191600883Y-185750471D01*
X191600883Y-185750471D02*
X191672311Y-185893328D01*
X191672311Y-185893328D02*
X191672311Y-186107614D01*
X191672311Y-186107614D02*
X191600883Y-186250471D01*
X191600883Y-186250471D02*
X191529454Y-186321900D01*
X191529454Y-186321900D02*
X191386597Y-186393328D01*
X191386597Y-186393328D02*
X190815168Y-186393328D01*
X190815168Y-186393328D02*
X190815168Y-184893328D01*
X190815168Y-184893328D02*
X191315168Y-184893328D01*
X191315168Y-184893328D02*
X191458026Y-184964757D01*
X191458026Y-184964757D02*
X191529454Y-185036185D01*
X191529454Y-185036185D02*
X191600883Y-185179042D01*
X191600883Y-185179042D02*
X191600883Y-185321900D01*
X191600883Y-185321900D02*
X191529454Y-185464757D01*
X191529454Y-185464757D02*
X191458026Y-185536185D01*
X191458026Y-185536185D02*
X191315168Y-185607614D01*
X191315168Y-185607614D02*
X190815168Y-185607614D01*
X192958026Y-186393328D02*
X192958026Y-185607614D01*
X192958026Y-185607614D02*
X192886597Y-185464757D01*
X192886597Y-185464757D02*
X192743740Y-185393328D01*
X192743740Y-185393328D02*
X192458026Y-185393328D01*
X192458026Y-185393328D02*
X192315168Y-185464757D01*
X192958026Y-186321900D02*
X192815168Y-186393328D01*
X192815168Y-186393328D02*
X192458026Y-186393328D01*
X192458026Y-186393328D02*
X192315168Y-186321900D01*
X192315168Y-186321900D02*
X192243740Y-186179042D01*
X192243740Y-186179042D02*
X192243740Y-186036185D01*
X192243740Y-186036185D02*
X192315168Y-185893328D01*
X192315168Y-185893328D02*
X192458026Y-185821900D01*
X192458026Y-185821900D02*
X192815168Y-185821900D01*
X192815168Y-185821900D02*
X192958026Y-185750471D01*
X193672311Y-186393328D02*
X193672311Y-185393328D01*
X193672311Y-185679042D02*
X193743740Y-185536185D01*
X193743740Y-185536185D02*
X193815169Y-185464757D01*
X193815169Y-185464757D02*
X193958026Y-185393328D01*
X193958026Y-185393328D02*
X194100883Y-185393328D01*
X195172311Y-186321900D02*
X195029454Y-186393328D01*
X195029454Y-186393328D02*
X194743740Y-186393328D01*
X194743740Y-186393328D02*
X194600882Y-186321900D01*
X194600882Y-186321900D02*
X194529454Y-186179042D01*
X194529454Y-186179042D02*
X194529454Y-185607614D01*
X194529454Y-185607614D02*
X194600882Y-185464757D01*
X194600882Y-185464757D02*
X194743740Y-185393328D01*
X194743740Y-185393328D02*
X195029454Y-185393328D01*
X195029454Y-185393328D02*
X195172311Y-185464757D01*
X195172311Y-185464757D02*
X195243740Y-185607614D01*
X195243740Y-185607614D02*
X195243740Y-185750471D01*
X195243740Y-185750471D02*
X194529454Y-185893328D01*
X196386596Y-185607614D02*
X196600882Y-185679042D01*
X196600882Y-185679042D02*
X196672311Y-185750471D01*
X196672311Y-185750471D02*
X196743739Y-185893328D01*
X196743739Y-185893328D02*
X196743739Y-186107614D01*
X196743739Y-186107614D02*
X196672311Y-186250471D01*
X196672311Y-186250471D02*
X196600882Y-186321900D01*
X196600882Y-186321900D02*
X196458025Y-186393328D01*
X196458025Y-186393328D02*
X195886596Y-186393328D01*
X195886596Y-186393328D02*
X195886596Y-184893328D01*
X195886596Y-184893328D02*
X196386596Y-184893328D01*
X196386596Y-184893328D02*
X196529454Y-184964757D01*
X196529454Y-184964757D02*
X196600882Y-185036185D01*
X196600882Y-185036185D02*
X196672311Y-185179042D01*
X196672311Y-185179042D02*
X196672311Y-185321900D01*
X196672311Y-185321900D02*
X196600882Y-185464757D01*
X196600882Y-185464757D02*
X196529454Y-185536185D01*
X196529454Y-185536185D02*
X196386596Y-185607614D01*
X196386596Y-185607614D02*
X195886596Y-185607614D01*
X197600882Y-186393328D02*
X197458025Y-186321900D01*
X197458025Y-186321900D02*
X197386596Y-186250471D01*
X197386596Y-186250471D02*
X197315168Y-186107614D01*
X197315168Y-186107614D02*
X197315168Y-185679042D01*
X197315168Y-185679042D02*
X197386596Y-185536185D01*
X197386596Y-185536185D02*
X197458025Y-185464757D01*
X197458025Y-185464757D02*
X197600882Y-185393328D01*
X197600882Y-185393328D02*
X197815168Y-185393328D01*
X197815168Y-185393328D02*
X197958025Y-185464757D01*
X197958025Y-185464757D02*
X198029454Y-185536185D01*
X198029454Y-185536185D02*
X198100882Y-185679042D01*
X198100882Y-185679042D02*
X198100882Y-186107614D01*
X198100882Y-186107614D02*
X198029454Y-186250471D01*
X198029454Y-186250471D02*
X197958025Y-186321900D01*
X197958025Y-186321900D02*
X197815168Y-186393328D01*
X197815168Y-186393328D02*
X197600882Y-186393328D01*
X198743739Y-185393328D02*
X198743739Y-186393328D01*
X198743739Y-185536185D02*
X198815168Y-185464757D01*
X198815168Y-185464757D02*
X198958025Y-185393328D01*
X198958025Y-185393328D02*
X199172311Y-185393328D01*
X199172311Y-185393328D02*
X199315168Y-185464757D01*
X199315168Y-185464757D02*
X199386597Y-185607614D01*
X199386597Y-185607614D02*
X199386597Y-186393328D01*
X200672311Y-186321900D02*
X200529454Y-186393328D01*
X200529454Y-186393328D02*
X200243740Y-186393328D01*
X200243740Y-186393328D02*
X200100882Y-186321900D01*
X200100882Y-186321900D02*
X200029454Y-186179042D01*
X200029454Y-186179042D02*
X200029454Y-185607614D01*
X200029454Y-185607614D02*
X200100882Y-185464757D01*
X200100882Y-185464757D02*
X200243740Y-185393328D01*
X200243740Y-185393328D02*
X200529454Y-185393328D01*
X200529454Y-185393328D02*
X200672311Y-185464757D01*
X200672311Y-185464757D02*
X200743740Y-185607614D01*
X200743740Y-185607614D02*
X200743740Y-185750471D01*
X200743740Y-185750471D02*
X200029454Y-185893328D01*
X201315168Y-186321900D02*
X201458025Y-186393328D01*
X201458025Y-186393328D02*
X201743739Y-186393328D01*
X201743739Y-186393328D02*
X201886596Y-186321900D01*
X201886596Y-186321900D02*
X201958025Y-186179042D01*
X201958025Y-186179042D02*
X201958025Y-186107614D01*
X201958025Y-186107614D02*
X201886596Y-185964757D01*
X201886596Y-185964757D02*
X201743739Y-185893328D01*
X201743739Y-185893328D02*
X201529454Y-185893328D01*
X201529454Y-185893328D02*
X201386596Y-185821900D01*
X201386596Y-185821900D02*
X201315168Y-185679042D01*
X201315168Y-185679042D02*
X201315168Y-185607614D01*
X201315168Y-185607614D02*
X201386596Y-185464757D01*
X201386596Y-185464757D02*
X201529454Y-185393328D01*
X201529454Y-185393328D02*
X201743739Y-185393328D01*
X201743739Y-185393328D02*
X201886596Y-185464757D01*
X202600882Y-186250471D02*
X202672311Y-186321900D01*
X202672311Y-186321900D02*
X202600882Y-186393328D01*
X202600882Y-186393328D02*
X202529454Y-186321900D01*
X202529454Y-186321900D02*
X202600882Y-186250471D01*
X202600882Y-186250471D02*
X202600882Y-186393328D01*
X203315168Y-186393328D02*
X203315168Y-184893328D01*
X203458026Y-185821900D02*
X203886597Y-186393328D01*
X203886597Y-185393328D02*
X203315168Y-185964757D01*
X204529454Y-186393328D02*
X204529454Y-185393328D01*
X204529454Y-184893328D02*
X204458026Y-184964757D01*
X204458026Y-184964757D02*
X204529454Y-185036185D01*
X204529454Y-185036185D02*
X204600883Y-184964757D01*
X204600883Y-184964757D02*
X204529454Y-184893328D01*
X204529454Y-184893328D02*
X204529454Y-185036185D01*
X205886598Y-186321900D02*
X205743740Y-186393328D01*
X205743740Y-186393328D02*
X205458026Y-186393328D01*
X205458026Y-186393328D02*
X205315169Y-186321900D01*
X205315169Y-186321900D02*
X205243740Y-186250471D01*
X205243740Y-186250471D02*
X205172312Y-186107614D01*
X205172312Y-186107614D02*
X205172312Y-185679042D01*
X205172312Y-185679042D02*
X205243740Y-185536185D01*
X205243740Y-185536185D02*
X205315169Y-185464757D01*
X205315169Y-185464757D02*
X205458026Y-185393328D01*
X205458026Y-185393328D02*
X205743740Y-185393328D01*
X205743740Y-185393328D02*
X205886598Y-185464757D01*
X207172312Y-186393328D02*
X207172312Y-185607614D01*
X207172312Y-185607614D02*
X207100883Y-185464757D01*
X207100883Y-185464757D02*
X206958026Y-185393328D01*
X206958026Y-185393328D02*
X206672312Y-185393328D01*
X206672312Y-185393328D02*
X206529454Y-185464757D01*
X207172312Y-186321900D02*
X207029454Y-186393328D01*
X207029454Y-186393328D02*
X206672312Y-186393328D01*
X206672312Y-186393328D02*
X206529454Y-186321900D01*
X206529454Y-186321900D02*
X206458026Y-186179042D01*
X206458026Y-186179042D02*
X206458026Y-186036185D01*
X206458026Y-186036185D02*
X206529454Y-185893328D01*
X206529454Y-185893328D02*
X206672312Y-185821900D01*
X206672312Y-185821900D02*
X207029454Y-185821900D01*
X207029454Y-185821900D02*
X207172312Y-185750471D01*
X208529455Y-186393328D02*
X208529455Y-184893328D01*
X208529455Y-186321900D02*
X208386597Y-186393328D01*
X208386597Y-186393328D02*
X208100883Y-186393328D01*
X208100883Y-186393328D02*
X207958026Y-186321900D01*
X207958026Y-186321900D02*
X207886597Y-186250471D01*
X207886597Y-186250471D02*
X207815169Y-186107614D01*
X207815169Y-186107614D02*
X207815169Y-185679042D01*
X207815169Y-185679042D02*
X207886597Y-185536185D01*
X207886597Y-185536185D02*
X207958026Y-185464757D01*
X207958026Y-185464757D02*
X208100883Y-185393328D01*
X208100883Y-185393328D02*
X208386597Y-185393328D01*
X208386597Y-185393328D02*
X208529455Y-185464757D01*
X208886598Y-186536185D02*
X210029455Y-186536185D01*
X210386597Y-185393328D02*
X210386597Y-186893328D01*
X210386597Y-185464757D02*
X210529455Y-185393328D01*
X210529455Y-185393328D02*
X210815169Y-185393328D01*
X210815169Y-185393328D02*
X210958026Y-185464757D01*
X210958026Y-185464757D02*
X211029455Y-185536185D01*
X211029455Y-185536185D02*
X211100883Y-185679042D01*
X211100883Y-185679042D02*
X211100883Y-186107614D01*
X211100883Y-186107614D02*
X211029455Y-186250471D01*
X211029455Y-186250471D02*
X210958026Y-186321900D01*
X210958026Y-186321900D02*
X210815169Y-186393328D01*
X210815169Y-186393328D02*
X210529455Y-186393328D01*
X210529455Y-186393328D02*
X210386597Y-186321900D01*
X212386598Y-186321900D02*
X212243740Y-186393328D01*
X212243740Y-186393328D02*
X211958026Y-186393328D01*
X211958026Y-186393328D02*
X211815169Y-186321900D01*
X211815169Y-186321900D02*
X211743740Y-186250471D01*
X211743740Y-186250471D02*
X211672312Y-186107614D01*
X211672312Y-186107614D02*
X211672312Y-185679042D01*
X211672312Y-185679042D02*
X211743740Y-185536185D01*
X211743740Y-185536185D02*
X211815169Y-185464757D01*
X211815169Y-185464757D02*
X211958026Y-185393328D01*
X211958026Y-185393328D02*
X212243740Y-185393328D01*
X212243740Y-185393328D02*
X212386598Y-185464757D01*
X213029454Y-186393328D02*
X213029454Y-184893328D01*
X213029454Y-185464757D02*
X213172312Y-185393328D01*
X213172312Y-185393328D02*
X213458026Y-185393328D01*
X213458026Y-185393328D02*
X213600883Y-185464757D01*
X213600883Y-185464757D02*
X213672312Y-185536185D01*
X213672312Y-185536185D02*
X213743740Y-185679042D01*
X213743740Y-185679042D02*
X213743740Y-186107614D01*
X213743740Y-186107614D02*
X213672312Y-186250471D01*
X213672312Y-186250471D02*
X213600883Y-186321900D01*
X213600883Y-186321900D02*
X213458026Y-186393328D01*
X213458026Y-186393328D02*
X213172312Y-186393328D01*
X213172312Y-186393328D02*
X213029454Y-186321900D01*
D10*
D11*
X177002200Y-181507200D02*
X285002200Y-181507200D01*
D10*
D11*
X178386598Y-183621900D02*
X178600884Y-183693328D01*
X178600884Y-183693328D02*
X178958026Y-183693328D01*
X178958026Y-183693328D02*
X179100884Y-183621900D01*
X179100884Y-183621900D02*
X179172312Y-183550471D01*
X179172312Y-183550471D02*
X179243741Y-183407614D01*
X179243741Y-183407614D02*
X179243741Y-183264757D01*
X179243741Y-183264757D02*
X179172312Y-183121900D01*
X179172312Y-183121900D02*
X179100884Y-183050471D01*
X179100884Y-183050471D02*
X178958026Y-182979042D01*
X178958026Y-182979042D02*
X178672312Y-182907614D01*
X178672312Y-182907614D02*
X178529455Y-182836185D01*
X178529455Y-182836185D02*
X178458026Y-182764757D01*
X178458026Y-182764757D02*
X178386598Y-182621900D01*
X178386598Y-182621900D02*
X178386598Y-182479042D01*
X178386598Y-182479042D02*
X178458026Y-182336185D01*
X178458026Y-182336185D02*
X178529455Y-182264757D01*
X178529455Y-182264757D02*
X178672312Y-182193328D01*
X178672312Y-182193328D02*
X179029455Y-182193328D01*
X179029455Y-182193328D02*
X179243741Y-182264757D01*
X179886597Y-183693328D02*
X179886597Y-182193328D01*
X180529455Y-183693328D02*
X180529455Y-182907614D01*
X180529455Y-182907614D02*
X180458026Y-182764757D01*
X180458026Y-182764757D02*
X180315169Y-182693328D01*
X180315169Y-182693328D02*
X180100883Y-182693328D01*
X180100883Y-182693328D02*
X179958026Y-182764757D01*
X179958026Y-182764757D02*
X179886597Y-182836185D01*
X181815169Y-183621900D02*
X181672312Y-183693328D01*
X181672312Y-183693328D02*
X181386598Y-183693328D01*
X181386598Y-183693328D02*
X181243740Y-183621900D01*
X181243740Y-183621900D02*
X181172312Y-183479042D01*
X181172312Y-183479042D02*
X181172312Y-182907614D01*
X181172312Y-182907614D02*
X181243740Y-182764757D01*
X181243740Y-182764757D02*
X181386598Y-182693328D01*
X181386598Y-182693328D02*
X181672312Y-182693328D01*
X181672312Y-182693328D02*
X181815169Y-182764757D01*
X181815169Y-182764757D02*
X181886598Y-182907614D01*
X181886598Y-182907614D02*
X181886598Y-183050471D01*
X181886598Y-183050471D02*
X181172312Y-183193328D01*
X183100883Y-183621900D02*
X182958026Y-183693328D01*
X182958026Y-183693328D02*
X182672312Y-183693328D01*
X182672312Y-183693328D02*
X182529454Y-183621900D01*
X182529454Y-183621900D02*
X182458026Y-183479042D01*
X182458026Y-183479042D02*
X182458026Y-182907614D01*
X182458026Y-182907614D02*
X182529454Y-182764757D01*
X182529454Y-182764757D02*
X182672312Y-182693328D01*
X182672312Y-182693328D02*
X182958026Y-182693328D01*
X182958026Y-182693328D02*
X183100883Y-182764757D01*
X183100883Y-182764757D02*
X183172312Y-182907614D01*
X183172312Y-182907614D02*
X183172312Y-183050471D01*
X183172312Y-183050471D02*
X182458026Y-183193328D01*
X183600883Y-182693328D02*
X184172311Y-182693328D01*
X183815168Y-182193328D02*
X183815168Y-183479042D01*
X183815168Y-183479042D02*
X183886597Y-183621900D01*
X183886597Y-183621900D02*
X184029454Y-183693328D01*
X184029454Y-183693328D02*
X184172311Y-183693328D01*
X184672311Y-183550471D02*
X184743740Y-183621900D01*
X184743740Y-183621900D02*
X184672311Y-183693328D01*
X184672311Y-183693328D02*
X184600883Y-183621900D01*
X184600883Y-183621900D02*
X184672311Y-183550471D01*
X184672311Y-183550471D02*
X184672311Y-183693328D01*
X184672311Y-182764757D02*
X184743740Y-182836185D01*
X184743740Y-182836185D02*
X184672311Y-182907614D01*
X184672311Y-182907614D02*
X184600883Y-182836185D01*
X184600883Y-182836185D02*
X184672311Y-182764757D01*
X184672311Y-182764757D02*
X184672311Y-182907614D01*
D10*
D12*
X178413853Y-179185528D02*
X178770996Y-180685528D01*
X178770996Y-180685528D02*
X179056710Y-179614100D01*
X179056710Y-179614100D02*
X179342425Y-180685528D01*
X179342425Y-180685528D02*
X179699568Y-179185528D01*
X180485282Y-180685528D02*
X180342425Y-180614100D01*
X180342425Y-180614100D02*
X180270996Y-180542671D01*
X180270996Y-180542671D02*
X180199568Y-180399814D01*
X180199568Y-180399814D02*
X180199568Y-179971242D01*
X180199568Y-179971242D02*
X180270996Y-179828385D01*
X180270996Y-179828385D02*
X180342425Y-179756957D01*
X180342425Y-179756957D02*
X180485282Y-179685528D01*
X180485282Y-179685528D02*
X180699568Y-179685528D01*
X180699568Y-179685528D02*
X180842425Y-179756957D01*
X180842425Y-179756957D02*
X180913854Y-179828385D01*
X180913854Y-179828385D02*
X180985282Y-179971242D01*
X180985282Y-179971242D02*
X180985282Y-180399814D01*
X180985282Y-180399814D02*
X180913854Y-180542671D01*
X180913854Y-180542671D02*
X180842425Y-180614100D01*
X180842425Y-180614100D02*
X180699568Y-180685528D01*
X180699568Y-180685528D02*
X180485282Y-180685528D01*
X181842425Y-180685528D02*
X181699568Y-180614100D01*
X181699568Y-180614100D02*
X181628139Y-180471242D01*
X181628139Y-180471242D02*
X181628139Y-179185528D01*
X182199568Y-179685528D02*
X182770996Y-179685528D01*
X182413853Y-180685528D02*
X182413853Y-179399814D01*
X182413853Y-179399814D02*
X182485282Y-179256957D01*
X182485282Y-179256957D02*
X182628139Y-179185528D01*
X182628139Y-179185528D02*
X182770996Y-179185528D01*
X183842425Y-180614100D02*
X183699568Y-180685528D01*
X183699568Y-180685528D02*
X183413854Y-180685528D01*
X183413854Y-180685528D02*
X183270996Y-180614100D01*
X183270996Y-180614100D02*
X183199568Y-180471242D01*
X183199568Y-180471242D02*
X183199568Y-179899814D01*
X183199568Y-179899814D02*
X183270996Y-179756957D01*
X183270996Y-179756957D02*
X183413854Y-179685528D01*
X183413854Y-179685528D02*
X183699568Y-179685528D01*
X183699568Y-179685528D02*
X183842425Y-179756957D01*
X183842425Y-179756957D02*
X183913854Y-179899814D01*
X183913854Y-179899814D02*
X183913854Y-180042671D01*
X183913854Y-180042671D02*
X183199568Y-180185528D01*
X185699567Y-179899814D02*
X186199567Y-179899814D01*
X186413853Y-180685528D02*
X185699567Y-180685528D01*
X185699567Y-180685528D02*
X185699567Y-179185528D01*
X185699567Y-179185528D02*
X186413853Y-179185528D01*
X187270996Y-180685528D02*
X187128139Y-180614100D01*
X187128139Y-180614100D02*
X187056710Y-180471242D01*
X187056710Y-180471242D02*
X187056710Y-179185528D01*
X188413853Y-180614100D02*
X188270996Y-180685528D01*
X188270996Y-180685528D02*
X187985282Y-180685528D01*
X187985282Y-180685528D02*
X187842424Y-180614100D01*
X187842424Y-180614100D02*
X187770996Y-180471242D01*
X187770996Y-180471242D02*
X187770996Y-179899814D01*
X187770996Y-179899814D02*
X187842424Y-179756957D01*
X187842424Y-179756957D02*
X187985282Y-179685528D01*
X187985282Y-179685528D02*
X188270996Y-179685528D01*
X188270996Y-179685528D02*
X188413853Y-179756957D01*
X188413853Y-179756957D02*
X188485282Y-179899814D01*
X188485282Y-179899814D02*
X188485282Y-180042671D01*
X188485282Y-180042671D02*
X187770996Y-180185528D01*
X189770996Y-180614100D02*
X189628138Y-180685528D01*
X189628138Y-180685528D02*
X189342424Y-180685528D01*
X189342424Y-180685528D02*
X189199567Y-180614100D01*
X189199567Y-180614100D02*
X189128138Y-180542671D01*
X189128138Y-180542671D02*
X189056710Y-180399814D01*
X189056710Y-180399814D02*
X189056710Y-179971242D01*
X189056710Y-179971242D02*
X189128138Y-179828385D01*
X189128138Y-179828385D02*
X189199567Y-179756957D01*
X189199567Y-179756957D02*
X189342424Y-179685528D01*
X189342424Y-179685528D02*
X189628138Y-179685528D01*
X189628138Y-179685528D02*
X189770996Y-179756957D01*
X190199567Y-179685528D02*
X190770995Y-179685528D01*
X190413852Y-179185528D02*
X190413852Y-180471242D01*
X190413852Y-180471242D02*
X190485281Y-180614100D01*
X190485281Y-180614100D02*
X190628138Y-180685528D01*
X190628138Y-180685528D02*
X190770995Y-180685528D01*
X191270995Y-180685528D02*
X191270995Y-179685528D01*
X191270995Y-179971242D02*
X191342424Y-179828385D01*
X191342424Y-179828385D02*
X191413853Y-179756957D01*
X191413853Y-179756957D02*
X191556710Y-179685528D01*
X191556710Y-179685528D02*
X191699567Y-179685528D01*
X192413852Y-180685528D02*
X192270995Y-180614100D01*
X192270995Y-180614100D02*
X192199566Y-180542671D01*
X192199566Y-180542671D02*
X192128138Y-180399814D01*
X192128138Y-180399814D02*
X192128138Y-179971242D01*
X192128138Y-179971242D02*
X192199566Y-179828385D01*
X192199566Y-179828385D02*
X192270995Y-179756957D01*
X192270995Y-179756957D02*
X192413852Y-179685528D01*
X192413852Y-179685528D02*
X192628138Y-179685528D01*
X192628138Y-179685528D02*
X192770995Y-179756957D01*
X192770995Y-179756957D02*
X192842424Y-179828385D01*
X192842424Y-179828385D02*
X192913852Y-179971242D01*
X192913852Y-179971242D02*
X192913852Y-180399814D01*
X192913852Y-180399814D02*
X192842424Y-180542671D01*
X192842424Y-180542671D02*
X192770995Y-180614100D01*
X192770995Y-180614100D02*
X192628138Y-180685528D01*
X192628138Y-180685528D02*
X192413852Y-180685528D01*
X193556709Y-179685528D02*
X193556709Y-180685528D01*
X193556709Y-179828385D02*
X193628138Y-179756957D01*
X193628138Y-179756957D02*
X193770995Y-179685528D01*
X193770995Y-179685528D02*
X193985281Y-179685528D01*
X193985281Y-179685528D02*
X194128138Y-179756957D01*
X194128138Y-179756957D02*
X194199567Y-179899814D01*
X194199567Y-179899814D02*
X194199567Y-180685528D01*
X194913852Y-180685528D02*
X194913852Y-179685528D01*
X194913852Y-179185528D02*
X194842424Y-179256957D01*
X194842424Y-179256957D02*
X194913852Y-179328385D01*
X194913852Y-179328385D02*
X194985281Y-179256957D01*
X194985281Y-179256957D02*
X194913852Y-179185528D01*
X194913852Y-179185528D02*
X194913852Y-179328385D01*
X196270996Y-180614100D02*
X196128138Y-180685528D01*
X196128138Y-180685528D02*
X195842424Y-180685528D01*
X195842424Y-180685528D02*
X195699567Y-180614100D01*
X195699567Y-180614100D02*
X195628138Y-180542671D01*
X195628138Y-180542671D02*
X195556710Y-180399814D01*
X195556710Y-180399814D02*
X195556710Y-179971242D01*
X195556710Y-179971242D02*
X195628138Y-179828385D01*
X195628138Y-179828385D02*
X195699567Y-179756957D01*
X195699567Y-179756957D02*
X195842424Y-179685528D01*
X195842424Y-179685528D02*
X196128138Y-179685528D01*
X196128138Y-179685528D02*
X196270996Y-179756957D01*
X196842424Y-180614100D02*
X196985281Y-180685528D01*
X196985281Y-180685528D02*
X197270995Y-180685528D01*
X197270995Y-180685528D02*
X197413852Y-180614100D01*
X197413852Y-180614100D02*
X197485281Y-180471242D01*
X197485281Y-180471242D02*
X197485281Y-180399814D01*
X197485281Y-180399814D02*
X197413852Y-180256957D01*
X197413852Y-180256957D02*
X197270995Y-180185528D01*
X197270995Y-180185528D02*
X197056710Y-180185528D01*
X197056710Y-180185528D02*
X196913852Y-180114100D01*
X196913852Y-180114100D02*
X196842424Y-179971242D01*
X196842424Y-179971242D02*
X196842424Y-179899814D01*
X196842424Y-179899814D02*
X196913852Y-179756957D01*
X196913852Y-179756957D02*
X197056710Y-179685528D01*
X197056710Y-179685528D02*
X197270995Y-179685528D01*
X197270995Y-179685528D02*
X197413852Y-179756957D01*
D10*
D11*
X197002200Y-191507200D02*
X197002200Y-194507200D01*
D10*
D11*
X261002200Y-191507200D02*
X261002200Y-198007200D01*
%TO.C,U8*%
G36*
X207126000Y-105718000D02*
G01*
X207826000Y-105718000D01*
X207826000Y-105018000D01*
X207126000Y-105018000D01*
X207126000Y-105718000D01*
G37*
G36*
X207126000Y-106818000D02*
G01*
X207826000Y-106818000D01*
X207826000Y-106118000D01*
X207126000Y-106118000D01*
X207126000Y-106818000D01*
G37*
G36*
X208226000Y-105718000D02*
G01*
X208926000Y-105718000D01*
X208926000Y-105018000D01*
X208226000Y-105018000D01*
X208226000Y-105718000D01*
G37*
G36*
X208226000Y-106818000D02*
G01*
X208926000Y-106818000D01*
X208926000Y-106118000D01*
X208226000Y-106118000D01*
X208226000Y-106818000D01*
G37*
%TO.C,U7*%
G36*
X185063000Y-95431000D02*
G01*
X186363000Y-95431000D01*
X186363000Y-94131000D01*
X185063000Y-94131000D01*
X185063000Y-95431000D01*
G37*
G36*
X185063000Y-97131000D02*
G01*
X186363000Y-97131000D01*
X186363000Y-95831000D01*
X185063000Y-95831000D01*
X185063000Y-97131000D01*
G37*
G36*
X186763000Y-95431000D02*
G01*
X188063000Y-95431000D01*
X188063000Y-94131000D01*
X186763000Y-94131000D01*
X186763000Y-95431000D01*
G37*
G36*
X186763000Y-97131000D02*
G01*
X188063000Y-97131000D01*
X188063000Y-95831000D01*
X186763000Y-95831000D01*
X186763000Y-97131000D01*
G37*
%TD*%
D14*
%TO.C,C121*%
X121158000Y-77950000D03*
X121158000Y-76990000D03*
%TD*%
D15*
%TO.C,C103*%
X215110000Y-48895000D03*
X214150000Y-48895000D03*
%TD*%
D16*
%TO.C,D7*%
X108068000Y-47073000D03*
X108908000Y-47073000D03*
%TD*%
D15*
%TO.C,C101*%
X203299000Y-48918500D03*
X202339000Y-48918500D03*
%TD*%
D17*
%TO.C,R2*%
X105585800Y-99237800D03*
X106605800Y-99237800D03*
%TD*%
%TO.C,R259*%
X137259600Y-59172600D03*
X138279600Y-59172600D03*
%TD*%
D18*
%TO.C,D1*%
X154178000Y-122721000D03*
X154178000Y-121881000D03*
%TD*%
D19*
%TO.C,U16*%
X166304001Y-58822999D03*
X165354000Y-58822999D03*
X164404002Y-58822999D03*
X164404002Y-61572999D03*
X166304001Y-61572999D03*
%TD*%
D20*
%TO.C,TP32*%
X190423800Y-98729800D03*
%TD*%
D15*
%TO.C,C147*%
X185138000Y-89027000D03*
X184178000Y-89027000D03*
%TD*%
D21*
%TO.C,C28*%
X154362000Y-99330700D03*
X154362000Y-100290700D03*
%TD*%
D15*
%TO.C,C32*%
X141128000Y-90565100D03*
X140168000Y-90565100D03*
%TD*%
D22*
%TO.C,R243*%
X110617000Y-74801000D03*
X110617000Y-75821000D03*
%TD*%
D23*
%TO.C,U15*%
X139958600Y-56423600D03*
X139958600Y-55473600D03*
X139958600Y-54523600D03*
X137358600Y-54523600D03*
X137358600Y-55473600D03*
X137358600Y-56423600D03*
%TD*%
D24*
%TO.C,R249*%
X122682000Y-71122000D03*
X122682000Y-70102000D03*
%TD*%
D25*
%TO.C,SW3*%
X121100000Y-116892500D03*
X121100000Y-121972500D03*
X116020000Y-116892500D03*
X116020000Y-121972500D03*
%TD*%
D14*
%TO.C,C97*%
X210312000Y-69949000D03*
X210312000Y-68989000D03*
%TD*%
D26*
%TO.C,L4*%
X125984000Y-77652000D03*
X125984000Y-81352000D03*
%TD*%
D27*
%TO.C,L1*%
X202418000Y-61873500D03*
X202418000Y-57423500D03*
X199918000Y-57423500D03*
X199918000Y-61873500D03*
%TD*%
D28*
%TO.C,R187*%
X204192600Y-105054400D03*
X203172600Y-105054400D03*
%TD*%
D29*
%TO.C,F14*%
X104080000Y-59182000D03*
X106880000Y-59182000D03*
%TD*%
D24*
%TO.C,R88*%
X200914000Y-123700000D03*
X200914000Y-122680000D03*
%TD*%
D30*
%TO.C,U18*%
X98629000Y-112387000D03*
D31*
X98634000Y-111887000D03*
X98634000Y-111387000D03*
X98634000Y-110887000D03*
X98044000Y-110887000D03*
X98044000Y-111387000D03*
X98044000Y-111887000D03*
X98044000Y-112387000D03*
%TD*%
D17*
%TO.C,R92*%
X146408200Y-68340100D03*
X147428200Y-68340100D03*
%TD*%
D32*
%TO.C,TP17*%
X148520400Y-81751300D03*
%TD*%
D15*
%TO.C,C109*%
X102378000Y-60579000D03*
X101418000Y-60579000D03*
%TD*%
D24*
%TO.C,R117*%
X118110000Y-112298000D03*
X118110000Y-111278000D03*
%TD*%
D28*
%TO.C,R113*%
X181231000Y-91440000D03*
X180211000Y-91440000D03*
%TD*%
D33*
%TO.C,U14*%
X121986000Y-75214000D03*
X122936000Y-75214000D03*
X123886000Y-75214000D03*
X123886000Y-72614000D03*
X122936000Y-72614000D03*
X121986000Y-72614000D03*
%TD*%
D34*
%TO.C,U13*%
X107200700Y-74179999D03*
X107200700Y-74680000D03*
X107200700Y-75180000D03*
X107200700Y-75680001D03*
X108699300Y-75680001D03*
X108699300Y-75180000D03*
X108699300Y-74680000D03*
X108699300Y-74179999D03*
%TD*%
D35*
%TO.C,H3*%
X91580000Y-121920000D03*
X92282944Y-120222944D03*
X92282944Y-123617056D03*
X93980000Y-119520000D03*
D36*
X93980000Y-121920000D03*
D35*
X93980000Y-124320000D03*
X95677056Y-120222944D03*
X95677056Y-123617056D03*
X96380000Y-121920000D03*
%TD*%
D20*
%TO.C,TP26*%
X135695000Y-89041100D03*
%TD*%
D37*
%TO.C,Q1*%
X109916000Y-116347000D03*
X109916000Y-115697000D03*
X109916000Y-115047000D03*
X108016000Y-115047000D03*
X108016000Y-115697000D03*
X108016000Y-116347000D03*
%TD*%
D24*
%TO.C,R172*%
X205384400Y-65915000D03*
X205384400Y-64895000D03*
%TD*%
D28*
%TO.C,R74*%
X154307000Y-117856000D03*
X153287000Y-117856000D03*
%TD*%
%TO.C,R178*%
X203329000Y-53975000D03*
X202309000Y-53975000D03*
%TD*%
D17*
%TO.C,R169*%
X124407200Y-115290600D03*
X125427200Y-115290600D03*
%TD*%
D24*
%TO.C,R69*%
X162438080Y-107723400D03*
X162438080Y-106703400D03*
%TD*%
D38*
%TO.C,FID3*%
X216916000Y-43180000D03*
%TD*%
D39*
%TO.C,Y2*%
X143696000Y-88146700D03*
X143696000Y-90646700D03*
%TD*%
D21*
%TO.C,C119*%
X127254000Y-72926000D03*
X127254000Y-73886000D03*
%TD*%
D40*
%TO.C,U8*%
X206776000Y-107168000D03*
D41*
X207276000Y-107468000D03*
X207776000Y-107468000D03*
X208276000Y-107468000D03*
X208776000Y-107468000D03*
D40*
X209276000Y-107168000D03*
D42*
X209576000Y-106668000D03*
X209576000Y-106168000D03*
X209576000Y-105668000D03*
X209576000Y-105168000D03*
D40*
X209276000Y-104668000D03*
D41*
X208776000Y-104368000D03*
X208276000Y-104368000D03*
X207776000Y-104368000D03*
X207276000Y-104368000D03*
D40*
X206776000Y-104668000D03*
D42*
X206476000Y-105168000D03*
X206476000Y-105668000D03*
X206476000Y-106168000D03*
X206476000Y-106668000D03*
%TD*%
D17*
%TO.C,R266*%
X102106000Y-108077000D03*
X103126000Y-108077000D03*
%TD*%
D22*
%TO.C,R240*%
X109220000Y-49671000D03*
X109220000Y-50691000D03*
%TD*%
D43*
%TO.C,C112*%
X105169000Y-72390000D03*
X103619000Y-72390000D03*
%TD*%
D29*
%TO.C,F18*%
X180591000Y-63627000D03*
X183391000Y-63627000D03*
%TD*%
D44*
%TO.C,J3*%
X156071000Y-124229000D03*
D45*
X156471000Y-113079000D03*
D46*
X158276000Y-111954000D03*
X166056000Y-111954000D03*
D44*
X170361000Y-112749000D03*
D47*
X170361000Y-124079000D03*
D48*
X166116000Y-124709000D03*
X165016000Y-124709000D03*
X163916000Y-124709000D03*
X162816000Y-124709000D03*
X161716000Y-124709000D03*
X160616000Y-124709000D03*
X159516000Y-124709000D03*
X158416000Y-124709000D03*
D49*
X156471000Y-122079000D03*
%TD*%
D50*
%TO.C,TP41*%
X97790000Y-50292000D03*
%TD*%
D51*
%TO.C,D5*%
X199390000Y-108536500D03*
X199390000Y-110411500D03*
%TD*%
D52*
%TO.C,R177*%
X199517000Y-50292000D03*
X199517000Y-52117000D03*
%TD*%
D14*
%TO.C,C99*%
X201168000Y-51811500D03*
X201168000Y-50851500D03*
%TD*%
D53*
%TO.C,L5*%
X142269600Y-52425600D03*
X145969600Y-52425600D03*
%TD*%
D54*
%TO.C,H6*%
X216916000Y-45720000D03*
%TD*%
D22*
%TO.C,R91*%
X134728200Y-73595900D03*
X134728200Y-74615900D03*
%TD*%
D15*
%TO.C,C137*%
X126238000Y-118110000D03*
X125278000Y-118110000D03*
%TD*%
D20*
%TO.C,TP58*%
X96180000Y-113288000D03*
%TD*%
D17*
%TO.C,R58*%
X146234000Y-88126700D03*
X147254000Y-88126700D03*
%TD*%
D55*
%TO.C,C129*%
X166611000Y-55626000D03*
X168161000Y-55626000D03*
%TD*%
D56*
%TO.C,F16*%
X178282600Y-59055000D03*
X175482600Y-59055000D03*
%TD*%
D57*
%TO.C,R276*%
X110744000Y-121562500D03*
X110744000Y-119737500D03*
%TD*%
D24*
%TO.C,R274*%
X106045000Y-108841000D03*
X106045000Y-107821000D03*
%TD*%
D50*
%TO.C,TP42*%
X97282000Y-80181000D03*
%TD*%
D17*
%TO.C,R3*%
X105587800Y-97900400D03*
X106607800Y-97900400D03*
%TD*%
%TO.C,R265*%
X95416000Y-111383000D03*
X96436000Y-111383000D03*
%TD*%
D58*
%TO.C,C114*%
X106200000Y-77724000D03*
X107160000Y-77724000D03*
%TD*%
D28*
%TO.C,R105*%
X192661000Y-97917000D03*
X191641000Y-97917000D03*
%TD*%
D35*
%TO.C,H1*%
X91580000Y-43180000D03*
X92282944Y-41482944D03*
X92282944Y-44877056D03*
X93980000Y-40780000D03*
D36*
X93980000Y-43180000D03*
D35*
X93980000Y-45580000D03*
X95677056Y-41482944D03*
X95677056Y-44877056D03*
X96380000Y-43180000D03*
%TD*%
D59*
%TO.C,U11*%
X212159000Y-67564000D03*
X212159000Y-68834000D03*
X212159000Y-70104000D03*
X212159000Y-71374000D03*
X217609000Y-71374000D03*
X217609000Y-70104000D03*
X217609000Y-68834000D03*
X217609000Y-67564000D03*
%TD*%
D20*
%TO.C,TP51*%
X123698000Y-109474000D03*
%TD*%
D28*
%TO.C,R162*%
X152224200Y-104571800D03*
X151204200Y-104571800D03*
%TD*%
D17*
%TO.C,R89*%
X203706000Y-107315000D03*
X204726000Y-107315000D03*
%TD*%
%TO.C,R236*%
X167003000Y-83693000D03*
X168023000Y-83693000D03*
%TD*%
D60*
%TO.C,F11*%
X124714000Y-70488000D03*
X124714000Y-67688000D03*
%TD*%
D24*
%TO.C,R66*%
X167858440Y-109677200D03*
X167858440Y-108657200D03*
%TD*%
D20*
%TO.C,TP29*%
X179578000Y-94996000D03*
%TD*%
D61*
%TO.C,SW1*%
X114327000Y-99187000D03*
X114327000Y-97917000D03*
X108177000Y-97917000D03*
X108177000Y-99187000D03*
%TD*%
D24*
%TO.C,R62*%
X158816040Y-109677200D03*
X158816040Y-108657200D03*
%TD*%
D22*
%TO.C,R57*%
X123588000Y-96137000D03*
X123588000Y-97157000D03*
%TD*%
D58*
%TO.C,C125*%
X137289600Y-58013600D03*
X138249600Y-58013600D03*
%TD*%
D59*
%TO.C,U10*%
X198316000Y-67564000D03*
X198316000Y-68834000D03*
X198316000Y-70104000D03*
X198316000Y-71374000D03*
X203766000Y-71374000D03*
X203766000Y-70104000D03*
X203766000Y-68834000D03*
X203766000Y-67564000D03*
%TD*%
D58*
%TO.C,C30*%
X147509000Y-78627100D03*
X148469000Y-78627100D03*
%TD*%
D28*
%TO.C,R185*%
X152224200Y-103454200D03*
X151204200Y-103454200D03*
%TD*%
D24*
%TO.C,R237*%
X104170000Y-43690000D03*
X104170000Y-42670000D03*
%TD*%
D17*
%TO.C,R234*%
X167003000Y-82677000D03*
X168023000Y-82677000D03*
%TD*%
%TO.C,R261*%
X163320000Y-55880000D03*
X164340000Y-55880000D03*
%TD*%
D22*
%TO.C,R171*%
X204114400Y-64895000D03*
X204114400Y-65915000D03*
%TD*%
D35*
%TO.C,H2*%
X221120000Y-43180000D03*
X221822944Y-41482944D03*
X221822944Y-44877056D03*
X223520000Y-40780000D03*
D36*
X223520000Y-43180000D03*
D35*
X223520000Y-45580000D03*
X225217056Y-41482944D03*
X225217056Y-44877056D03*
X225920000Y-43180000D03*
%TD*%
D62*
%TO.C,U19*%
X107837999Y-110245149D03*
X107188000Y-110245149D03*
X106538001Y-110245149D03*
X106538001Y-112512851D03*
X107188000Y-112512851D03*
X107837999Y-112512851D03*
%TD*%
D28*
%TO.C,R114*%
X181231000Y-92456000D03*
X180211000Y-92456000D03*
%TD*%
%TO.C,R192*%
X196471000Y-71501000D03*
X195451000Y-71501000D03*
%TD*%
D58*
%TO.C,C130*%
X166398000Y-57150000D03*
X167358000Y-57150000D03*
%TD*%
D17*
%TO.C,R218*%
X169289000Y-92608400D03*
X170309000Y-92608400D03*
%TD*%
D14*
%TO.C,C47*%
X211328000Y-109446000D03*
X211328000Y-108486000D03*
%TD*%
D63*
%TO.C,F8*%
X129286000Y-42288000D03*
X129286000Y-45088000D03*
%TD*%
D17*
%TO.C,R108*%
X191639000Y-96901000D03*
X192659000Y-96901000D03*
%TD*%
D20*
%TO.C,TP30*%
X185801000Y-90297000D03*
%TD*%
D43*
%TO.C,C108*%
X102178000Y-58928000D03*
X100628000Y-58928000D03*
%TD*%
D24*
%TO.C,R71*%
X160639760Y-107698000D03*
X160639760Y-106678000D03*
%TD*%
D21*
%TO.C,C83*%
X135382000Y-110264000D03*
X135382000Y-111224000D03*
%TD*%
D56*
%TO.C,F6*%
X200282000Y-41275000D03*
X197482000Y-41275000D03*
%TD*%
%TO.C,F15*%
X133480000Y-110236000D03*
X130680000Y-110236000D03*
%TD*%
D17*
%TO.C,R109*%
X191639000Y-95885000D03*
X192659000Y-95885000D03*
%TD*%
D22*
%TO.C,R250*%
X119380000Y-72337200D03*
X119380000Y-73357200D03*
%TD*%
D14*
%TO.C,C94*%
X196342000Y-69949000D03*
X196342000Y-68989000D03*
%TD*%
D17*
%TO.C,R232*%
X167003000Y-80645000D03*
X168023000Y-80645000D03*
%TD*%
%TO.C,R233*%
X167003000Y-84709000D03*
X168023000Y-84709000D03*
%TD*%
D21*
%TO.C,C135*%
X119634000Y-111308000D03*
X119634000Y-112268000D03*
%TD*%
D64*
%TO.C,U5*%
X143618000Y-80664700D03*
X142818000Y-80664700D03*
X142018000Y-80664700D03*
X138818000Y-80664700D03*
X138018000Y-80664700D03*
X137218000Y-80664700D03*
X143618000Y-79864700D03*
X142818000Y-79864700D03*
X142018000Y-79864700D03*
X138818000Y-79864700D03*
X138018000Y-79864700D03*
X137218000Y-79864700D03*
X143618000Y-79064700D03*
X142818000Y-79064700D03*
X142018000Y-79064700D03*
X138818000Y-79064700D03*
X138018000Y-79064700D03*
X137218000Y-79064700D03*
X143618000Y-78264700D03*
X142818000Y-78264700D03*
X142018000Y-78264700D03*
X138818000Y-78264700D03*
X138018000Y-78264700D03*
X137218000Y-78264700D03*
X143618000Y-77464700D03*
X142818000Y-77464700D03*
X142018000Y-77464700D03*
X138818000Y-77464700D03*
X138018000Y-77464700D03*
X137218000Y-77464700D03*
X143618000Y-76664700D03*
X142818000Y-76664700D03*
X142018000Y-76664700D03*
X138818000Y-76664700D03*
X138018000Y-76664700D03*
X137218000Y-76664700D03*
X143618000Y-75864700D03*
X142818000Y-75864700D03*
X142018000Y-75864700D03*
X138818000Y-75864700D03*
X138018000Y-75864700D03*
X137218000Y-75864700D03*
X143618000Y-75064700D03*
X142818000Y-75064700D03*
X142018000Y-75064700D03*
X138818000Y-75064700D03*
X138018000Y-75064700D03*
X137218000Y-75064700D03*
X143618000Y-74264700D03*
X142818000Y-74264700D03*
X142018000Y-74264700D03*
X138818000Y-74264700D03*
X138018000Y-74264700D03*
X137218000Y-74264700D03*
X143618000Y-73464700D03*
X142818000Y-73464700D03*
X142018000Y-73464700D03*
X138818000Y-73464700D03*
X138018000Y-73464700D03*
X137218000Y-73464700D03*
X143618000Y-72664700D03*
X142818000Y-72664700D03*
X142018000Y-72664700D03*
X138818000Y-72664700D03*
X138018000Y-72664700D03*
X137218000Y-72664700D03*
X143618000Y-71864700D03*
X142818000Y-71864700D03*
X142018000Y-71864700D03*
X138818000Y-71864700D03*
X138018000Y-71864700D03*
X137218000Y-71864700D03*
X143618000Y-71064700D03*
X142818000Y-71064700D03*
X142018000Y-71064700D03*
X138818000Y-71064700D03*
X138018000Y-71064700D03*
X137218000Y-71064700D03*
X143618000Y-70264700D03*
X142818000Y-70264700D03*
X142018000Y-70264700D03*
X138818000Y-70264700D03*
X138018000Y-70264700D03*
X137218000Y-70264700D03*
X143618000Y-69464700D03*
X142818000Y-69464700D03*
X142018000Y-69464700D03*
X138818000Y-69464700D03*
X138018000Y-69464700D03*
X137218000Y-69464700D03*
X143618000Y-68664700D03*
X142818000Y-68664700D03*
X142018000Y-68664700D03*
X138818000Y-68664700D03*
X138018000Y-68664700D03*
X137218000Y-68664700D03*
%TD*%
D24*
%TO.C,R63*%
X162433000Y-109704600D03*
X162433000Y-108684600D03*
%TD*%
D58*
%TO.C,C124*%
X137797600Y-51155600D03*
X138757600Y-51155600D03*
%TD*%
%TO.C,C128*%
X163350000Y-57150000D03*
X164310000Y-57150000D03*
%TD*%
D65*
%TO.C,C87*%
X116680000Y-56432000D03*
X122080000Y-56432000D03*
%TD*%
D29*
%TO.C,F10*%
X110106000Y-70275000D03*
X112906000Y-70275000D03*
%TD*%
D24*
%TO.C,R106*%
X193802000Y-95912400D03*
X193802000Y-94892400D03*
%TD*%
D15*
%TO.C,C29*%
X148494400Y-75731500D03*
X147534400Y-75731500D03*
%TD*%
D22*
%TO.C,R251*%
X121412000Y-70102000D03*
X121412000Y-71122000D03*
%TD*%
%TO.C,R86*%
X207365600Y-112824800D03*
X207365600Y-113844800D03*
%TD*%
D66*
%TO.C,TP44*%
X118110000Y-81026000D03*
%TD*%
D28*
%TO.C,R54*%
X148518306Y-76682600D03*
X147498306Y-76682600D03*
%TD*%
D14*
%TO.C,C98*%
X209169000Y-69949000D03*
X209169000Y-68989000D03*
%TD*%
D56*
%TO.C,F1*%
X178282600Y-54483000D03*
X175482600Y-54483000D03*
%TD*%
D14*
%TO.C,C136*%
X126187200Y-113027400D03*
X126187200Y-112067400D03*
%TD*%
D22*
%TO.C,R167*%
X124917200Y-112037400D03*
X124917200Y-113057400D03*
%TD*%
D24*
%TO.C,R87*%
X216154000Y-123700000D03*
X216154000Y-122680000D03*
%TD*%
D56*
%TO.C,F3*%
X144656000Y-97917000D03*
X141856000Y-97917000D03*
%TD*%
D21*
%TO.C,C117*%
X120396000Y-72390000D03*
X120396000Y-73350000D03*
%TD*%
D20*
%TO.C,TP31*%
X128701800Y-120472200D03*
%TD*%
D67*
%TO.C,U4*%
X112125000Y-54086000D03*
X111625000Y-54086000D03*
X111125000Y-54086000D03*
X112125000Y-53586000D03*
X111625000Y-53586000D03*
X111125000Y-53586000D03*
X112125000Y-53086000D03*
X111625000Y-53086000D03*
X111125000Y-53086000D03*
X112125000Y-52586000D03*
X111625000Y-52586000D03*
X111125000Y-52586000D03*
X112125000Y-52086000D03*
X111625000Y-52086000D03*
X111125000Y-52086000D03*
%TD*%
D24*
%TO.C,R174*%
X219202000Y-65915000D03*
X219202000Y-64895000D03*
%TD*%
D17*
%TO.C,R90*%
X203706000Y-106248200D03*
X204726000Y-106248200D03*
%TD*%
D24*
%TO.C,R61*%
X158816040Y-107696000D03*
X158816040Y-106676000D03*
%TD*%
D28*
%TO.C,R189*%
X210314000Y-67183000D03*
X209294000Y-67183000D03*
%TD*%
D17*
%TO.C,R59*%
X146234000Y-89396700D03*
X147254000Y-89396700D03*
%TD*%
D24*
%TO.C,R52*%
X150552000Y-96764700D03*
X150552000Y-95744700D03*
%TD*%
D28*
%TO.C,R168*%
X220601000Y-70967600D03*
X219581000Y-70967600D03*
%TD*%
D17*
%TO.C,R60*%
X146234000Y-90666700D03*
X147254000Y-90666700D03*
%TD*%
D66*
%TO.C,TP57*%
X220599000Y-93218000D03*
%TD*%
D38*
%TO.C,FID2*%
X216992200Y-120116600D03*
%TD*%
D56*
%TO.C,F13*%
X166246000Y-53340000D03*
X163446000Y-53340000D03*
%TD*%
D24*
%TO.C,R239*%
X110490000Y-50691000D03*
X110490000Y-49671000D03*
%TD*%
D32*
%TO.C,TP7*%
X145878800Y-76315700D03*
%TD*%
D17*
%TO.C,R55*%
X147504400Y-77661900D03*
X148524400Y-77661900D03*
%TD*%
D28*
%TO.C,R83*%
X213870000Y-106426000D03*
X212850000Y-106426000D03*
%TD*%
D17*
%TO.C,R179*%
X199007000Y-53975000D03*
X200027000Y-53975000D03*
%TD*%
%TO.C,R219*%
X169289000Y-91567000D03*
X170309000Y-91567000D03*
%TD*%
D24*
%TO.C,R273*%
X108458000Y-108841000D03*
X108458000Y-107821000D03*
%TD*%
D20*
%TO.C,TP28*%
X181102000Y-96266000D03*
%TD*%
D28*
%TO.C,R188*%
X204192600Y-103886000D03*
X203172600Y-103886000D03*
%TD*%
D17*
%TO.C,R260*%
X134465600Y-56997600D03*
X135485600Y-56997600D03*
%TD*%
D55*
%TO.C,C133*%
X102476000Y-53274001D03*
X104026000Y-53274001D03*
%TD*%
D58*
%TO.C,C90*%
X146264000Y-93232100D03*
X147224000Y-93232100D03*
%TD*%
D57*
%TO.C,R176*%
X202819000Y-52117000D03*
X202819000Y-50292000D03*
%TD*%
D22*
%TO.C,R159*%
X139141200Y-109954600D03*
X139141200Y-110974600D03*
%TD*%
D50*
%TO.C,TP43*%
X118110000Y-62484000D03*
%TD*%
D28*
%TO.C,R258*%
X135485600Y-55473600D03*
X134465600Y-55473600D03*
%TD*%
D22*
%TO.C,R263*%
X100838000Y-107059000D03*
X100838000Y-108079000D03*
%TD*%
D21*
%TO.C,C92*%
X181737000Y-98197000D03*
X181737000Y-99157000D03*
%TD*%
D22*
%TO.C,R241*%
X108585000Y-52846000D03*
X108585000Y-53866000D03*
%TD*%
D58*
%TO.C,C102*%
X199037000Y-48918500D03*
X199997000Y-48918500D03*
%TD*%
D14*
%TO.C,C100*%
X212979000Y-51661000D03*
X212979000Y-50701000D03*
%TD*%
D56*
%TO.C,F12*%
X135188600Y-53441600D03*
X132388600Y-53441600D03*
%TD*%
D14*
%TO.C,C111*%
X108966000Y-78204000D03*
X108966000Y-77244000D03*
%TD*%
D61*
%TO.C,SW2*%
X212321800Y-85090000D03*
X212321800Y-83820000D03*
X212321800Y-82550000D03*
X212321800Y-81280000D03*
X206171800Y-81280000D03*
X206171800Y-82550000D03*
X206171800Y-83820000D03*
X206171800Y-85090000D03*
%TD*%
D17*
%TO.C,R223*%
X169293000Y-89535000D03*
X170313000Y-89535000D03*
%TD*%
D43*
%TO.C,C126*%
X143370600Y-55727600D03*
X141820600Y-55727600D03*
%TD*%
D17*
%TO.C,R231*%
X167003000Y-79629000D03*
X168023000Y-79629000D03*
%TD*%
%TO.C,R264*%
X95416000Y-110240000D03*
X96436000Y-110240000D03*
%TD*%
D55*
%TO.C,C122*%
X137502600Y-52679600D03*
X139052600Y-52679600D03*
%TD*%
D68*
%TO.C,C82*%
X136906000Y-109461000D03*
X136906000Y-111011000D03*
%TD*%
D22*
%TO.C,R262*%
X99568000Y-107059000D03*
X99568000Y-108079000D03*
%TD*%
D29*
%TO.C,F17*%
X180562600Y-59055000D03*
X183362600Y-59055000D03*
%TD*%
D22*
%TO.C,R278*%
X105511600Y-114679000D03*
X105511600Y-115699000D03*
%TD*%
D27*
%TO.C,L2*%
X214229000Y-61829500D03*
X214229000Y-57379500D03*
X211729000Y-57379500D03*
X211729000Y-61829500D03*
%TD*%
D69*
%TO.C,C86*%
X114620000Y-50181000D03*
X116520000Y-50181000D03*
%TD*%
D22*
%TO.C,R175*%
X217932000Y-64895000D03*
X217932000Y-65915000D03*
%TD*%
D15*
%TO.C,C132*%
X166276001Y-64918999D03*
X165316001Y-64918999D03*
%TD*%
D70*
%TO.C,U1*%
X163442000Y-80812700D03*
X163442000Y-81612700D03*
X163442000Y-82412700D03*
X163442000Y-83212700D03*
X163442000Y-84012700D03*
X163442000Y-84812700D03*
X163442000Y-85612700D03*
X163442000Y-86412700D03*
X163442000Y-87212700D03*
X163442000Y-88012700D03*
X163442000Y-88812700D03*
X163442000Y-89612700D03*
X163442000Y-90412700D03*
X163442000Y-91212700D03*
X163442000Y-92012700D03*
X163442000Y-92812700D03*
X163442000Y-93612700D03*
X162642000Y-80812700D03*
X162642000Y-81612700D03*
X162642000Y-82412700D03*
X162642000Y-83212700D03*
X162642000Y-84012700D03*
X162642000Y-84812700D03*
X162642000Y-85612700D03*
X162642000Y-86412700D03*
X162642000Y-87212700D03*
X162642000Y-88012700D03*
X162642000Y-88812700D03*
X162642000Y-89612700D03*
X162642000Y-90412700D03*
X162642000Y-91212700D03*
X162642000Y-92012700D03*
X162642000Y-92812700D03*
X162642000Y-93612700D03*
X161842000Y-80812700D03*
X161842000Y-81612700D03*
X161842000Y-82412700D03*
X161842000Y-83212700D03*
X161842000Y-84012700D03*
X161842000Y-84812700D03*
X161842000Y-85612700D03*
X161842000Y-86412700D03*
X161842000Y-87212700D03*
X161842000Y-88012700D03*
X161842000Y-88812700D03*
X161842000Y-89612700D03*
X161842000Y-90412700D03*
X161842000Y-91212700D03*
X161842000Y-92012700D03*
X161842000Y-92812700D03*
X161842000Y-93612700D03*
X161042000Y-80812700D03*
X161042000Y-81612700D03*
X161042000Y-82412700D03*
X161042000Y-83212700D03*
X161042000Y-84012700D03*
X161042000Y-84812700D03*
X161042000Y-85612700D03*
X161042000Y-86412700D03*
X161042000Y-87212700D03*
X161042000Y-88012700D03*
X161042000Y-88812700D03*
X161042000Y-89612700D03*
X161042000Y-90412700D03*
X161042000Y-91212700D03*
X161042000Y-92012700D03*
X161042000Y-92812700D03*
X161042000Y-93612700D03*
X160242000Y-80812700D03*
X160242000Y-81612700D03*
X160242000Y-82412700D03*
X160242000Y-83212700D03*
X160242000Y-84012700D03*
X160242000Y-84812700D03*
X160242000Y-85612700D03*
X160242000Y-86412700D03*
X160242000Y-87212700D03*
X160242000Y-88012700D03*
X160242000Y-88812700D03*
X160242000Y-89612700D03*
X160242000Y-90412700D03*
X160242000Y-91212700D03*
X160242000Y-92012700D03*
X160242000Y-92812700D03*
X160242000Y-93612700D03*
X159442000Y-80812700D03*
X159442000Y-81612700D03*
X159442000Y-82412700D03*
X159442000Y-83212700D03*
X159442000Y-84012700D03*
X159442000Y-84812700D03*
X159442000Y-85612700D03*
X159442000Y-86412700D03*
X159442000Y-87212700D03*
X159442000Y-88012700D03*
X159442000Y-88812700D03*
X159442000Y-89612700D03*
X159442000Y-90412700D03*
X159442000Y-91212700D03*
X159442000Y-92012700D03*
X159442000Y-92812700D03*
X159442000Y-93612700D03*
X158642000Y-80812700D03*
X158642000Y-81612700D03*
X158642000Y-82412700D03*
X158642000Y-83212700D03*
X158642000Y-84012700D03*
X158642000Y-84812700D03*
X158642000Y-85612700D03*
X158642000Y-86412700D03*
X158642000Y-87212700D03*
X158642000Y-88012700D03*
X158642000Y-88812700D03*
X158642000Y-89612700D03*
X158642000Y-90412700D03*
X158642000Y-91212700D03*
X158642000Y-92012700D03*
X158642000Y-92812700D03*
X158642000Y-93612700D03*
X157842000Y-80812700D03*
X157842000Y-81612700D03*
X157842000Y-82412700D03*
X157842000Y-83212700D03*
X157842000Y-84012700D03*
X157842000Y-84812700D03*
X157842000Y-85612700D03*
X157842000Y-86412700D03*
X157842000Y-87212700D03*
X157842000Y-88012700D03*
X157842000Y-88812700D03*
X157842000Y-89612700D03*
X157842000Y-90412700D03*
X157842000Y-91212700D03*
X157842000Y-92012700D03*
X157842000Y-92812700D03*
X157842000Y-93612700D03*
X157042000Y-80812700D03*
X157042000Y-81612700D03*
X157042000Y-82412700D03*
X157042000Y-83212700D03*
X157042000Y-84012700D03*
X157042000Y-84812700D03*
X157042000Y-85612700D03*
X157042000Y-86412700D03*
X157042000Y-87212700D03*
X157042000Y-88012700D03*
X157042000Y-88812700D03*
X157042000Y-89612700D03*
X157042000Y-90412700D03*
X157042000Y-91212700D03*
X157042000Y-92012700D03*
X157042000Y-92812700D03*
X157042000Y-93612700D03*
X156242000Y-80812700D03*
X156242000Y-81612700D03*
X156242000Y-82412700D03*
X156242000Y-83212700D03*
X156242000Y-84012700D03*
X156242000Y-84812700D03*
X156242000Y-85612700D03*
X156242000Y-86412700D03*
X156242000Y-87212700D03*
X156242000Y-88012700D03*
X156242000Y-88812700D03*
X156242000Y-89612700D03*
X156242000Y-90412700D03*
X156242000Y-91212700D03*
X156242000Y-92012700D03*
X156242000Y-92812700D03*
X156242000Y-93612700D03*
X155442000Y-80812700D03*
X155442000Y-81612700D03*
X155442000Y-82412700D03*
X155442000Y-83212700D03*
X155442000Y-84012700D03*
X155442000Y-84812700D03*
X155442000Y-85612700D03*
X155442000Y-86412700D03*
X155442000Y-87212700D03*
X155442000Y-88012700D03*
X155442000Y-88812700D03*
X155442000Y-89612700D03*
X155442000Y-90412700D03*
X155442000Y-91212700D03*
X155442000Y-92012700D03*
X155442000Y-92812700D03*
X155442000Y-93612700D03*
X154642000Y-80812700D03*
X154642000Y-81612700D03*
X154642000Y-82412700D03*
X154642000Y-83212700D03*
X154642000Y-84012700D03*
X154642000Y-84812700D03*
X154642000Y-85612700D03*
X154642000Y-86412700D03*
X154642000Y-87212700D03*
X154642000Y-88012700D03*
X154642000Y-88812700D03*
X154642000Y-89612700D03*
X154642000Y-90412700D03*
X154642000Y-91212700D03*
X154642000Y-92012700D03*
X154642000Y-92812700D03*
X154642000Y-93612700D03*
X153842000Y-80812700D03*
X153842000Y-81612700D03*
X153842000Y-82412700D03*
X153842000Y-83212700D03*
X153842000Y-84012700D03*
X153842000Y-84812700D03*
X153842000Y-85612700D03*
X153842000Y-86412700D03*
X153842000Y-87212700D03*
X153842000Y-88012700D03*
X153842000Y-88812700D03*
X153842000Y-89612700D03*
X153842000Y-90412700D03*
X153842000Y-91212700D03*
X153842000Y-92012700D03*
X153842000Y-92812700D03*
X153842000Y-93612700D03*
X153042000Y-80812700D03*
X153042000Y-81612700D03*
X153042000Y-82412700D03*
X153042000Y-83212700D03*
X153042000Y-84012700D03*
X153042000Y-84812700D03*
X153042000Y-85612700D03*
X153042000Y-86412700D03*
X153042000Y-87212700D03*
X153042000Y-88012700D03*
X153042000Y-88812700D03*
X153042000Y-89612700D03*
X153042000Y-90412700D03*
X153042000Y-91212700D03*
X153042000Y-92012700D03*
X153042000Y-92812700D03*
X153042000Y-93612700D03*
X152242000Y-80812700D03*
X152242000Y-81612700D03*
X152242000Y-82412700D03*
X152242000Y-83212700D03*
X152242000Y-84012700D03*
X152242000Y-84812700D03*
X152242000Y-85612700D03*
X152242000Y-86412700D03*
X152242000Y-87212700D03*
X152242000Y-88012700D03*
X152242000Y-88812700D03*
X152242000Y-89612700D03*
X152242000Y-90412700D03*
X152242000Y-91212700D03*
X152242000Y-92012700D03*
X152242000Y-92812700D03*
X152242000Y-93612700D03*
X151442000Y-80812700D03*
X151442000Y-81612700D03*
X151442000Y-82412700D03*
X151442000Y-83212700D03*
X151442000Y-84012700D03*
X151442000Y-84812700D03*
X151442000Y-85612700D03*
X151442000Y-86412700D03*
X151442000Y-87212700D03*
X151442000Y-88012700D03*
X151442000Y-88812700D03*
X151442000Y-89612700D03*
X151442000Y-90412700D03*
X151442000Y-91212700D03*
X151442000Y-92012700D03*
X151442000Y-92812700D03*
X151442000Y-93612700D03*
X150642000Y-80812700D03*
X150642000Y-81612700D03*
X150642000Y-82412700D03*
X150642000Y-83212700D03*
X150642000Y-84012700D03*
X150642000Y-84812700D03*
X150642000Y-85612700D03*
X150642000Y-86412700D03*
X150642000Y-87212700D03*
X150642000Y-88012700D03*
X150642000Y-88812700D03*
X150642000Y-89612700D03*
X150642000Y-90412700D03*
X150642000Y-91212700D03*
X150642000Y-92012700D03*
X150642000Y-92812700D03*
X150642000Y-93612700D03*
%TD*%
D17*
%TO.C,R173*%
X215644000Y-65913000D03*
X216664000Y-65913000D03*
%TD*%
D58*
%TO.C,C60*%
X149767600Y-78550900D03*
X150727600Y-78550900D03*
%TD*%
D55*
%TO.C,C113*%
X105905000Y-79248000D03*
X107455000Y-79248000D03*
%TD*%
D14*
%TO.C,C46*%
X210312004Y-109446000D03*
X210312004Y-108486000D03*
%TD*%
D57*
%TO.C,R275*%
X108331000Y-121562500D03*
X108331000Y-119737500D03*
%TD*%
D17*
%TO.C,R267*%
X125248000Y-116840000D03*
X126268000Y-116840000D03*
%TD*%
%TO.C,R166*%
X202690000Y-74295000D03*
X203710000Y-74295000D03*
%TD*%
D58*
%TO.C,C96*%
X219611000Y-69697600D03*
X220571000Y-69697600D03*
%TD*%
D71*
%TO.C,Y1*%
X150478000Y-100142700D03*
X152658000Y-100142700D03*
X152658000Y-98462700D03*
X150478000Y-98462700D03*
%TD*%
D24*
%TO.C,R280*%
X106654600Y-115699000D03*
X106654600Y-114679000D03*
%TD*%
D17*
%TO.C,R235*%
X167003000Y-81661000D03*
X168023000Y-81661000D03*
%TD*%
D58*
%TO.C,C104*%
X210721000Y-48895000D03*
X211681000Y-48895000D03*
%TD*%
D24*
%TO.C,R72*%
X167858440Y-107696000D03*
X167858440Y-106676000D03*
%TD*%
D17*
%TO.C,R170*%
X201826400Y-65913000D03*
X202846400Y-65913000D03*
%TD*%
D72*
%TO.C,U9*%
X128057001Y-118084600D03*
X128706999Y-118084600D03*
X129357001Y-118084600D03*
X130006999Y-118084600D03*
X130006999Y-113563400D03*
X129357001Y-113563400D03*
X128706999Y-113563400D03*
X128057001Y-113563400D03*
%TD*%
D17*
%TO.C,R181*%
X210691000Y-53975000D03*
X211711000Y-53975000D03*
%TD*%
D35*
%TO.C,H4*%
X220980000Y-121920000D03*
X221682944Y-120222944D03*
X221682944Y-123617056D03*
X223380000Y-119520000D03*
D36*
X223380000Y-121920000D03*
D35*
X223380000Y-124320000D03*
X225077056Y-120222944D03*
X225077056Y-123617056D03*
X225780000Y-121920000D03*
%TD*%
D73*
%TO.C,J4*%
X180915000Y-116658000D03*
X192345000Y-116658000D03*
D74*
X191075000Y-107768000D03*
D75*
X189805000Y-110308000D03*
X188535000Y-107768000D03*
X187265000Y-110308000D03*
X185995000Y-107768000D03*
X184725000Y-110308000D03*
X183455000Y-107768000D03*
X182185000Y-110308000D03*
D76*
X192095000Y-102938000D03*
X189555000Y-102938000D03*
X183705000Y-102938000D03*
X181165000Y-102938000D03*
D77*
X178730000Y-113608000D03*
X194530000Y-113608000D03*
%TD*%
D57*
%TO.C,R182*%
X214630000Y-52093500D03*
X214630000Y-50268500D03*
%TD*%
D38*
%TO.C,FID1*%
X100330000Y-43180000D03*
%TD*%
D43*
%TO.C,C131*%
X166063001Y-63394999D03*
X164513001Y-63394999D03*
%TD*%
D22*
%TO.C,R158*%
X140360400Y-109954600D03*
X140360400Y-110974600D03*
%TD*%
D15*
%TO.C,C115*%
X104874000Y-73914000D03*
X103914000Y-73914000D03*
%TD*%
D78*
%TO.C,J2*%
X205644000Y-121127500D03*
X211424000Y-121127500D03*
D79*
X205334000Y-120052500D03*
X206134000Y-120052500D03*
D80*
X207284000Y-120052500D03*
X208284000Y-120052500D03*
X208784000Y-120052500D03*
X209784000Y-120052500D03*
D79*
X211734000Y-120052500D03*
X210934000Y-120052500D03*
D80*
X210284000Y-120052500D03*
X209284000Y-120052500D03*
X207784000Y-120052500D03*
X206784000Y-120052500D03*
D81*
X203424000Y-120627500D03*
X213644000Y-120627500D03*
X203424000Y-124557500D03*
X213644000Y-124557500D03*
%TD*%
D29*
%TO.C,F2*%
X180562600Y-54483000D03*
X183362600Y-54483000D03*
%TD*%
D66*
%TO.C,TP45*%
X145669000Y-59436000D03*
%TD*%
D82*
%TO.C,C120*%
X122682000Y-78753000D03*
X122682000Y-77203000D03*
%TD*%
D24*
%TO.C,R73*%
X166029640Y-107698000D03*
X166029640Y-106678000D03*
%TD*%
D54*
%TO.C,H7*%
X214884000Y-117221000D03*
%TD*%
D58*
%TO.C,C134*%
X102263000Y-51750001D03*
X103223000Y-51750001D03*
%TD*%
D24*
%TO.C,R64*%
X164256720Y-109702600D03*
X164256720Y-108682600D03*
%TD*%
D56*
%TO.C,F7*%
X200282000Y-45720000D03*
X197482000Y-45720000D03*
%TD*%
D24*
%TO.C,R67*%
X166039800Y-109679200D03*
X166039800Y-108659200D03*
%TD*%
D68*
%TO.C,C118*%
X125730000Y-72631000D03*
X125730000Y-74181000D03*
%TD*%
D22*
%TO.C,R163*%
X154305000Y-113536000D03*
X154305000Y-114556000D03*
%TD*%
D83*
%TO.C,D8*%
X105029000Y-119381500D03*
D84*
X102489000Y-119381500D03*
X105029000Y-121921500D03*
X102489000Y-121921500D03*
%TD*%
D24*
%TO.C,R68*%
X154178000Y-120652000D03*
X154178000Y-119632000D03*
%TD*%
D63*
%TO.C,F19*%
X213614000Y-109090000D03*
X213614000Y-111890000D03*
%TD*%
D26*
%TO.C,L3*%
X102616000Y-76045000D03*
X102616000Y-79745000D03*
%TD*%
D24*
%TO.C,R65*%
X160629600Y-109679200D03*
X160629600Y-108659200D03*
%TD*%
D22*
%TO.C,R85*%
X206298800Y-112824800D03*
X206298800Y-113844800D03*
%TD*%
D56*
%TO.C,F5*%
X178311000Y-63627000D03*
X175511000Y-63627000D03*
%TD*%
D20*
%TO.C,TP27*%
X189458600Y-100177600D03*
%TD*%
D51*
%TO.C,D4*%
X201676000Y-108536500D03*
X201676000Y-110411500D03*
%TD*%
D22*
%TO.C,R142*%
X180721000Y-98167000D03*
X180721000Y-99187000D03*
%TD*%
D85*
%TO.C,J8*%
X204480000Y-41890000D03*
D38*
X204480000Y-44430000D03*
X207020000Y-41890000D03*
X207020000Y-44430000D03*
X209560000Y-41890000D03*
X209560000Y-44430000D03*
X212100000Y-41890000D03*
X212100000Y-44430000D03*
%TD*%
D60*
%TO.C,F9*%
X112425000Y-50295000D03*
X112425000Y-47495000D03*
%TD*%
D28*
%TO.C,R191*%
X196445600Y-67005200D03*
X195425600Y-67005200D03*
%TD*%
D22*
%TO.C,R244*%
X110617000Y-72896000D03*
X110617000Y-73916000D03*
%TD*%
D86*
%TO.C,U12*%
X102432000Y-55118000D03*
X102432000Y-57017999D03*
X104832000Y-56068001D03*
%TD*%
D87*
%TO.C,J5*%
X136200000Y-114406000D03*
X138700000Y-114406000D03*
X140700000Y-114406000D03*
X143200000Y-114406000D03*
D88*
X133130000Y-117116000D03*
X146270000Y-117116000D03*
%TD*%
D17*
%TO.C,R222*%
X169293000Y-90551000D03*
X170313000Y-90551000D03*
%TD*%
D89*
%TO.C,U17*%
X123388000Y-111726000D03*
X121468000Y-111726000D03*
X122428000Y-113826000D03*
%TD*%
D15*
%TO.C,C27*%
X150035200Y-102158800D03*
X149075200Y-102158800D03*
%TD*%
D17*
%TO.C,R224*%
X169293000Y-88519000D03*
X170313000Y-88519000D03*
%TD*%
D50*
%TO.C,TP46*%
X171130001Y-63648999D03*
%TD*%
D15*
%TO.C,C31*%
X141128000Y-88152100D03*
X140168000Y-88152100D03*
%TD*%
%TO.C,C95*%
X203708000Y-73025000D03*
X202748000Y-73025000D03*
%TD*%
D90*
%TO.C,U6*%
X182444000Y-82296000D03*
X182444000Y-81796000D03*
X182444000Y-81296000D03*
X182444000Y-80796000D03*
X182444000Y-80296000D03*
X182444000Y-79796000D03*
X182444000Y-79296000D03*
X182444000Y-78796000D03*
X182444000Y-78296000D03*
X182444000Y-77796000D03*
X182444000Y-77296000D03*
X182444000Y-76796000D03*
X182444000Y-76296000D03*
X182444000Y-75796000D03*
X182944000Y-82296000D03*
X182944000Y-81796000D03*
X182944000Y-81296000D03*
X182944000Y-80796000D03*
X182944000Y-80296000D03*
X182944000Y-79796000D03*
X182944000Y-79296000D03*
X182944000Y-78796000D03*
X182944000Y-78296000D03*
X182944000Y-77796000D03*
X182944000Y-77296000D03*
X182944000Y-76796000D03*
X182944000Y-76296000D03*
X182944000Y-75796000D03*
X183444000Y-82296000D03*
X183444000Y-81796000D03*
X183444000Y-81296000D03*
X183444000Y-80796000D03*
X183444000Y-80296000D03*
X183444000Y-79796000D03*
X183444000Y-79296000D03*
X183444000Y-78796000D03*
X183444000Y-78296000D03*
X183444000Y-77796000D03*
X183444000Y-77296000D03*
X183444000Y-76796000D03*
X183444000Y-76296000D03*
X183444000Y-75796000D03*
X183944000Y-82296000D03*
X183944000Y-81796000D03*
X183944000Y-81296000D03*
X183944000Y-80796000D03*
X183944000Y-76796000D03*
X183944000Y-76296000D03*
X183944000Y-75796000D03*
X184444000Y-82296000D03*
X184444000Y-81796000D03*
X184444000Y-81296000D03*
X184444000Y-80296000D03*
X184444000Y-79796000D03*
X184444000Y-79296000D03*
X184444000Y-78796000D03*
X184444000Y-78296000D03*
X184444000Y-77796000D03*
X184444000Y-76796000D03*
X184444000Y-76296000D03*
X184444000Y-75796000D03*
X184944000Y-82296000D03*
X184944000Y-81796000D03*
X184944000Y-81296000D03*
X184944000Y-80296000D03*
X184944000Y-77796000D03*
X184944000Y-76796000D03*
X184944000Y-76296000D03*
X184944000Y-75796000D03*
X185444000Y-82296000D03*
X185444000Y-81796000D03*
X185444000Y-81296000D03*
X185444000Y-80296000D03*
X185444000Y-77796000D03*
X185444000Y-76796000D03*
X185444000Y-76296000D03*
X185444000Y-75796000D03*
X185944000Y-82296000D03*
X185944000Y-81796000D03*
X185944000Y-81296000D03*
X185944000Y-80296000D03*
X185944000Y-77796000D03*
X185944000Y-76796000D03*
X185944000Y-76296000D03*
X185944000Y-75796000D03*
X186444000Y-82296000D03*
X186444000Y-81796000D03*
X186444000Y-81296000D03*
X186444000Y-80296000D03*
X186444000Y-77796000D03*
X186444000Y-76796000D03*
X186444000Y-76296000D03*
X186444000Y-75796000D03*
X186944000Y-82296000D03*
X186944000Y-81796000D03*
X186944000Y-81296000D03*
X186944000Y-80296000D03*
X186944000Y-79796000D03*
X186944000Y-79296000D03*
X186944000Y-78796000D03*
X186944000Y-78296000D03*
X186944000Y-77796000D03*
X186944000Y-76796000D03*
X186944000Y-76296000D03*
X186944000Y-75796000D03*
X187444000Y-82296000D03*
X187444000Y-81796000D03*
X187444000Y-81296000D03*
X187444000Y-76796000D03*
X187444000Y-76296000D03*
X187444000Y-75796000D03*
X187944000Y-82296000D03*
X187944000Y-81796000D03*
X187944000Y-81296000D03*
X187944000Y-80796000D03*
X187944000Y-80296000D03*
X187944000Y-79796000D03*
X187944000Y-79296000D03*
X187944000Y-78796000D03*
X187944000Y-78296000D03*
X187944000Y-77796000D03*
X187944000Y-77296000D03*
X187944000Y-76796000D03*
X187944000Y-76296000D03*
X187944000Y-75796000D03*
X188444000Y-82296000D03*
X188444000Y-81796000D03*
X188444000Y-81296000D03*
X188444000Y-80796000D03*
X188444000Y-80296000D03*
X188444000Y-79796000D03*
X188444000Y-79296000D03*
X188444000Y-78796000D03*
X188444000Y-78296000D03*
X188444000Y-77796000D03*
X188444000Y-77296000D03*
X188444000Y-76796000D03*
X188444000Y-76296000D03*
X188444000Y-75796000D03*
X188944000Y-82296000D03*
X188944000Y-81796000D03*
X188944000Y-81296000D03*
X188944000Y-80796000D03*
X188944000Y-80296000D03*
X188944000Y-79796000D03*
X188944000Y-79296000D03*
X188944000Y-78796000D03*
X188944000Y-78296000D03*
X188944000Y-77796000D03*
X188944000Y-77296000D03*
X188944000Y-76796000D03*
X188944000Y-76296000D03*
X188944000Y-75796000D03*
%TD*%
D17*
%TO.C,R157*%
X191641000Y-98933000D03*
X192661000Y-98933000D03*
%TD*%
%TO.C,R84*%
X212850000Y-107442000D03*
X213870000Y-107442000D03*
%TD*%
D24*
%TO.C,R238*%
X119410000Y-43690000D03*
X119410000Y-42670000D03*
%TD*%
D20*
%TO.C,TP33*%
X143814800Y-108229400D03*
%TD*%
D15*
%TO.C,C127*%
X142567600Y-57251600D03*
X141607600Y-57251600D03*
%TD*%
D24*
%TO.C,R70*%
X164261800Y-107721400D03*
X164261800Y-106701400D03*
%TD*%
D17*
%TO.C,R53*%
X151610600Y-96723200D03*
X152630600Y-96723200D03*
%TD*%
D52*
%TO.C,R183*%
X211201000Y-50268500D03*
X211201000Y-52093500D03*
%TD*%
D58*
%TO.C,C105*%
X146264000Y-92089100D03*
X147224000Y-92089100D03*
%TD*%
D91*
%TO.C,U7*%
X184813001Y-98107500D03*
X185313000Y-98107500D03*
X185812999Y-98107500D03*
X186313000Y-98107500D03*
X186813000Y-98107500D03*
X187313001Y-98107500D03*
X187813000Y-98107500D03*
X188312999Y-98107500D03*
D92*
X189039500Y-97380999D03*
X189039500Y-96881000D03*
X189039500Y-96381001D03*
X189039500Y-95881000D03*
X189039500Y-95381000D03*
X189039500Y-94880999D03*
X189039500Y-94381000D03*
X189039500Y-93881001D03*
D91*
X188312999Y-93154500D03*
X187813000Y-93154500D03*
X187313001Y-93154500D03*
X186813000Y-93154500D03*
X186313000Y-93154500D03*
X185812999Y-93154500D03*
X185313000Y-93154500D03*
X184813001Y-93154500D03*
D92*
X184086500Y-93881001D03*
X184086500Y-94381000D03*
X184086500Y-94880999D03*
X184086500Y-95381000D03*
X184086500Y-95881000D03*
X184086500Y-96381001D03*
X184086500Y-96881000D03*
X184086500Y-97380999D03*
%TD*%
D32*
%TO.C,TP55*%
X134855200Y-76087100D03*
%TD*%
D17*
%TO.C,R107*%
X194739800Y-96901000D03*
X195759800Y-96901000D03*
%TD*%
D93*
%TO.C,J1*%
X126365000Y-96647000D03*
X130435000Y-96647000D03*
X126365000Y-97917000D03*
X130435000Y-97917000D03*
X126365000Y-99187000D03*
X130435000Y-99187000D03*
X126365000Y-100457000D03*
X130435000Y-100457000D03*
X126365000Y-101727000D03*
X130435000Y-101727000D03*
%TD*%
D78*
%TO.C,J6*%
X114680000Y-43972500D03*
X108900000Y-43972500D03*
D94*
X114990000Y-45047500D03*
X114190000Y-45047500D03*
D95*
X113040000Y-45047500D03*
X112040000Y-45047500D03*
X111540000Y-45047500D03*
X110540000Y-45047500D03*
D94*
X108590000Y-45047500D03*
X109390000Y-45047500D03*
D95*
X110040000Y-45047500D03*
X111040000Y-45047500D03*
X112540000Y-45047500D03*
X113540000Y-45047500D03*
D96*
X116900000Y-44472500D03*
X106680000Y-44472500D03*
X116900000Y-40542500D03*
X106680000Y-40542500D03*
%TD*%
D50*
%TO.C,TP52*%
X97790000Y-63246000D03*
%TD*%
D54*
%TO.C,H5*%
X100330000Y-45847000D03*
%TD*%
D85*
%TO.C,J9*%
X133350000Y-41910000D03*
D38*
X133350000Y-44450000D03*
X135890000Y-41910000D03*
X135890000Y-44450000D03*
X138430000Y-41910000D03*
X138430000Y-44450000D03*
X140970000Y-41910000D03*
X140970000Y-44450000D03*
X143510000Y-41910000D03*
X143510000Y-44450000D03*
X146050000Y-41910000D03*
X146050000Y-44450000D03*
X148590000Y-41910000D03*
X148590000Y-44450000D03*
X151130000Y-41910000D03*
X151130000Y-44450000D03*
X153670000Y-41910000D03*
X153670000Y-44450000D03*
X156210000Y-41910000D03*
X156210000Y-44450000D03*
X158750000Y-41910000D03*
X158750000Y-44450000D03*
X161290000Y-41910000D03*
X161290000Y-44450000D03*
%TD*%
D14*
%TO.C,C93*%
X195326000Y-69949000D03*
X195326000Y-68989000D03*
%TD*%
D85*
%TO.C,J7*%
X172730000Y-41890000D03*
D38*
X172730000Y-44430000D03*
X175270000Y-41890000D03*
X175270000Y-44430000D03*
X177810000Y-41890000D03*
X177810000Y-44430000D03*
X180350000Y-41890000D03*
X180350000Y-44430000D03*
X182890000Y-41890000D03*
X182890000Y-44430000D03*
X185430000Y-41890000D03*
X185430000Y-44430000D03*
X187970000Y-41890000D03*
X187970000Y-44430000D03*
X190510000Y-41890000D03*
X190510000Y-44430000D03*
X193050000Y-41890000D03*
X193050000Y-44430000D03*
%TD*%
D28*
%TO.C,R190*%
X210314000Y-71755000D03*
X209294000Y-71755000D03*
%TD*%
D97*
%TO.C,U20*%
X207573800Y-118019200D03*
X208523800Y-118019200D03*
X209473800Y-118019200D03*
X209473800Y-115519200D03*
X208523800Y-115519200D03*
X207573800Y-115519200D03*
%TD*%
D28*
%TO.C,R180*%
X215140000Y-53975000D03*
X214120000Y-53975000D03*
%TD*%
D17*
%TO.C,R214*%
X169293000Y-87503000D03*
X170313000Y-87503000D03*
%TD*%
D28*
%TO.C,R115*%
X181231000Y-93472000D03*
X180211000Y-93472000D03*
%TD*%
M02*
