M48
; DRILL file {KiCad 9.0.6} date 2026-04-18T09:15:09-0400
; FORMAT={-:-/ absolute / metric / decimal}
; #@! TF.CreationDate,2026-04-18T09:15:09-04:00
; #@! TF.GenerationSoftware,Kicad,Pcbnew,9.0.6
; #@! TF.FileFunction,Plated,1,6,PTH
FMAT,2
METRIC
; #@! TA.AperFunction,Plated,PTH,ViaDrill
T1C0.152
; #@! TA.AperFunction,Plated,PTH,ViaDrill
T2C0.203
; #@! TA.AperFunction,Plated,PTH,ViaDrill
T3C0.254
; #@! TA.AperFunction,Plated,PTH,ComponentDrill
T4C0.500
; #@! TA.AperFunction,Plated,PTH,ComponentDrill
T5C0.900
; #@! TA.AperFunction,Plated,PTH,ComponentDrill
T6C0.920
; #@! TA.AperFunction,Plated,PTH,ComponentDrill
T7C1.000
; #@! TA.AperFunction,Plated,PTH,ComponentDrill
T8C1.020
; #@! TA.AperFunction,Plated,PTH,ComponentDrill
T9C1.100
; #@! TA.AperFunction,Plated,PTH,ComponentDrill
T10C1.600
; #@! TA.AperFunction,Plated,PTH,ComponentDrill
T11C2.300
; #@! TA.AperFunction,Plated,PTH,ComponentDrill
T12C3.200
%
G90
G05
T1
X149.962Y-80.747
X152.612Y-89.997
T2
X95.428Y-109.322
X95.428Y-112.116
X99.568Y-108.915
X99.924Y-112.37
X100.838Y-108.788
X100.889Y-112.37
X106.375Y-73.355
X107.188Y-107.823
X108.204Y-76.454
X109.982Y-54.737
X110.617Y-52.273
X110.617Y-52.832
X115.951Y-98.425
X116.713Y-97.79
X120.752Y-75.438
X122.733Y-110.515
X124.231Y-100.457
X132.156Y-87.884
X132.156Y-88.849
X132.207Y-89.916
X132.258Y-94.945
X132.385Y-96.672
X132.69Y-91.44
X133.096Y-93.472
X133.248Y-95.555
X133.299Y-97.18
X133.794Y-85.788
X134.112Y-91.44
X134.29Y-85.344
X134.366Y-93.472
X134.696Y-97.028
X134.728Y-75.35
X134.76Y-72.644
X135.382Y-97.028
X135.509Y-61.341
X136.608Y-71.617
X136.608Y-74.969
X136.684Y-77.878
X136.684Y-78.678
X136.684Y-79.414
X136.709Y-73.166
X136.818Y-69.065
X136.818Y-69.865
X136.818Y-70.665
X136.818Y-73.865
X136.818Y-76.265
X136.818Y-80.265
X136.818Y-81.065
X137.218Y-68.01
X137.618Y-69.865
X137.618Y-70.665
X137.618Y-76.265
X137.618Y-77.865
X137.618Y-79.465
X137.618Y-81.065
X137.973Y-87.442
X138.259Y-84.393
X138.259Y-85.053
X138.354Y-90.957
X138.418Y-69.865
X138.418Y-71.465
X138.418Y-72.265
X138.418Y-73.065
X138.418Y-74.665
X138.418Y-77.865
X138.418Y-78.665
X138.418Y-79.465
X138.418Y-80.265
X138.418Y-81.065
X138.938Y-53.721
X139.122Y-67.908
X139.173Y-86.36
X139.224Y-71.464
X139.376Y-75.96
X139.453Y-69.686
X139.573Y-57.772
X139.61Y-73.528
X139.61Y-74.231
X140.519Y-72.633
X140.951Y-73.141
X141.408Y-75.833
X141.408Y-76.62
X141.618Y-73.865
X141.618Y-78.665
X141.618Y-79.465
X141.618Y-80.265
X142.17Y-68.086
X142.418Y-69.065
X142.418Y-72.265
X142.418Y-73.865
X142.418Y-77.865
X142.418Y-79.465
X142.418Y-80.265
X142.756Y-67.637
X143.218Y-69.065
X143.218Y-70.665
X143.218Y-73.865
X143.218Y-75.465
X143.218Y-77.865
X143.218Y-78.665
X143.218Y-79.465
X143.218Y-80.265
X144.018Y-69.065
X144.018Y-70.665
X144.018Y-75.465
X144.018Y-77.865
X144.018Y-79.465
X144.018Y-80.265
X144.202Y-71.865
X144.202Y-77.179
X144.736Y-75.465
X145.591Y-73.731
X146.336Y-80.634
X147.53Y-74.703
X147.657Y-79.973
X148.061Y-68.391
X148.063Y-79.364
X148.082Y-98.527
X148.092Y-87.806
X148.19Y-84.698
X148.622Y-74.228
X148.717Y-87.782
X148.795Y-79.34
X149.181Y-83.478
X149.181Y-84.19
X149.208Y-76.265
X149.555Y-107.798
X149.555Y-109.042
X149.555Y-110.287
X149.581Y-106.553
X149.606Y-50.749
X149.809Y-91.186
X149.86Y-112.903
X149.994Y-77.913
X150.095Y-81.624
X150.168Y-87.233
X150.241Y-50.546
X150.311Y-90.825
X150.47Y-103.48
X150.47Y-104.572
X150.546Y-112.903
X150.597Y-107.163
X150.597Y-108.382
X150.597Y-109.677
X150.597Y-110.922
X150.647Y-94.183
X150.73Y-77.916
X151.042Y-84.431
X151.365Y-80.278
X151.416Y-78.094
X151.467Y-78.83
X151.619Y-79.618
X151.638Y-52.578
X151.842Y-81.213
X151.842Y-82.013
X151.842Y-83.613
X151.842Y-85.213
X151.842Y-86.013
X151.842Y-86.813
X151.842Y-88.413
X151.842Y-89.213
X151.842Y-90.013
X151.842Y-91.613
X151.892Y-53.289
X152.122Y-78.043
X152.146Y-52.045
X152.642Y-82.813
X152.642Y-83.613
X152.642Y-84.431
X152.642Y-85.213
X152.642Y-86.013
X152.642Y-86.813
X152.642Y-88.413
X152.642Y-89.213
X152.642Y-92.413
X152.642Y-93.213
X152.649Y-90.786
X152.654Y-91.674
X152.679Y-54.051
X152.825Y-78.043
X153.367Y-84.413
X153.416Y-53.061
X153.423Y-87.593
X153.429Y-94.0
X153.442Y-82.013
X153.442Y-82.813
X153.442Y-83.613
X153.442Y-85.213
X153.442Y-86.013
X153.442Y-86.813
X153.442Y-88.413
X153.442Y-89.213
X153.442Y-90.831
X153.442Y-91.613
X153.442Y-92.413
X153.442Y-93.213
X153.845Y-74.99
X153.919Y-51.948
X154.127Y-54.61
X154.135Y-77.131
X154.242Y-82.013
X154.242Y-82.813
X154.242Y-83.613
X154.242Y-86.813
X154.242Y-89.213
X154.242Y-90.831
X154.242Y-91.613
X154.242Y-92.413
X154.635Y-55.321
X154.661Y-56.058
X155.042Y-82.013
X155.042Y-82.813
X155.042Y-83.613
X155.042Y-86.813
X155.042Y-89.213
X155.042Y-90.813
X155.042Y-92.413
X155.042Y-91.688
X155.067Y-85.242
X155.346Y-50.851
X155.829Y-86.83
X155.84Y-83.686
X155.842Y-82.813
X155.842Y-85.115
X155.842Y-89.213
X155.842Y-91.613
X155.842Y-92.413
X155.842Y-93.213
X155.933Y-90.8
X156.103Y-73.361
X156.419Y-76.571
X156.642Y-82.013
X156.642Y-82.813
X156.642Y-85.213
X156.642Y-86.013
X156.642Y-86.813
X156.642Y-89.213
X156.642Y-90.013
X156.642Y-90.831
X156.642Y-91.613
X156.642Y-92.413
X156.845Y-99.924
X157.385Y-79.516
X157.442Y-82.013
X157.442Y-82.813
X157.836Y-51.74
X157.861Y-56.109
X157.861Y-56.82
X157.963Y-98.501
X157.988Y-105.639
X158.147Y-83.707
X158.242Y-82.013
X158.242Y-82.813
X158.242Y-85.213
X158.242Y-86.813
X158.242Y-90.831
X158.242Y-91.613
X158.242Y-92.413
X158.255Y-88.494
X158.496Y-51.74
X158.496Y-53.442
X158.852Y-50.521
X159.042Y-82.013
X159.042Y-82.813
X159.042Y-83.613
X159.042Y-85.213
X159.042Y-86.813
X159.042Y-88.413
X159.042Y-90.013
X159.042Y-90.831
X159.042Y-91.613
X159.042Y-92.413
X159.08Y-53.061
X159.182Y-51.994
X159.334Y-57.785
X159.487Y-57.048
X159.519Y-80.303
X159.563Y-104.953
X159.741Y-50.648
X159.741Y-53.213
X159.842Y-82.013
X159.842Y-82.813
X159.842Y-83.613
X159.842Y-84.431
X159.842Y-88.413
X159.842Y-90.831
X159.842Y-91.613
X159.842Y-92.413
X160.274Y-114.046
X160.299Y-52.654
X160.299Y-98.146
X160.642Y-82.013
X160.642Y-82.813
X160.642Y-83.613
X160.642Y-84.431
X160.642Y-85.213
X160.642Y-86.013
X160.642Y-86.813
X160.642Y-87.613
X160.642Y-88.413
X160.642Y-89.213
X160.642Y-90.013
X160.642Y-90.831
X160.642Y-91.613
X160.642Y-92.413
X160.68Y-51.333
X160.934Y-114.021
X161.417Y-98.146
X161.442Y-82.013
X161.442Y-82.813
X161.442Y-83.613
X161.442Y-84.431
X161.442Y-85.213
X161.442Y-86.013
X161.442Y-86.813
X161.442Y-87.613
X161.442Y-88.413
X161.442Y-89.213
X161.442Y-90.013
X161.442Y-90.831
X161.442Y-91.613
X161.442Y-92.413
X161.823Y-76.225
X162.242Y-82.013
X162.242Y-82.813
X162.242Y-83.613
X162.242Y-84.431
X162.242Y-85.213
X162.242Y-86.013
X162.242Y-86.813
X162.242Y-87.613
X162.242Y-88.413
X162.242Y-89.213
X162.242Y-90.013
X162.242Y-90.831
X162.242Y-91.613
X162.242Y-92.413
X162.433Y-110.414
X162.509Y-114.376
X162.509Y-115.037
X163.042Y-110.67
X163.042Y-83.613
X163.042Y-89.213
X163.042Y-90.013
X163.042Y-90.831
X163.042Y-91.613
X163.042Y-92.413
X163.881Y-93.167
X163.881Y-93.878
X164.065Y-82.412
X164.065Y-83.199
X164.084Y-80.34
X164.306Y-114.739
X164.338Y-54.991
X164.338Y-75.692
X164.541Y-114.122
X164.694Y-91.262
X165.049Y-84.734
X165.659Y-114.122
X165.786Y-49.809
X166.04Y-110.388
X166.156Y-113.687
X166.179Y-82.15
X166.192Y-86.182
X166.294Y-92.862
X166.445Y-49.778
X166.472Y-92.05
X166.599Y-96.139
X166.678Y-110.556
X166.853Y-93.523
X167.157Y-95.529
X167.157Y-96.749
X167.284Y-94.132
X168.021Y-92.481
X168.148Y-85.598
X170.739Y-105.918
X171.018Y-86.69
X171.298Y-89.052
X171.323Y-91.592
X171.323Y-92.608
X171.348Y-90.373
X171.352Y-106.163
X174.269Y-100.203
X174.955Y-100.228
X175.209Y-100.914
X175.288Y-101.57
X178.422Y-92.088
X178.46Y-93.777
X178.664Y-91.465
X178.74Y-52.172
X179.07Y-51.562
X179.07Y-93.497
X179.324Y-91.491
X180.34Y-83.693
X180.34Y-84.963
X180.365Y-51.537
X180.956Y-51.241
X181.664Y-79.607
X181.915Y-81.305
X181.915Y-82.525
X181.991Y-79.019
X182.214Y-51.249
X182.347Y-95.834
X182.372Y-97.155
X182.575Y-83.185
X182.753Y-95.123
X182.855Y-51.41
X182.88Y-96.52
X183.007Y-91.465
X183.363Y-82.855
X183.515Y-89.027
X183.663Y-91.387
X183.947Y-78.791
X183.947Y-80.137
X184.125Y-51.46
X184.201Y-91.77
X184.507Y-80.781
X184.734Y-77.267
X184.785Y-51.46
X184.894Y-78.918
X184.912Y-91.542
X185.141Y-79.578
X185.316Y-92.151
X185.353Y-80.797
X185.369Y-95.631
X185.657Y-52.312
X185.699Y-77.292
X185.953Y-80.797
X185.953Y-95.631
X185.979Y-88.9
X186.03Y-52.857
X186.03Y-79.832
X186.563Y-94.386
X186.563Y-94.996
X186.563Y-95.631
X186.563Y-96.241
X186.563Y-96.825
X186.614Y-80.823
X186.69Y-77.292
X187.071Y-91.339
X187.173Y-95.631
X187.452Y-78.105
X187.452Y-80.823
X187.478Y-80.163
X187.554Y-83.185
X187.782Y-95.631
X187.985Y-90.424
X188.443Y-82.779
X188.443Y-87.224
X189.217Y-90.945
X189.408Y-80.035
X189.459Y-81.178
X189.459Y-81.737
X189.791Y-91.272
X190.424Y-95.402
X191.414Y-89.586
X192.049Y-99.974
X192.075Y-91.11
X192.329Y-51.105
X192.735Y-99.847
X192.888Y-56.718
X192.938Y-51.46
X193.116Y-53.721
X193.243Y-57.302
X193.421Y-74.549
X193.421Y-79.197
X193.548Y-103.835
X193.685Y-53.385
X193.751Y-105.156
X193.751Y-106.477
X193.904Y-58.801
X193.98Y-56.947
X194.081Y-55.575
X194.183Y-51.46
X194.208Y-103.784
X194.329Y-58.296
X194.386Y-104.927
X194.412Y-106.299
X194.564Y-57.302
X194.589Y-55.143
X194.634Y-51.947
X194.894Y-80.162
X195.148Y-60.503
X195.453Y-51.46
X195.479Y-59.931
X195.782Y-105.812
X196.097Y-51.314
X196.393Y-105.562
X196.952Y-109.626
X197.358Y-101.397
X200.406Y-100.381
X201.828Y-65.1
X201.854Y-82.906
X202.336Y-103.911
X202.336Y-105.054
X204.622Y-82.321
X204.699Y-83.337
X206.604Y-96.545
X206.604Y-97.409
X206.629Y-98.323
X206.629Y-99.238
X206.68Y-100.228
X206.756Y-94.513
X207.442Y-105.918
X208.026Y-105.283
X208.026Y-105.918
X208.026Y-106.502
X208.521Y-117.145
X208.61Y-105.918
X210.515Y-105.562
X211.074Y-74.625
X211.607Y-75.362
X215.316Y-83.896
X215.341Y-76.759
X215.341Y-77.851
X215.341Y-78.969
X215.341Y-79.705
X215.341Y-101.651
X215.367Y-99.543
X215.443Y-96.291
X215.443Y-97.409
X215.468Y-100.584
X215.468Y-102.743
X215.468Y-104.369
X215.494Y-90.297
X215.519Y-74.676
X215.519Y-75.692
X215.57Y-73.584
X215.57Y-85.598
X215.646Y-64.922
X216.205Y-86.182
X216.23Y-87.122
X216.23Y-91.364
X216.23Y-98.476
X216.281Y-80.035
X216.306Y-78.969
X216.306Y-89.23
X216.306Y-105.131
X216.332Y-77.902
X216.332Y-88.163
X216.357Y-76.81
X217.043Y-94.386
X217.322Y-104.648
X221.463Y-87.122
X222.504Y-108.585
T3
X90.805Y-49.53
X90.805Y-52.07
X90.805Y-54.61
X90.805Y-57.15
X90.805Y-59.69
X90.805Y-62.23
X90.805Y-64.77
X90.805Y-66.675
X90.805Y-69.85
X90.805Y-72.39
X90.805Y-74.93
X90.805Y-77.47
X90.805Y-80.01
X90.805Y-82.55
X90.805Y-85.09
X90.805Y-87.63
X90.805Y-90.17
X90.805Y-92.71
X90.805Y-95.25
X90.805Y-97.79
X90.805Y-100.33
X90.805Y-102.87
X90.805Y-105.41
X90.805Y-107.95
X90.805Y-110.49
X90.805Y-113.03
X90.805Y-115.57
X92.71Y-49.53
X92.71Y-52.07
X92.71Y-54.61
X92.71Y-57.15
X92.71Y-59.69
X92.71Y-62.23
X92.71Y-64.77
X92.71Y-66.675
X92.71Y-69.85
X92.71Y-72.39
X92.71Y-74.93
X92.71Y-77.47
X92.71Y-80.01
X92.71Y-82.55
X92.71Y-85.09
X92.71Y-87.63
X92.71Y-90.17
X92.71Y-92.71
X92.71Y-95.25
X92.71Y-97.79
X92.71Y-100.33
X92.71Y-102.87
X92.71Y-105.41
X92.71Y-107.95
X92.71Y-110.49
X92.71Y-113.03
X92.71Y-115.57
X95.479Y-62.713
X95.479Y-63.754
X95.885Y-70.485
X95.885Y-74.295
X95.885Y-85.09
X95.885Y-93.98
X95.885Y-101.6
X95.885Y-105.41
X97.028Y-64.694
X97.053Y-61.747
X97.79Y-68.58
X97.79Y-72.39
X97.79Y-76.2
X97.79Y-86.995
X97.79Y-95.885
X97.79Y-103.505
X97.79Y-125.73
X98.044Y-113.284
X98.4Y-61.747
X98.4Y-64.694
X98.628Y-109.931
X99.06Y-40.005
X99.695Y-52.451
X99.695Y-53.34
X99.695Y-54.229
X99.695Y-55.118
X99.695Y-66.675
X99.695Y-70.485
X99.695Y-85.09
X99.695Y-93.98
X99.746Y-80.137
X99.746Y-81.153
X99.746Y-82.042
X99.746Y-82.931
X100.076Y-62.713
X100.101Y-63.754
X100.584Y-60.579
X100.635Y-58.039
X100.711Y-82.042
X100.711Y-82.931
X100.965Y-51.562
X100.965Y-52.451
X100.965Y-53.34
X100.965Y-54.229
X100.965Y-55.118
X101.6Y-64.77
X101.6Y-68.58
X101.6Y-86.995
X101.727Y-82.042
X101.727Y-82.931
X102.235Y-40.005
X102.235Y-125.73
X102.794Y-82.042
X102.794Y-82.931
X102.87Y-101.6
X102.87Y-105.41
X103.124Y-73.914
X103.505Y-66.675
X103.505Y-85.09
X103.607Y-71.399
X103.759Y-82.042
X103.759Y-82.931
X103.988Y-51.74
X104.648Y-69.469
X104.775Y-82.042
X104.775Y-82.931
X104.775Y-103.505
X104.775Y-125.73
X104.8Y-99.238
X104.81Y-97.902
X105.008Y-43.949
X105.008Y-45.117
X105.029Y-53.264
X105.032Y-39.926
X105.05Y-41.199
X105.41Y-86.995
X105.791Y-56.058
X105.791Y-81.153
X105.791Y-82.042
X105.791Y-82.931
X106.075Y-46.032
X106.68Y-101.6
X106.68Y-105.41
X106.68Y-125.73
X107.188Y-109.22
X107.188Y-113.411
X107.213Y-76.378
X107.264Y-47.066
X107.315Y-66.675
X107.315Y-85.09
X107.315Y-93.98
X107.467Y-80.239
X107.523Y-46.032
X107.95Y-77.724
X107.95Y-114.3
X108.306Y-39.929
X108.324Y-41.201
X108.331Y-80.264
X108.585Y-68.758
X108.585Y-103.505
X108.737Y-52.07
X108.915Y-112.598
X108.966Y-78.969
X108.966Y-79.756
X109.22Y-48.92
X109.22Y-64.262
X109.22Y-65.024
X109.22Y-95.25
X109.22Y-125.73
X109.652Y-72.187
X109.982Y-117.348
X110.236Y-64.262
X110.236Y-65.024
X110.617Y-72.136
X111.049Y-116.002
X111.252Y-64.262
X111.252Y-65.024
X111.76Y-125.73
X113.03Y-103.505
X114.3Y-86.995
X114.3Y-125.73
X115.265Y-39.903
X115.283Y-41.176
X116.438Y-46.032
X116.84Y-125.73
X117.607Y-46.032
X117.653Y-49.784
X117.653Y-50.521
X118.11Y-86.995
X118.11Y-110.49
X118.521Y-43.517
X118.521Y-44.965
X118.539Y-39.906
X118.557Y-41.179
X118.618Y-76.2
X118.745Y-77.724
X119.38Y-85.725
X119.38Y-125.73
X119.634Y-110.49
X120.599Y-70.104
X120.65Y-79.934
X120.65Y-80.899
X120.65Y-81.864
X120.65Y-82.829
X121.234Y-55.194
X121.234Y-57.633
X121.26Y-79.146
X121.285Y-39.37
X121.285Y-48.26
X121.412Y-110.49
X121.818Y-76.302
X121.92Y-79.934
X121.92Y-80.899
X121.92Y-81.864
X121.92Y-82.829
X121.92Y-125.73
X122.682Y-96.774
X122.936Y-76.251
X123.012Y-55.194
X123.012Y-57.683
X123.19Y-43.18
X124.231Y-99.187
X124.257Y-101.702
X124.282Y-56.413
X124.46Y-125.73
X124.841Y-71.628
X125.095Y-39.37
X125.095Y-46.355
X125.095Y-51.435
X125.73Y-75.133
X126.06Y-113.792
X126.294Y-119.126
X126.365Y-93.98
X127.0Y-125.73
X127.254Y-74.676
X127.864Y-44.018
X127.864Y-45.06
X128.27Y-46.228
X128.397Y-52.07
X128.397Y-52.959
X128.524Y-115.57
X128.702Y-112.09
X128.778Y-41.148
X129.286Y-46.228
X129.286Y-52.07
X129.286Y-52.959
X129.489Y-88.925
X129.489Y-90.957
X129.489Y-92.964
X129.515Y-94.996
X129.54Y-123.825
X129.54Y-125.73
X129.794Y-41.148
X130.099Y-119.355
X130.175Y-52.07
X130.175Y-52.959
X130.251Y-116.434
X130.302Y-46.228
X130.81Y-41.148
X130.912Y-44.653
X132.69Y-101.651
X133.655Y-100.127
X133.909Y-101.194
X134.493Y-57.785
X134.62Y-125.73
X135.23Y-84.15
X135.382Y-109.499
X137.16Y-125.73
X137.922Y-109.449
X138.608Y-119.253
X139.378Y-88.152
X139.378Y-90.565
X139.573Y-51.181
X139.7Y-101.651
X139.7Y-104.165
X139.7Y-125.73
X140.081Y-52.705
X140.716Y-60.198
X140.843Y-55.499
X140.843Y-57.531
X140.97Y-101.651
X140.97Y-104.165
X141.859Y-99.568
X142.24Y-110.49
X142.24Y-125.73
X142.265Y-101.651
X142.265Y-104.165
X144.018Y-57.658
X144.145Y-110.49
X144.78Y-125.73
X145.161Y-55.662
X145.161Y-56.66
X145.161Y-57.658
X145.542Y-90.678
X145.567Y-92.481
X145.567Y-93.243
X146.304Y-55.662
X146.304Y-56.66
X146.304Y-57.658
X147.447Y-51.671
X147.447Y-52.669
X147.447Y-53.667
X147.447Y-54.664
X147.447Y-55.662
X147.447Y-56.66
X147.447Y-57.658
X147.781Y-92.029
X148.361Y-90.322
X148.59Y-121.92
X148.59Y-125.73
X149.073Y-101.244
X149.352Y-98.425
X149.86Y-120.015
X149.86Y-123.825
X151.13Y-125.73
X152.527Y-117.856
X152.654Y-101.092
X153.162Y-122.682
X154.305Y-101.092
X155.067Y-124.587
X156.146Y-125.774
X156.718Y-112.014
X157.154Y-124.587
X157.607Y-113.03
X158.013Y-125.959
X158.623Y-113.03
X158.75Y-68.58
X158.816Y-105.891
X159.554Y-125.758
X160.619Y-105.891
X160.651Y-125.933
X161.29Y-71.12
X161.29Y-74.295
X161.754Y-125.933
X161.925Y-66.675
X162.179Y-52.832
X162.179Y-53.721
X162.423Y-105.891
X162.687Y-57.912
X162.858Y-125.933
X162.941Y-51.816
X162.941Y-54.737
X163.449Y-63.373
X163.703Y-70.79
X163.83Y-51.816
X163.961Y-125.933
X164.236Y-67.97
X164.252Y-105.865
X164.465Y-64.897
X164.846Y-112.141
X165.064Y-125.933
X165.1Y-39.37
X165.1Y-45.212
X165.354Y-57.912
X165.583Y-67.081
X165.862Y-44.45
X166.03Y-105.865
X166.167Y-125.933
X166.624Y-44.45
X167.005Y-112.903
X167.858Y-105.865
X167.894Y-122.936
X168.148Y-54.737
X168.148Y-57.15
X168.148Y-120.142
X168.275Y-39.37
X168.275Y-42.037
X168.275Y-59.69
X168.91Y-122.809
X169.291Y-112.141
X169.291Y-113.411
X169.418Y-125.857
X169.545Y-42.037
X169.545Y-52.705
X169.672Y-120.142
X170.307Y-114.3
X171.577Y-72.669
X171.577Y-75.59
X171.704Y-123.19
X172.542Y-72.72
X172.542Y-75.565
X172.72Y-52.705
X173.355Y-120.65
X173.355Y-125.73
X174.625Y-68.58
X175.26Y-123.19
X175.643Y-51.431
X176.53Y-111.125
X177.8Y-66.675
X177.8Y-125.73
X179.426Y-53.721
X179.426Y-54.483
X179.426Y-55.245
X179.426Y-58.293
X179.426Y-59.055
X179.426Y-59.817
X179.451Y-62.865
X179.451Y-63.627
X179.451Y-64.389
X179.705Y-107.95
X180.035Y-99.212
X180.34Y-68.58
X180.34Y-125.73
X182.88Y-125.73
X183.515Y-56.134
X183.515Y-57.277
X183.515Y-60.706
X183.515Y-61.722
X183.515Y-98.679
X184.404Y-56.134
X184.404Y-57.277
X184.404Y-60.706
X184.404Y-61.722
X184.531Y-99.441
X185.42Y-116.205
X185.42Y-118.11
X185.42Y-125.73
X185.547Y-99.441
X187.96Y-125.73
X189.611Y-93.091
X190.5Y-125.73
X191.059Y-83.744
X191.77Y-113.665
X192.507Y-110.592
X193.04Y-125.73
X193.802Y-94.056
X193.878Y-97.511
X195.072Y-90.449
X195.072Y-100.584
X195.326Y-68.265
X195.342Y-70.673
X195.58Y-125.73
X196.063Y-45.847
X196.063Y-46.685
X196.063Y-47.549
X196.266Y-94.996
X196.342Y-68.25
X196.342Y-70.663
X196.596Y-90.449
X196.698Y-100.584
X196.723Y-40.005
X197.231Y-57.277
X197.231Y-61.595
X197.231Y-64.008
X197.485Y-40.005
X198.12Y-90.424
X198.12Y-100.584
X198.12Y-125.73
X198.247Y-40.005
X198.755Y-115.57
X198.882Y-94.818
X198.882Y-96.139
X199.39Y-111.531
X199.644Y-90.424
X199.669Y-100.584
X200.406Y-94.844
X200.406Y-96.164
X200.533Y-39.878
X200.533Y-44.196
X200.66Y-48.92
X200.66Y-125.73
X200.914Y-124.485
X201.168Y-50.165
X201.168Y-90.424
X201.346Y-100.559
X201.549Y-42.672
X201.651Y-48.92
X201.676Y-111.531
X201.828Y-124.485
X201.93Y-39.878
X201.93Y-44.196
X201.93Y-94.818
X201.93Y-96.139
X201.93Y-120.193
X201.93Y-121.234
X202.184Y-72.415
X202.311Y-42.672
X202.692Y-75.108
X202.692Y-90.424
X202.692Y-100.584
X202.895Y-119.177
X202.895Y-126.035
X202.946Y-46.609
X203.53Y-64.16
X203.911Y-126.035
X204.013Y-119.177
X204.953Y-123.977
X204.978Y-124.993
X205.994Y-71.755
X206.134Y-118.897
X206.273Y-64.897
X206.375Y-53.213
X206.375Y-59.055
X207.01Y-101.6
X207.645Y-50.419
X207.645Y-125.73
X207.747Y-108.545
X208.28Y-57.15
X208.28Y-60.96
X208.509Y-114.275
X208.788Y-103.378
X208.966Y-75.159
X209.153Y-68.199
X209.169Y-70.714
X210.134Y-107.417
X210.185Y-99.695
X210.185Y-125.73
X210.312Y-68.199
X210.312Y-70.703
X210.312Y-110.236
X210.947Y-118.161
X211.328Y-110.236
X211.353Y-107.442
X212.141Y-123.952
X212.141Y-124.993
X212.395Y-48.92
X212.852Y-86.03
X212.852Y-89.23
X212.852Y-91.364
X212.877Y-95.783
X212.928Y-98.45
X212.928Y-99.492
X212.928Y-101.651
X212.979Y-49.911
X213.004Y-72.517
X213.03Y-75.184
X213.03Y-77.318
X213.157Y-119.253
X213.182Y-125.984
X213.385Y-48.92
X213.462Y-80.899
X213.741Y-83.109
X213.868Y-105.664
X214.198Y-119.253
X214.198Y-125.984
X215.163Y-120.04
X215.163Y-121.183
X215.24Y-124.485
X215.265Y-39.37
X216.154Y-124.485
X217.068Y-64.897
X217.17Y-125.73
X218.059Y-83.058
X218.288Y-92.913
X218.288Y-93.675
X218.821Y-86.03
X218.821Y-87.96
X218.821Y-90.526
X218.821Y-96.342
X218.821Y-98.476
X218.821Y-100.635
X218.821Y-102.743
X218.923Y-72.542
X218.923Y-73.609
X218.923Y-74.676
X218.923Y-75.743
X218.923Y-76.81
X218.923Y-77.902
X218.923Y-78.969
X218.923Y-80.061
X219.075Y-51.435
X219.075Y-59.055
X219.227Y-91.643
X220.066Y-64.897
X220.294Y-94.59
X220.675Y-91.618
X220.98Y-49.53
X220.98Y-53.34
X220.98Y-57.15
X220.98Y-60.96
X220.98Y-115.57
X221.336Y-69.698
X221.361Y-70.968
X224.79Y-49.53
X224.79Y-52.07
X224.79Y-54.61
X224.79Y-57.15
X224.79Y-59.69
X224.79Y-62.23
X224.79Y-64.77
X224.79Y-67.31
X224.79Y-69.85
X224.79Y-72.39
X224.79Y-74.93
X224.79Y-77.47
X224.79Y-80.01
X224.79Y-82.55
X224.79Y-85.09
X224.79Y-87.63
X224.79Y-90.17
X224.79Y-92.71
X224.79Y-95.25
X224.79Y-97.79
X224.79Y-100.33
X224.79Y-102.87
X224.79Y-105.41
X224.79Y-107.95
X224.79Y-110.49
X224.79Y-113.03
X224.79Y-115.57
X226.695Y-49.53
X226.695Y-52.07
X226.695Y-54.61
X226.695Y-57.15
X226.695Y-59.69
X226.695Y-62.23
X226.695Y-64.77
X226.695Y-67.31
X226.695Y-69.85
X226.695Y-72.39
X226.695Y-74.93
X226.695Y-77.47
X226.695Y-80.01
X226.695Y-82.55
X226.695Y-85.09
X226.695Y-87.63
X226.695Y-90.17
X226.695Y-92.71
X226.695Y-95.25
X226.695Y-97.79
X226.695Y-100.33
X226.695Y-102.87
X226.695Y-105.41
X226.695Y-107.95
X226.695Y-110.49
X226.695Y-113.03
X226.695Y-115.57
T4
X91.58Y-43.18
X91.58Y-121.92
X92.283Y-41.483
X92.283Y-44.877
X92.283Y-120.223
X92.283Y-123.617
X93.98Y-40.78
X93.98Y-45.58
X93.98Y-119.52
X93.98Y-124.32
X95.677Y-41.483
X95.677Y-44.877
X95.677Y-120.223
X95.677Y-123.617
X96.38Y-43.18
X96.38Y-121.92
X220.98Y-121.92
X221.12Y-43.18
X221.683Y-120.223
X221.683Y-123.617
X221.823Y-41.483
X221.823Y-44.877
X223.38Y-119.52
X223.38Y-124.32
X223.52Y-40.78
X223.52Y-45.58
X225.077Y-120.223
X225.077Y-123.617
X225.217Y-41.483
X225.217Y-44.877
X225.78Y-121.92
X225.92Y-43.18
T5
X102.489Y-119.381
X102.489Y-121.921
X105.029Y-119.381
X105.029Y-121.921
X182.185Y-110.308
X183.455Y-107.768
X184.725Y-110.308
X185.995Y-107.768
X187.265Y-110.308
X188.535Y-107.768
X189.805Y-110.308
X191.075Y-107.768
T6
X136.2Y-114.406
X138.7Y-114.406
X140.7Y-114.406
X143.2Y-114.406
T7
X133.35Y-41.91
X133.35Y-44.45
X135.89Y-41.91
X135.89Y-44.45
X138.43Y-41.91
X138.43Y-44.45
X140.97Y-41.91
X140.97Y-44.45
X143.51Y-41.91
X143.51Y-44.45
X146.05Y-41.91
X146.05Y-44.45
X148.59Y-41.91
X148.59Y-44.45
X151.13Y-41.91
X151.13Y-44.45
X153.67Y-41.91
X153.67Y-44.45
X156.21Y-41.91
X156.21Y-44.45
X158.75Y-41.91
X158.75Y-44.45
X161.29Y-41.91
X161.29Y-44.45
X172.73Y-41.89
X172.73Y-44.43
X175.27Y-41.89
X175.27Y-44.43
X177.81Y-41.89
X177.81Y-44.43
X180.35Y-41.89
X180.35Y-44.43
X182.89Y-41.89
X182.89Y-44.43
X185.43Y-41.89
X185.43Y-44.43
X187.97Y-41.89
X187.97Y-44.43
X190.51Y-41.89
X190.51Y-44.43
X193.05Y-41.89
X193.05Y-44.43
X204.48Y-41.89
X204.48Y-44.43
X207.02Y-41.89
X207.02Y-44.43
X209.56Y-41.89
X209.56Y-44.43
X212.1Y-41.89
X212.1Y-44.43
T8
X181.165Y-102.938
X183.705Y-102.938
X189.555Y-102.938
X192.095Y-102.938
T9
X116.02Y-116.892
X116.02Y-121.972
X121.1Y-116.892
X121.1Y-121.972
T10
X178.73Y-113.608
X194.53Y-113.608
T11
X133.13Y-117.116
X146.27Y-117.116
T12
X93.98Y-43.18
X93.98Y-121.92
X223.38Y-121.92
X223.52Y-43.18
M30
